<?xml version="1.0" encoding="UTF-8" standalone="no"?>
<svg
   version="1.1"
   width="11.6929in"
   height="8.2677in"
   viewBox="0 0 841.8898 595.2756"
   id="svg59"
   sodipodi:docname="Chennai Super Kings (CSK).cdr"
   xmlns:inkscape="http://www.inkscape.org/namespaces/inkscape"
   xmlns:sodipodi="http://sodipodi.sourceforge.net/DTD/sodipodi-0.dtd"
   xmlns="http://www.w3.org/2000/svg"
   xmlns:svg="http://www.w3.org/2000/svg">
  <defs
     id="defs59" />
  <sodipodi:namedview
     id="namedview59"
     pagecolor="#ffffff"
     bordercolor="#000000"
     borderopacity="0.25"
     inkscape:showpageshadow="2"
     inkscape:pageopacity="0.0"
     inkscape:pagecheckerboard="0"
     inkscape:deskcolor="#d1d1d1"
     inkscape:document-units="in" />
  <g
     id="Layer1000">
    <g
       id="Layer1001">
      <g
         id="Layer1002">
        <g
           id="Layer1003">
          <g
             id="Layer1004">
            <g
               id="Layer1005">
              <defs
                 id="defs2">
                <radialGradient
                   id="grad1"
                   cx="0.0000%"
                   cy="0.0000%"
                   r="100.0000%">
                  <stop
                     offset="0%"
                     stop-color="#fff200"
                     stop-opacity="1.0000"
                     id="stop1" />
                  <stop
                     offset="100%"
                     stop-color="#f25c19"
                     stop-opacity="1.0000"
                     id="stop2" />
                </radialGradient>
              </defs>
              <path
                 d="  M360.6297,229.4147 C351.9217,233.8902 341.3426,234.7866 332.1195,236.8877 L332.1195,236.8877 C332.9920,238.7302 336.4089,238.6314 339.3909,238.5318 L339.3909,238.5318 C340.7022,238.4885 341.9295,238.4446 342.8200,238.5654 L342.8200,238.5654 C333.0922,243.6834 326.1627,249.8198 320.4696,258.6526 L320.4696,258.6526 C317.0113,261.0846 315.2857,265.2518 313.3081,268.8458 L313.3081,268.8458 C312.1060,271.0270 309.9145,273.4564 310.9963,275.7591 L310.9963,275.7591 C313.1349,275.0055 323.1549,258.0529 339.9719,254.4854 L339.9719,254.4854 C339.2002,255.3100 334.3485,261.4846 333.0482,263.6975 L333.0482,263.6975 C329.7774,269.2665 327.5180,274.7852 325.5358,281.2810 L325.5358,281.2810 C323.4263,288.1949 322.8557,295.5665 321.7053,300.8020 L321.7053,300.8020 C321.2878,302.6924 319.7457,304.6241 320.5853,306.6554 L320.5853,306.6554 C322.1900,306.0537 322.9319,303.8169 323.7424,302.2342 L323.7424,302.2342 C326.5531,296.7530 328.8926,290.7723 333.3714,287.0361 L333.3714,287.0361 C333.3992,287.3554 333.1465,287.4349 333.1057,287.6999 L333.1057,287.6999 C325.5377,303.2385 329.2836,329.4899 333.4521,346.2449 L333.4521,346.2449 C334.2432,345.8952 334.1088,347.7837 334.9089,348.3647 L334.9089,348.3647 C334.1980,334.5394 329.9758,320.6455 331.2347,307.6992 L331.2347,307.6992 C332.3664,296.0796 336.8141,286.1074 341.8862,277.6934 L341.8862,277.6934 C338.6683,277.4821 335.5151,280.2476 333.3242,282.5600 L333.3242,282.5600 C329.9952,286.0732 327.9342,291.3811 324.9684,293.8105 L324.9684,293.8105 C328.4008,276.8849 338.0401,262.0824 349.7224,252.3992 L349.7224,252.3992 C351.3303,251.0665 363.5005,246.9309 362.0231,242.4238 L362.0231,242.4238 C361.3548,243.6129 360.7228,243.9147 359.9278,244.1952 L359.9278,244.1952 C354.9372,245.9647 348.9507,246.4676 343.6059,248.1020 L343.6059,248.1020 C337.0959,250.0926 332.0361,253.4804 327.2530,255.5323 L327.2530,255.5323 C331.4222,248.5111 339.9221,243.6116 344.7007,238.0891 L344.7007,238.0891 C354.1785,236.7597 360.7583,232.9725 365.2675,227.4306 L365.2675,227.4306 C364.9624,227.3375 364.6806,227.2955 364.4176,227.2955 L364.4176,227.2955 C362.8600,227.2955 361.9397,228.7419 360.6291,229.4134 Z M360.6297,229.4147 L360.6297,229.4147 L360.6297,229.4147 Z"
                 style="fill: url(#grad1); "
                 id="path2" />
            </g>
          </g>
        </g>
      </g>
      <g
         id="Layer1006">
        <g
           id="Layer1007">
          <g
             id="Layer1008">
            <g
               id="Layer1009">
              <defs
                 id="defs4">
                <radialGradient
                   id="grad2"
                   cx="0.0000%"
                   cy="0.0000%"
                   r="100.0000%">
                  <stop
                     offset="0%"
                     stop-color="#fff200"
                     stop-opacity="1.0000"
                     id="stop3" />
                  <stop
                     offset="100%"
                     stop-color="#f25c19"
                     stop-opacity="1.0000"
                     id="stop4" />
                </radialGradient>
              </defs>
              <path
                 d="  M270.2293,243.2697 C269.7052,243.3195 264.1814,244.9384 261.7785,245.5673 L261.7785,245.5673 C260.4097,245.9247 258.3810,246.8960 257.7224,246.8618 L257.7224,246.8618 C257.5499,246.8521 257.7522,246.1509 257.3515,246.2510 L257.3515,246.2510 C255.6537,246.6815 254.1272,247.7866 252.3951,248.2616 L252.3951,248.2616 C247.3896,249.6331 241.4231,250.4965 237.8479,254.2617 L237.8479,254.2617 C236.6516,254.4311 234.9532,254.1745 235.0650,255.4509 L235.0650,255.4509 C236.3472,256.8449 239.1586,256.1386 240.8654,255.9337 L240.8654,255.9337 C245.9646,255.3191 251.5640,252.6047 256.4480,250.8086 L256.4480,250.8086 C258.7856,249.9465 261.7488,248.6404 264.5310,247.9004 L264.5310,247.9004 C268.9129,246.7351 273.6792,245.4503 277.6985,244.5746 L277.6985,244.5746 C294.3332,240.9547 311.0623,239.1199 328.8054,239.4004 L328.8054,239.4004 C323.4121,238.8000 318.0951,238.5331 312.8298,238.5331 L312.8298,238.5331 C298.3343,238.5331 284.2576,240.5637 270.2287,243.2697 Z M270.2293,243.2697 L270.2293,243.2697 L270.2293,243.2697 Z"
                 style="fill: url(#grad2); "
                 id="path4" />
            </g>
          </g>
        </g>
      </g>
      <g
         id="Layer1010">
        <g
           id="Layer1011">
          <g
             id="Layer1012">
            <g
               id="Layer1013">
              <defs
                 id="defs6">
                <radialGradient
                   id="grad3"
                   cx="0.0000%"
                   cy="0.0000%"
                   r="100.0000%">
                  <stop
                     offset="0%"
                     stop-color="#fff200"
                     stop-opacity="1.0000"
                     id="stop5" />
                  <stop
                     offset="100%"
                     stop-color="#f25c19"
                     stop-opacity="1.0000"
                     id="stop6" />
                </radialGradient>
              </defs>
              <path
                 d="  M195.8258,260.9262 C195.9389,261.3741 196.3939,261.4200 196.5400,261.8272 L196.5400,261.8272 C197.9030,260.9140 199.8541,260.4978 200.4623,258.9447 L200.4623,258.9447 C200.0383,258.9079 199.6130,258.8807 199.1994,258.8807 L199.1994,258.8807 C197.6852,258.8807 196.3357,259.2511 195.8252,260.9262 Z M195.8258,260.9262 L195.8258,260.9262 L195.8258,260.9262 Z"
                 style="fill: url(#grad3); "
                 id="path6" />
            </g>
          </g>
        </g>
      </g>
      <g
         id="Layer1014">
        <g
           id="Layer1015">
          <g
             id="Layer1016">
            <g
               id="Layer1017">
              <defs
                 id="defs8">
                <radialGradient
                   id="grad4"
                   cx="0.0000%"
                   cy="0.0000%"
                   r="100.0000%">
                  <stop
                     offset="0%"
                     stop-color="#fff200"
                     stop-opacity="1.0000"
                     id="stop7" />
                  <stop
                     offset="100%"
                     stop-color="#f25c19"
                     stop-opacity="1.0000"
                     id="stop8" />
                </radialGradient>
              </defs>
              <path
                 d="  M224.1732,259.2297 C224.5474,259.2537 224.5603,259.7041 224.5693,260.1578 L224.5693,260.1578 C226.1256,260.3278 228.4567,260.5488 229.3906,260.3989 L229.3906,260.3989 C229.8062,258.9777 231.7728,258.8698 232.0165,257.3032 L232.0165,257.3032 C231.2952,256.8559 230.3814,256.6478 229.4242,256.6478 L229.4242,256.6478 C227.3761,256.6478 225.1348,257.6037 224.1738,259.2297 Z M224.1732,259.2297 L224.1732,259.2297 L224.1732,259.2297 Z"
                 style="fill: url(#grad4); "
                 id="path8" />
            </g>
          </g>
        </g>
      </g>
      <g
         id="Layer1018">
        <g
           id="Layer1019">
          <g
             id="Layer1020">
            <g
               id="Layer1021">
              <defs
                 id="defs10">
                <radialGradient
                   id="grad5"
                   cx="0.0000%"
                   cy="0.0000%"
                   r="100.0000%">
                  <stop
                     offset="0%"
                     stop-color="#fff200"
                     stop-opacity="1.0000"
                     id="stop9" />
                  <stop
                     offset="100%"
                     stop-color="#f25c19"
                     stop-opacity="1.0000"
                     id="stop10" />
                </radialGradient>
              </defs>
              <path
                 d="  M215.1355,262.2149 C215.9686,265.2040 219.5503,264.1376 222.3125,263.8649 L222.3125,263.8649 C222.5969,262.8347 221.7509,263.1333 221.5731,262.6447 L221.5731,262.6447 C222.0592,261.9726 223.3666,261.9978 223.0047,260.6063 L223.0047,260.6063 C222.2847,260.0389 221.4820,259.8146 220.6612,259.8146 L220.6612,259.8146 C218.5789,259.8146 216.3828,261.2597 215.1342,262.2156 Z M215.1355,262.2149 L215.1355,262.2149 L215.1355,262.2149 Z"
                 style="fill: url(#grad5); "
                 id="path10" />
            </g>
          </g>
        </g>
      </g>
      <g
         id="Layer1022">
        <g
           id="Layer1023">
          <g
             id="Layer1024">
            <g
               id="Layer1025">
              <defs
                 id="defs12">
                <radialGradient
                   id="grad6"
                   cx="0.0000%"
                   cy="0.0000%"
                   r="100.0000%">
                  <stop
                     offset="0%"
                     stop-color="#fff200"
                     stop-opacity="1.0000"
                     id="stop11" />
                  <stop
                     offset="100%"
                     stop-color="#f25c19"
                     stop-opacity="1.0000"
                     id="stop12" />
                </radialGradient>
              </defs>
              <path
                 d="  M207.5022,266.6859 C207.4977,267.6237 208.3017,267.6030 208.2965,268.5401 L208.2965,268.5401 C209.4986,267.2773 211.1001,268.1730 211.6365,266.3447 L211.6365,266.3447 C211.3444,265.9505 210.8390,265.8012 210.2716,265.8012 L210.2716,265.8012 C209.2556,265.8012 208.0419,266.2807 207.5022,266.6859 Z"
                 style="fill: url(#grad6); "
                 id="path12" />
            </g>
          </g>
        </g>
      </g>
      <g
         id="Layer1026">
        <g
           id="Layer1027">
          <g
             id="Layer1028">
            <g
               id="Layer1029">
              <defs
                 id="defs14">
                <radialGradient
                   id="grad7"
                   cx="0.0000%"
                   cy="0.0000%"
                   r="100.0000%">
                  <stop
                     offset="0%"
                     stop-color="#fff200"
                     stop-opacity="1.0000"
                     id="stop13" />
                  <stop
                     offset="100%"
                     stop-color="#f25c19"
                     stop-opacity="1.0000"
                     id="stop14" />
                </radialGradient>
              </defs>
              <path
                 d="  M242.2058,268.3055 C241.7721,268.3359 241.1478,268.3184 240.4123,268.2997 L240.4123,268.2997 C238.9918,268.2661 237.1583,268.2318 235.5025,268.5382 L235.5025,268.5382 C235.7946,270.4027 237.3095,270.8273 238.6254,271.4807 L238.6254,271.4807 C240.9998,270.2405 242.8553,268.5608 246.3646,268.2835 L246.3646,268.2835 C245.6641,267.1319 244.0826,267.0201 242.4184,267.0084 L242.4184,267.0084 C241.6752,267.4944 242.8663,268.1614 242.2064,268.3055 Z M242.2058,268.3055 L242.2058,268.3055 L242.2058,268.3055 Z"
                 style="fill: url(#grad7); "
                 id="path14" />
            </g>
          </g>
        </g>
      </g>
      <g
         id="Layer1030">
        <g
           id="Layer1031">
          <g
             id="Layer1032">
            <g
               id="Layer1033">
              <defs
                 id="defs16">
                <radialGradient
                   id="grad8"
                   cx="0.0000%"
                   cy="0.0000%"
                   r="100.0000%">
                  <stop
                     offset="0%"
                     stop-color="#fff200"
                     stop-opacity="1.0000"
                     id="stop15" />
                  <stop
                     offset="100%"
                     stop-color="#f25c19"
                     stop-opacity="1.0000"
                     id="stop16" />
                </radialGradient>
              </defs>
              <path
                 d="  M226.1482,271.5512 C226.9224,274.2636 229.3835,273.8287 231.4975,274.3101 L231.4975,274.3101 C232.3299,272.8470 233.9786,272.0779 234.7063,270.5249 L234.7063,270.5249 C234.2959,270.4951 233.9088,270.4816 233.5385,270.4816 L233.5385,270.4816 C230.7691,270.4816 228.9957,271.2319 226.1476,271.5512 Z M226.1482,271.5512 L226.1482,271.5512 L226.1482,271.5512 Z"
                 style="fill: url(#grad8); "
                 id="path16" />
            </g>
          </g>
        </g>
      </g>
      <g
         id="Layer1034">
        <g
           id="Layer1035">
          <g
             id="Layer1036">
            <g
               id="Layer1037">
              <defs
                 id="defs18">
                <radialGradient
                   id="grad9"
                   cx="0.0000%"
                   cy="0.0000%"
                   r="100.0000%">
                  <stop
                     offset="0%"
                     stop-color="#fff200"
                     stop-opacity="1.0000"
                     id="stop17" />
                  <stop
                     offset="100%"
                     stop-color="#f25c19"
                     stop-opacity="1.0000"
                     id="stop18" />
                </radialGradient>
              </defs>
              <path
                 d="  M245.6718,271.5402 C245.3545,271.5667 245.3164,271.8304 245.0624,271.9105 L245.0624,271.9105 C245.1335,272.7591 245.2026,273.6070 245.2731,274.4549 L245.2731,274.4549 C247.5493,276.9825 250.4524,275.2227 252.6911,275.1232 L252.6911,275.1232 C258.5788,274.8647 264.5162,276.4862 270.1466,277.2055 L270.1466,277.2055 C281.4204,278.6474 291.0261,280.7161 301.1075,283.9353 L301.1075,283.9353 C306.1460,285.5452 311.1909,287.3199 316.1795,288.1348 L316.1795,288.1348 C296.0180,279.2426 273.2042,271.5337 246.9683,271.5344 L246.9683,271.5344 C246.5391,271.5344 246.1042,271.5369 245.6725,271.5408 Z M245.6718,271.5402 L245.6718,271.5402 L245.6718,271.5402 Z"
                 style="fill: url(#grad9); "
                 id="path18" />
            </g>
          </g>
        </g>
      </g>
      <g
         id="Layer1038">
        <g
           id="Layer1039">
          <g
             id="Layer1040">
            <g
               id="Layer1041">
              <defs
                 id="defs20">
                <radialGradient
                   id="grad10"
                   cx="0.0000%"
                   cy="0.0000%"
                   r="100.0000%">
                  <stop
                     offset="0%"
                     stop-color="#fff200"
                     stop-opacity="1.0000"
                     id="stop19" />
                  <stop
                     offset="100%"
                     stop-color="#f25c19"
                     stop-opacity="1.0000"
                     id="stop20" />
                </radialGradient>
              </defs>
              <path
                 d="  M311.9018,302.2510 C311.9166,302.6575 311.5289,302.7234 311.6614,303.2295 L311.6614,303.2295 C320.8580,318.2207 321.1979,343.8103 323.5569,362.1034 L323.5569,362.1034 C325.5345,349.5009 324.3318,329.2230 320.6066,314.6564 L320.6066,314.6564 C319.5952,310.7018 315.9075,302.1818 312.4324,302.1825 L312.4324,302.1825 C312.2547,302.1825 312.0769,302.2051 311.9018,302.2510 Z"
                 style="fill: url(#grad10); "
                 id="path20" />
            </g>
          </g>
        </g>
      </g>
      <g
         id="Layer1042">
        <g
           id="Layer1043">
          <g
             id="Layer1044">
            <g
               id="Layer1045">
              <defs
                 id="defs22">
                <radialGradient
                   id="grad11"
                   cx="0.0000%"
                   cy="0.0000%"
                   r="18.0000%">
                  <stop
                     offset="0%"
                     stop-color="#fff200"
                     stop-opacity="1.0000"
                     id="stop21" />
                  <stop
                     offset="100%"
                     stop-color="#f25c19"
                     stop-opacity="1.0000"
                     id="stop22" />
                </radialGradient>
              </defs>
              <path
                 d="  M396.1153,126.4712 C366.3267,134.3268 339.2687,147.0308 332.9403,176.9635 L332.9403,176.9635 C335.9113,174.3189 337.0823,170.0877 339.1220,166.5312 L339.1220,166.5312 C340.2162,164.6240 341.3232,163.1867 342.5441,161.4475 L342.5441,161.4475 C343.7339,159.7517 345.1906,157.7721 345.3289,156.4181 L345.3289,156.4181 C346.5349,153.9112 352.6216,148.8650 356.0669,146.8906 L356.0669,146.8906 C386.1644,129.6374 419.3744,127.2965 429.4228,116.5152 L429.4228,116.5152 C427.7011,120.2456 423.3348,123.1241 419.9574,125.9374 L419.9574,125.9374 C373.2368,135.1172 355.2998,172.0582 352.7289,176.2927 L352.7289,176.2927 C360.5037,171.1786 384.6754,126.2056 451.0049,125.9393 L451.0049,125.9393 C459.3239,125.9057 469.9701,125.6666 477.8179,121.1678 L477.8179,121.1678 C472.8525,128.3073 459.5656,126.7304 452.1378,131.9278 L452.1378,131.9278 C464.6557,129.0783 483.8730,128.3054 496.7030,125.0533 L496.7030,125.0533 C492.0278,129.3970 483.6474,132.3311 476.4530,135.6847 L476.4530,135.6847 C469.7368,138.8166 460.2448,139.2664 451.8909,140.5906 L451.8909,140.5906 C399.5503,148.8837 385.9259,177.6227 386.6084,179.5810 L386.6084,179.5810 C391.5001,175.9023 400.7608,158.8107 440.0937,148.9251 L440.0937,148.9251 C454.0896,145.4074 468.8869,145.8998 483.3844,145.9968 L483.3844,145.9968 C509.8885,146.1745 535.6637,157.9395 562.2201,151.0210 L562.2201,151.0210 C551.4963,158.1114 542.0987,160.6946 528.1390,164.7119 L528.1390,164.7119 C473.6455,150.8200 441.6738,173.1427 439.7556,175.8390 L439.7556,175.8390 C441.3668,176.2054 454.8787,170.4683 459.6018,169.4640 L459.6018,169.4640 C504.2458,159.9591 538.4207,171.1011 570.8842,182.3122 L570.8842,182.3122 C570.8842,182.3122 585.2964,188.2321 604.6552,188.1707 L604.6552,188.1707 C591.6526,197.9270 572.0424,204.3169 552.5317,204.3104 L552.5317,204.3104 C541.2702,198.9482 528.2475,194.3389 514.0254,191.4810 L514.0254,191.4810 C505.4369,189.7554 497.2504,188.1449 487.1917,188.2522 L487.1917,188.2522 C485.1688,188.2748 483.0011,188.2205 480.7656,188.1675 L480.7656,188.1675 C473.5092,187.9943 465.5431,187.8204 459.5068,190.2143 L459.5068,190.2143 C461.0384,191.4920 465.0293,190.9756 466.9216,190.8832 L466.9216,190.8832 C487.0172,189.8983 509.5738,193.6590 525.8860,199.4659 L525.8860,199.4659 C547.6051,207.1980 565.6170,217.3718 583.1869,230.5896 L583.1869,230.5896 C596.1675,240.3589 607.3172,255.6067 624.6984,260.4564 L624.6984,260.4564 C621.9181,260.9469 619.3646,261.3366 616.4583,261.4562 L616.4583,261.4562 C609.2587,261.7515 601.1233,261.3547 595.7694,259.0003 L595.7694,259.0003 C591.4684,257.1067 561.3302,235.6953 559.5251,234.7814 L559.5251,234.7814 C561.3690,238.5383 601.7566,267.8686 619.5430,279.4455 L619.5430,279.4455 C617.7735,280.3161 591.8581,270.2230 579.5270,263.8597 L579.5270,263.8597 C579.6194,265.2622 588.4826,272.8004 591.7554,276.2968 L591.7554,276.2968 C600.1525,285.2634 606.8920,297.0348 612.6291,308.1839 L612.6291,308.1839 C621.3474,325.1198 628.9723,346.6404 639.9230,359.7057 L639.9230,359.7057 C636.9016,359.4349 629.3394,354.0578 627.5039,352.7290 L627.5039,352.7290 C625.7945,351.4901 623.8789,349.2469 622.1546,349.9694 L622.1546,349.9694 C621.7766,351.4307 623.5984,352.4221 624.3792,353.6267 L624.3792,353.6267 C626.8764,357.4935 628.6750,364.0280 630.2177,370.1102 L630.2177,370.1102 C633.3787,382.5712 635.4300,394.2102 639.1681,404.8997 L639.1681,404.8997 C635.4953,400.9522 632.6917,396.3856 628.8728,392.6268 L628.8728,392.6268 C626.6722,390.4591 618.9575,381.9870 617.4594,386.2059 L617.4594,386.2059 C617.3295,388.7374 619.4021,395.6146 619.5708,396.2738 L619.5708,396.2738 C621.4987,403.8327 625.3072,412.2835 628.8489,419.5155 L628.8489,419.5155 C631.4275,424.7762 635.1385,430.8713 638.2135,436.0280 L638.2135,436.0280 C642.0221,442.4114 652.4415,455.2498 653.1640,454.3192 L653.1640,454.3192 C649.2863,449.5548 646.0536,442.9129 642.6606,439.5012 L642.6606,439.5012 C636.8395,428.2300 627.9719,411.3167 625.2949,395.8013 L625.2949,395.8013 C635.4468,403.2944 639.7181,413.7551 648.4655,423.2684 L648.4655,423.2684 C650.0625,424.3018 652.3452,428.8620 652.8991,430.4551 L652.8991,430.4551 C653.4639,427.6580 649.9552,422.1749 648.6917,419.4806 L648.6917,419.4806 C647.5420,417.0279 646.6456,414.8454 646.4989,412.2978 L646.4989,412.2978 C640.3514,396.1381 639.0802,379.7095 633.6424,361.1844 L633.6424,361.1844 C639.8629,364.1954 647.9731,366.9505 655.9702,367.9865 L655.9702,367.9865 C658.6407,368.3323 661.4294,369.3399 663.3592,368.3388 L663.3592,368.3388 C660.8115,367.5496 659.3626,366.4271 659.3626,366.4271 L659.3626,366.4271 C633.9849,344.4637 622.1540,307.6022 602.9587,280.1732 L602.9587,280.1732 C613.4143,284.5279 633.0109,288.5413 643.5047,283.8086 L643.5047,283.8086 C635.4797,283.3969 629.6373,281.3275 626.0136,279.6931 L626.0136,279.6931 C622.0693,277.9138 617.6953,274.2488 614.1187,271.8918 L614.1187,271.8918 C610.1990,269.3073 606.1772,267.1351 602.9193,264.1725 L602.9193,264.1725 C609.5792,266.7202 636.7135,272.4909 652.7026,258.4678 L652.7026,258.4678 C653.5693,257.7077 655.0648,257.1267 655.6988,255.9796 L655.6988,255.9796 C629.8441,263.2445 590.7465,229.2854 585.7695,225.3883 L585.7695,225.3883 C582.7222,222.9990 579.9975,220.9057 579.1431,220.3622 L579.1431,220.3622 C576.9167,218.9462 574.9093,217.2102 572.6835,215.7716 L572.6835,215.7716 C567.9087,212.6895 562.2660,210.7726 557.8816,207.0707 L557.8816,207.0707 C562.8076,207.6485 567.5992,206.8270 572.1619,205.5726 L572.1619,205.5726 C572.7772,205.7775 581.5699,204.3447 586.0189,202.8304 L586.0189,202.8304 C604.4103,196.5711 617.0296,181.4823 632.9088,173.6772 L632.9088,173.6772 C626.5449,172.5694 617.9616,179.1499 599.2057,180.2964 L599.2057,180.2964 C579.4876,181.5024 569.4954,176.3786 563.8443,174.5703 L563.8443,174.5703 C560.4849,173.4955 541.3859,167.7281 536.3267,166.9164 L536.3267,166.9164 C571.1602,160.2538 583.0932,134.3527 583.0932,134.3527 L583.0932,134.3527 C578.2506,138.9536 575.4250,140.3256 575.4250,140.3256 L575.4250,140.3256 C568.4607,143.9209 559.0908,145.2897 551.2598,146.1596 L551.2598,146.1596 C545.4064,146.8098 532.8950,144.8994 518.5636,142.9890 L518.5636,142.9890 C505.3484,141.2265 490.5840,139.4648 478.0693,139.7110 L478.0693,139.7110 C485.5133,136.6218 492.0705,134.2079 498.4221,130.3502 L498.4221,130.3502 C506.0438,125.7228 513.3862,118.9595 516.3481,110.9488 L516.3481,110.9488 C507.1793,120.1738 487.2078,123.7155 477.8419,125.3267 L477.8419,125.3267 C483.7825,120.5590 489.2539,117.2390 491.8449,108.8089 L491.8449,108.8089 C474.7746,122.3770 449.7298,120.3470 426.5281,124.1162 L426.5281,124.1162 C426.5281,124.1162 437.4833,114.3670 445.7008,100.0879 L445.7008,100.0879 C445.7008,100.0879 423.3626,119.7932 396.1159,126.4712 Z M396.1153,126.4712 L396.1153,126.4712 L396.1153,126.4712 Z"
                 style="fill: url(#grad11); "
                 id="path22" />
            </g>
          </g>
        </g>
      </g>
      <g
         id="Layer1046">
        <g
           id="Layer1047">
          <g
             id="Layer1048">
            <g
               id="Layer1049">
              <defs
                 id="defs24">
                <radialGradient
                   id="grad12"
                   cx="0.0000%"
                   cy="0.0000%"
                   r="24.0000%">
                  <stop
                     offset="0%"
                     stop-color="#fff200"
                     stop-opacity="1.0000"
                     id="stop23" />
                  <stop
                     offset="100%"
                     stop-color="#f25c19"
                     stop-opacity="1.0000"
                     id="stop24" />
                </radialGradient>
              </defs>
              <path
                 d="  M350.9665,131.6260 C354.4157,127.1505 360.5644,123.4046 361.6819,117.9390 L361.6819,117.9390 C355.8647,123.6140 347.9334,127.6455 341.5094,133.3671 L341.5094,133.3671 C335.0233,139.1403 330.2479,146.3070 325.1991,152.9560 L325.1991,152.9560 C326.3042,144.2305 333.6066,139.1901 337.0313,133.4155 L337.0313,133.4155 C325.2159,139.6806 319.0200,150.2312 317.7565,151.9684 L317.7565,151.9684 C312.6780,158.9451 312.0827,168.5631 307.2440,175.8810 L307.2440,175.8810 C303.3702,170.6868 306.3463,165.0816 308.5295,160.4128 L308.5295,160.4128 C296.5176,165.4008 300.0315,182.9132 280.4006,189.6598 L280.4006,189.6598 C277.2293,190.7501 273.5144,192.6760 270.3289,194.1695 L270.3289,194.1695 C266.4718,195.9746 262.1734,197.5160 259.5042,200.0320 L259.5042,200.0320 C257.9945,201.4551 252.8889,208.4460 251.7941,209.9014 L251.7941,209.9014 C250.6243,211.4538 249.7479,213.4282 248.6641,214.6406 L248.6641,214.6406 C247.0394,216.4547 244.9034,216.1833 242.5490,215.9119 L242.5490,215.9119 C241.3540,215.7748 240.1028,215.6365 238.8341,215.7716 L238.8341,215.7716 C230.1112,216.6932 222.3849,224.3517 210.5585,226.1044 L210.5585,226.1044 C209.5471,226.2537 208.5156,226.2311 207.4641,226.2098 L207.4641,226.2098 C206.4895,226.1891 205.4994,226.1690 204.4931,226.2841 L204.4931,226.2841 C200.1262,226.7837 195.6972,228.5138 191.9591,229.5569 L191.9591,229.5569 C183.4074,231.9442 178.0853,234.9637 170.6246,238.6779 L170.6246,238.6779 C166.4218,240.7731 160.8560,243.9554 159.4387,246.6421 L159.4387,246.6421 C156.7146,251.8039 162.8711,256.6931 165.6521,259.8935 L165.6521,259.8935 C166.6674,267.2624 170.4023,265.6868 171.8739,265.4625 L171.8739,265.4625 C174.1992,267.8757 173.4030,270.3310 173.8263,273.6231 L173.8263,273.6231 C175.3864,285.7462 179.8109,291.4781 188.4304,295.4650 L188.4304,295.4650 C190.6555,300.2333 189.9485,308.4876 191.8583,313.7477 L191.8583,313.7477 C194.1041,319.9282 197.6386,326.3496 200.9037,330.2862 L200.9037,330.2862 C198.8957,323.7160 196.9956,314.1853 198.4329,308.0843 L198.4329,308.0843 C199.5109,306.6994 200.8216,304.3740 200.9011,303.0789 L200.9011,303.0789 C201.1467,303.6734 201.4045,303.3535 201.6682,303.0349 L201.6682,303.0349 C201.8266,302.8436 201.9856,302.6523 202.1471,302.6568 L202.1471,302.6568 C201.7115,311.1471 204.2721,318.5542 207.0815,323.6960 L207.0815,323.6960 C209.7326,328.5444 211.9105,332.4066 214.8324,336.1796 L214.8324,336.1796 C216.4171,338.2264 218.1646,340.4748 220.0479,341.1916 L220.0479,341.1916 C220.2017,338.5858 217.6017,337.6351 217.5106,333.7192 L217.5106,333.7192 C212.2744,321.6744 211.1848,298.1671 223.7460,292.8747 L223.7460,292.8747 C225.6409,295.1541 227.9190,299.1798 231.1860,297.7024 L231.1860,297.7024 C234.1854,303.6974 237.8027,308.9665 238.8774,317.2338 L238.8774,317.2338 C240.8680,317.6390 240.7336,316.2443 241.6351,315.7254 L241.6351,315.7254 C245.2433,322.1669 248.7274,328.7532 250.4634,337.4037 L250.4634,337.4037 C250.9791,337.5711 251.3300,337.4884 251.6325,337.4043 L251.6325,337.4043 C251.9951,337.3035 252.2878,337.2033 252.7157,337.5381 L252.7157,337.5381 C255.3312,349.3697 256.0020,356.9260 255.4708,367.0779 L255.4708,367.0779 C252.5935,367.9284 246.0376,374.1527 245.2388,374.9632 L245.2388,374.9632 C244.0736,375.5229 235.5794,385.8524 230.2295,390.9258 L230.2295,390.9258 C226.8927,385.2068 226.4856,374.5541 227.1241,368.7750 L227.1241,368.7750 C225.7320,369.7709 224.4834,371.7744 223.6755,373.5401 L223.6755,373.5401 C219.1496,383.4411 219.1283,399.5052 221.7897,408.9041 L221.7897,408.9041 C214.9423,405.2306 210.5010,387.0487 212.6247,379.2526 L212.6247,379.2526 C208.0988,382.0238 205.9660,390.8010 206.1166,397.3931 L206.1166,397.3931 C206.3047,405.5945 211.7593,409.5278 212.6719,414.7769 L212.6719,414.7769 C211.6320,425.6797 205.4761,434.0401 210.6865,445.0288 L210.6865,445.0288 C212.7772,449.4436 220.8047,455.2705 220.8719,459.8734 L220.8719,459.8734 C221.3437,458.9194 221.1686,459.9315 221.1330,460.9430 L221.1330,460.9430 C221.1046,461.7521 221.1640,462.5632 221.7179,462.3635 L221.7179,462.3635 C223.6199,460.0091 224.3470,455.8393 223.0777,451.6888 L223.0777,451.6888 C226.2587,455.2046 230.2676,459.0170 231.1724,464.4659 L231.1724,464.4659 C231.9260,469.0028 229.1056,472.7331 229.6524,477.0742 L229.6524,477.0742 C234.3515,472.8773 234.9079,465.1651 236.7673,458.5627 L236.7673,458.5627 C241.9001,464.8549 248.6008,470.2921 246.7072,482.0713 L246.7072,482.0713 C249.4422,477.7845 250.3632,472.9050 248.2589,465.9387 L248.2589,465.9387 C246.9334,461.5511 243.0531,457.8970 243.9779,452.8463 L243.9779,452.8463 C245.0372,456.0170 248.2117,456.6885 251.1006,457.7006 L251.1006,457.7006 C251.7178,458.9518 252.2768,460.2663 253.8790,460.3529 L253.8790,460.3529 C252.5134,456.4991 249.9315,454.0807 249.1462,449.5412 L249.1462,449.5412 C253.0207,451.6242 257.6533,454.1938 262.9199,453.5275 L262.9199,453.5275 C265.0869,455.8541 267.2610,458.1730 270.7289,458.9640 L270.7289,458.9640 C271.0450,457.3205 269.1494,457.6669 268.3202,456.9218 L268.3202,456.9218 C264.1543,453.1869 262.4183,444.3134 263.8602,437.7646 L263.8602,437.7646 C264.2803,440.0996 265.5722,442.2123 266.6354,444.2585 L266.6354,444.2585 C267.6009,446.1146 268.3112,449.2161 270.8982,449.3473 L270.8982,449.3473 C269.2864,442.1574 269.6348,432.3313 271.5536,426.2478 L271.5536,426.2478 C272.0952,428.4368 273.4834,430.4500 274.9130,432.0534 L274.9130,432.0534 C276.2631,433.5663 277.9615,435.7443 279.7039,435.8206 L279.7039,435.8206 C278.8469,428.0749 281.5975,420.8798 286.4756,417.0176 L286.4756,417.0176 C292.2870,420.0474 294.7694,427.0007 298.0383,433.0273 L298.0383,433.0273 C295.4855,439.4333 292.9527,445.3591 292.9346,452.6537 L292.9346,452.6537 C292.8965,468.1975 300.9796,485.8443 299.0640,499.8403 L299.0640,499.8403 C298.4823,504.0909 296.8143,511.2866 295.6057,516.1292 L295.6057,516.1292 C297.4961,513.3302 299.9895,505.9179 300.1711,505.5101 L300.1711,505.5101 C305.1837,494.2589 300.6603,472.3673 298.8604,458.5659 L298.8604,458.5659 C299.1771,458.2402 298.5172,445.0056 300.6519,441.4536 L300.6519,441.4536 C304.1580,448.6616 307.1917,456.3705 309.5034,467.2901 L309.5034,467.2901 C309.3722,448.2428 303.8277,431.7703 297.4709,414.5087 L297.4709,414.5087 C289.7413,393.5193 293.3741,369.9564 299.7801,349.3425 L299.7801,349.3425 C296.0859,352.9035 294.0307,359.2850 292.4279,364.9917 L292.4279,364.9917 C290.5828,371.5631 288.9968,381.3246 288.8320,387.3738 L288.8320,387.3738 C288.6123,395.3871 289.3587,403.0262 290.4794,411.2443 L290.4794,411.2443 C289.2081,405.9163 283.8866,410.5030 282.2929,412.8794 L282.2929,412.8794 C279.1901,417.5075 277.5673,426.4191 276.0782,430.6768 L276.0782,430.6768 C273.4084,426.5483 274.2660,421.2585 274.8987,416.3694 L274.8987,416.3694 C272.1184,415.5098 271.5219,419.2731 270.8149,421.1874 L270.8149,421.1874 C268.8547,426.4844 267.9383,433.2794 267.5402,439.7015 L267.5402,439.7015 C266.7937,436.0390 264.5931,431.9099 263.7083,428.1763 L263.7083,428.1763 C262.9910,425.1498 263.0142,420.7867 259.0512,422.1581 L259.0512,422.1581 C260.7593,433.7751 258.1393,441.9041 260.8272,451.4587 L260.8272,451.4587 C255.9200,451.8672 252.7280,447.3012 250.9520,444.2695 L250.9520,444.2695 C249.7434,442.2091 249.1172,439.3797 247.6449,439.1005 L247.6449,439.1005 C245.1276,442.5058 247.3967,449.7189 247.5538,453.5133 L247.5538,453.5133 C245.8489,451.4542 245.1005,448.2667 243.7181,445.8270 L243.7181,445.8270 C242.4598,445.7443 241.8956,446.2548 241.2280,446.6723 L241.2280,446.6723 C242.2840,453.8506 242.1328,458.6667 245.1865,463.6315 L245.1865,463.6315 C239.5063,458.9731 236.5346,449.5541 234.9545,440.4680 L234.9545,440.4680 C234.3192,436.8146 234.4271,434.5758 232.3661,432.3584 L232.3661,432.3584 C230.7420,431.9383 229.7952,432.8890 228.9725,433.9186 L228.9725,433.9186 C229.2859,436.2245 229.8734,440.6490 230.2120,441.1796 L230.2120,441.1796 C231.7263,448.1588 235.6803,455.0605 233.5579,462.3493 L233.5579,462.3493 C232.8825,460.2909 233.0518,458.2958 232.4501,456.6781 L232.4501,456.6781 C230.1985,450.6270 225.0909,449.2620 221.5984,445.4089 L221.5984,445.4089 C220.3446,444.0265 220.5391,442.1193 218.6888,441.1692 L218.6888,441.1692 C217.3057,444.9506 220.6755,450.1868 221.0600,454.4174 L221.0600,454.4174 C215.2654,448.5052 210.2509,432.6984 215.6577,423.8133 L215.6577,423.8133 C216.8158,424.4524 219.0261,424.8156 220.1869,424.4014 L220.1869,424.4014 C226.6484,427.3297 233.8939,427.3698 241.7495,425.8238 L241.7495,425.8238 C244.9273,423.6465 247.5234,420.5618 250.4711,419.0243 L250.4711,419.0243 C255.3292,411.2333 257.6449,403.5277 263.4188,397.4713 L263.4188,397.4713 C263.6657,398.2256 264.6771,398.0795 265.4035,398.2676 L265.4035,398.2676 C271.1283,392.0800 276.7478,385.8033 280.7082,378.1196 L280.7082,378.1196 C281.0236,378.5610 281.0624,379.3301 282.0583,378.9695 L282.0583,378.9695 C282.9075,376.1401 285.4565,374.7538 286.2759,371.8998 L286.2759,371.8998 C283.4019,362.9636 280.0374,354.6091 278.2471,344.3939 L278.2471,344.3939 C278.4759,343.2345 279.4273,341.8495 278.3027,341.1877 L278.3027,341.1877 C277.4677,340.6784 277.1420,341.3027 276.8382,341.9270 L276.8382,341.9270 C276.5416,342.5365 276.2631,343.1466 275.5463,342.6961 L275.5463,342.6961 C276.3548,339.8719 274.4800,336.4433 275.1308,333.7671 L275.1308,333.7671 C274.5284,333.7412 274.0974,334.1619 273.7251,334.5814 L273.7251,334.5814 C273.2552,335.1113 272.8791,335.6406 272.3737,335.2768 L272.3737,335.2768 C271.9187,331.5283 273.5480,328.6524 273.1777,325.6064 L273.1777,325.6064 C272.4732,325.0958 272.3155,325.6665 272.0622,326.2352 L272.0622,326.2352 C271.8722,326.6631 271.6273,327.0903 271.0572,327.0618 L271.0572,327.0618 C267.4794,321.4256 269.1274,311.0010 264.5310,306.1558 L264.5310,306.1558 C262.4978,307.6475 263.6644,310.0484 261.7721,311.5032 L261.7721,311.5032 C261.3281,304.8439 258.4670,297.6901 254.6901,291.6021 L254.6901,291.6021 C250.8337,285.3881 247.2248,279.3596 240.7898,282.1845 L240.7898,282.1845 C239.6174,281.4755 238.0657,281.2125 237.4000,279.9024 L237.4000,279.9024 C239.3815,279.3447 241.6655,279.9464 242.7525,278.8219 L242.7525,278.8219 C237.2152,277.4084 226.7499,278.2195 221.3217,278.9886 L221.3217,278.9886 C224.0297,282.4204 231.5563,280.1713 234.7748,283.0001 L234.7748,283.0001 C230.6560,287.0697 225.1219,285.2097 220.5468,285.1335 L220.5468,285.1335 C220.8487,285.7326 222.2892,286.7705 221.9771,286.9373 L221.9771,286.9373 C217.8919,287.1046 214.1215,286.9011 211.5932,285.2317 L211.5932,285.2317 C211.2727,284.0878 210.0292,282.2103 208.8659,283.2166 L208.8659,283.2166 C208.2875,284.5958 210.7072,285.6692 210.8746,288.1730 L210.8746,288.1730 C204.5132,287.7199 201.4349,284.1408 197.4234,280.3193 L197.4234,280.3193 C197.0117,282.0610 198.7309,282.4398 198.0038,283.4725 L198.0038,283.4725 C194.0343,284.8931 189.5291,284.0535 187.0111,282.1379 L187.0111,282.1379 C182.1963,278.4748 181.6961,269.9574 178.5480,264.9112 L178.5480,264.9112 C177.7867,271.9919 181.5449,279.4494 184.0932,285.5794 L184.0932,285.5794 C177.3343,283.0880 177.7557,272.1270 175.0258,264.8809 L175.0258,264.8809 C175.5725,264.3587 176.0585,263.7860 176.4838,263.1611 L176.4838,263.1611 C171.7381,259.8062 165.3755,258.3573 163.6731,251.4123 L163.6731,251.4123 C172.7373,242.1271 188.9015,232.1375 204.7284,229.1439 L204.7284,229.1439 C208.6436,228.4039 211.7716,228.5719 214.7581,228.7406 L214.7581,228.7406 C217.1429,228.8757 219.4378,229.0095 221.9745,228.6818 L221.9745,228.6818 C229.4934,223.4618 239.2219,218.7885 248.6337,218.1622 L248.6337,218.1622 C252.1101,217.9315 255.4643,218.4026 257.8019,216.7656 L257.8019,216.7656 C261.2906,214.3259 262.6374,205.9442 266.2637,202.9442 L266.2637,202.9442 C282.5049,189.5085 306.4620,188.4021 310.7591,183.5925 L310.7591,183.5925 C318.1934,175.2748 321.4565,156.2882 322.4672,154.7798 L322.4672,154.7798 C321.7092,159.8602 320.7307,168.2341 323.8568,171.6297 L323.8568,171.6297 C325.6599,155.0881 335.6605,141.4405 346.5685,132.6271 L346.5685,132.6271 C343.3843,137.5770 338.1629,145.8203 338.8952,152.1442 L338.8952,152.1442 C346.1032,143.3703 353.2647,134.5569 365.2216,129.8093 L365.2216,129.8093 C365.9590,129.3168 365.3676,129.1572 365.7780,128.8024 L365.7780,128.8024 C374.0278,125.7706 383.2910,121.5944 392.4638,118.6014 L392.4638,118.6014 C384.0369,127.5609 372.6926,129.7453 364.3956,135.3182 L364.3956,135.3182 C367.2095,134.7088 372.3320,133.4466 376.5839,131.7533 L376.5839,131.7533 C384.3755,128.6537 391.8168,124.0987 396.6239,118.5794 L396.6239,118.5794 C398.5266,116.3950 399.6420,113.6586 401.4781,111.4574 L401.4781,111.4574 C403.4461,109.0971 406.3460,107.1783 406.9153,103.6470 L406.9153,103.6470 C393.8656,117.4200 367.3181,120.2714 350.9665,131.6260 Z M302.3484,170.8438 C304.4682,174.8424 304.8696,181.1669 301.1722,183.7430 L301.1722,183.7430 C302.5785,180.3022 302.2941,175.4299 302.3484,170.8438 Z M214.1590,289.1831 C217.2165,289.6458 219.5884,290.9190 223.5346,290.3303 L223.5346,290.3303 C222.2207,292.5418 218.1873,290.8570 216.3822,292.8411 L216.3822,292.8411 C216.9962,291.0774 214.6540,290.6980 214.1590,289.1837 M231.1660,289.7014 C237.8279,289.0803 244.2842,290.0860 246.6845,295.4643 L246.6845,295.4643 C246.4073,296.0176 245.3629,295.9206 244.8297,296.2573 L244.8297,296.2573 C244.9887,295.5257 245.6544,294.5854 244.9635,294.0044 L244.9635,294.0044 C242.9348,294.1576 242.0313,295.2653 240.6437,295.9613 L240.6437,295.9613 C237.5810,292.7435 233.5682,288.7921 229.2284,293.3827 L229.2284,293.3827 C228.0302,291.5433 225.0844,291.0890 223.8526,290.3031 L223.8526,290.3031 C226.5508,289.6000 229.1612,289.3001 230.9003,290.3639 L230.9003,290.3639 C231.3902,290.2107 230.5752,289.8262 231.1653,289.7014 M194.7879,294.9408 C197.7853,292.6304 202.4599,294.0819 204.6734,290.6049 L204.6734,290.6049 C209.1593,291.6900 210.2877,291.3346 215.4535,293.2379 L215.4535,293.2379 C209.8547,299.9075 208.0703,313.9352 211.7160,325.5534 L211.7160,325.5534 C209.1890,322.4862 206.2291,315.5050 205.2150,308.8056 L205.2150,308.8056 C204.2734,302.5922 205.4296,297.4840 205.5188,293.0970 L205.5188,293.0970 C203.3647,293.7349 203.6316,296.4260 203.0771,298.4192 L203.0771,298.4192 C201.6986,298.0262 201.1958,298.6783 198.9448,298.7610 L198.9448,298.7610 C198.6798,296.9792 198.7082,294.8504 196.7229,295.1024 L196.7229,295.1024 C196.1793,296.7188 195.7651,300.3864 197.2198,301.1432 L197.2198,301.1432 C196.5025,305.7538 195.0192,310.9739 194.8506,315.1017 L194.8506,315.1017 C192.6209,309.5837 190.5140,298.2375 194.7872,294.9415 M270.0691,365.5552 C270.8543,365.7963 272.8112,365.7045 272.0809,366.6688 L272.0809,366.6688 C272.7298,366.7980 272.9263,366.5434 273.1228,366.2881 L273.1228,366.2881 C273.2927,366.0664 273.4634,365.8435 273.9358,365.8764 L273.9358,365.8764 C273.4394,368.9269 269.0150,371.1533 267.5983,374.4009 L267.5983,374.4009 C254.5886,383.5219 249.1462,397.7738 248.5284,399.3385 L248.5284,399.3385 C247.4375,402.0968 244.5234,406.7830 242.4772,411.3600 L242.4772,411.3600 C237.5797,408.4175 235.1367,402.5776 232.3428,397.1508 L232.3428,397.1508 C238.7753,386.7036 245.9096,375.3813 257.6656,370.4172 L257.6656,370.4172 C255.0093,373.6984 250.4692,376.0703 249.2845,381.3511 L249.2845,381.3511 C255.0436,376.2784 261.3778,369.1298 270.0684,365.5552 M227.6915,414.4996 C222.8360,406.8069 220.8383,391.5035 223.6936,381.5404 L223.6936,381.5404 C225.1536,395.5202 231.4936,405.5926 237.2035,413.3951 L237.2035,413.3951 C235.2524,414.3950 233.0505,415.2093 230.8945,415.2093 L230.8945,415.2093 C229.8016,415.2093 228.7204,414.9999 227.6909,414.4996 M209.8340,388.1248 C212.1439,396.9110 214.4582,405.6921 219.4288,411.3419 L219.4288,411.3419 C209.9355,411.0032 207.8842,396.9110 209.8340,388.1248 Z Z M219.2381,416.7965 C220.9611,415.9357 222.8063,417.9327 224.7755,417.9424 L224.7755,417.9424 C224.1596,418.1453 223.5256,418.2378 222.9110,418.2378 L222.9110,418.2378 C221.3786,418.2378 219.9645,417.6626 219.2381,416.7965 Z"
                 style="fill: url(#grad12); "
                 id="path24" />
            </g>
          </g>
        </g>
      </g>
      <g
         id="Layer1050">
        <g
           id="Layer1051">
          <g
             id="Layer1052">
            <g
               id="Layer1053">
              <defs
                 id="defs26">
                <radialGradient
                   id="grad13"
                   cx="0.0000%"
                   cy="0.0000%"
                   r="100.0000%">
                  <stop
                     offset="0%"
                     stop-color="#fff200"
                     stop-opacity="1.0000"
                     id="stop25" />
                  <stop
                     offset="100%"
                     stop-color="#f25c19"
                     stop-opacity="1.0000"
                     id="stop26" />
                </radialGradient>
              </defs>
              <path
                 d="  M308.8655,199.4335 C308.8306,199.4006 307.9627,199.3288 307.2699,199.4904 L307.2699,199.4904 C299.0530,201.3995 262.5999,218.9882 247.6171,229.1303 L247.6171,229.1303 C236.9573,227.9961 226.6387,231.6379 218.6843,235.3553 L218.6843,235.3553 C216.8062,236.2323 214.6405,236.7591 213.4894,238.3457 L213.4894,238.3457 C213.7822,239.4334 215.0347,239.3914 216.2859,239.3487 L216.2859,239.3487 C217.0634,239.3222 217.8415,239.2957 218.3895,239.5400 L218.3895,239.5400 C225.7255,235.0774 235.2808,230.0002 245.8418,230.8759 L245.8418,230.8759 C244.9687,231.2204 229.3583,240.7285 236.6639,243.7952 L236.6639,243.7952 C237.6023,243.5069 237.6727,242.4832 239.1282,242.6319 L239.1282,242.6319 C242.8534,237.5113 247.7050,233.3435 253.7892,230.2206 L253.7892,230.2206 C260.6637,222.6423 270.7199,217.7615 280.1640,212.3618 L280.1640,212.3618 C278.7609,214.7220 276.5526,216.3979 275.2574,218.8473 L275.2574,218.8473 C275.8288,221.0808 277.6532,221.8351 278.5373,223.6989 L278.5373,223.6989 C277.8387,225.1770 277.7792,227.1960 277.3676,228.9170 L277.3676,228.9170 C275.0888,228.2010 270.3573,226.7656 268.6259,227.7169 L268.6259,227.7169 C268.6699,229.3061 271.2589,229.3171 271.9362,229.0444 L271.9362,229.0444 C276.6625,230.5302 279.9217,231.8467 285.1256,233.7196 L285.1256,233.7196 C286.7393,230.7363 290.3113,229.1465 294.2440,227.8455 L294.2440,227.8455 C299.4595,226.1199 305.0137,226.6247 310.5103,227.1456 L310.5103,227.1456 C309.9810,225.0943 307.5316,225.3082 305.5320,224.9947 L305.5320,224.9947 C301.1683,223.2323 292.9643,221.6612 285.6924,221.1894 L285.6924,221.1894 C284.7184,219.8975 282.4267,220.1586 281.3506,218.9869 L281.3506,218.9869 C279.4137,214.8351 284.8948,211.4822 285.9683,209.0037 L285.9683,209.0037 C292.7595,205.3406 299.3994,203.2408 306.4019,200.5981 L306.4019,200.5981 C308.3446,199.8633 310.7294,199.6740 312.2572,197.8734 L312.2572,197.8734 C310.7585,198.0802 309.4349,198.4383 308.8649,199.4335 M283.0161,223.6498 C282.7789,224.0408 282.6671,224.5378 282.8287,225.2668 L282.8287,225.2668 C282.4047,225.3017 281.9814,225.3360 281.5574,225.3715 L281.5574,225.3715 C281.3907,224.2457 281.8773,223.6718 283.0161,223.6498 L283.0161,223.6498 C283.0161,223.6498 283.0161,223.6498 283.0161,223.6498 Z M287.5717,224.5559 C289.5862,225.4329 293.0555,224.5973 294.4314,226.2298 L294.4314,226.2298 C290.2448,226.6874 286.3005,228.5209 282.9838,231.0168 L282.9838,231.0168 C281.4850,230.9212 280.7276,229.9556 279.3549,229.7146 L279.3549,229.7146 C279.1623,228.2701 279.7058,227.4493 280.0477,226.4586 L280.0477,226.4586 C280.8045,227.4784 282.1895,227.9954 283.5667,227.9954 L283.5667,227.9954 C285.6057,227.9954 287.6273,226.8632 287.5724,224.5566 Z M287.5717,224.5559 L287.5717,224.5559 L287.5717,224.5559 Z"
                 style="fill: url(#grad13); "
                 id="path26" />
            </g>
          </g>
        </g>
      </g>
      <g
         id="Layer1054">
        <g
           id="Layer1055">
          <g
             id="Layer1056">
            <g
               id="Layer1057">
              <defs
                 id="defs28">
                <radialGradient
                   id="grad14"
                   cx="0.0000%"
                   cy="0.0000%"
                   r="100.0000%">
                  <stop
                     offset="0%"
                     stop-color="#fff200"
                     stop-opacity="1.0000"
                     id="stop27" />
                  <stop
                     offset="100%"
                     stop-color="#f25c19"
                     stop-opacity="1.0000"
                     id="stop28" />
                </radialGradient>
              </defs>
              <path
                 d="  M224.0264,245.7986 C221.0613,245.0942 216.6530,245.5485 214.9894,248.7832 L214.9894,248.7832 C218.1116,252.8684 222.6848,247.9314 224.6605,245.7457 L224.6605,245.7457 C227.0788,247.6173 230.9843,244.0769 232.7177,242.5207 L232.7177,242.5207 C232.3021,242.4554 231.8678,242.4244 231.4219,242.4244 L231.4219,242.4244 C228.1930,242.4244 224.4349,244.0530 224.0258,245.7986 Z M224.0264,245.7986 L224.0264,245.7986 L224.0264,245.7986 Z"
                 style="fill: url(#grad14); "
                 id="path28" />
            </g>
          </g>
        </g>
      </g>
      <g
         id="Layer1058">
        <g
           id="Layer1059">
          <g
             id="Layer1060">
            <g
               id="Layer1061">
              <defs
                 id="defs30">
                <radialGradient
                   id="grad15"
                   cx="0.0000%"
                   cy="0.0000%"
                   r="100.0000%">
                  <stop
                     offset="0%"
                     stop-color="#fff200"
                     stop-opacity="1.0000"
                     id="stop29" />
                  <stop
                     offset="100%"
                     stop-color="#f25c19"
                     stop-opacity="1.0000"
                     id="stop30" />
                </radialGradient>
              </defs>
              <path
                 d="  M316.8161,346.3360 C317.3280,357.7998 316.0503,369.2959 313.0793,378.6535 L313.0793,378.6535 C313.4975,383.2001 310.6092,385.4214 310.1814,390.0940 L310.1814,390.0940 C310.2195,390.6201 309.5764,391.1565 309.9422,391.0738 L309.9422,391.0738 C315.5184,382.9661 318.2231,371.1805 319.2668,360.5381 L319.2668,360.5381 C320.1018,352.0336 320.0146,342.5649 318.0447,334.0715 L318.0447,334.0715 C317.4191,331.3693 317.2640,327.5892 314.5031,326.0414 L314.5031,326.0414 C314.9102,332.5010 316.4936,339.1086 316.8161,346.3360 Z"
                 style="fill: url(#grad15); "
                 id="path30" />
            </g>
          </g>
        </g>
      </g>
      <g
         id="Layer1062">
        <g
           id="Layer1063">
          <g
             id="Layer1064">
            <g
               id="Layer1065">
              <defs
                 id="defs32">
                <radialGradient
                   id="grad16"
                   cx="0.0000%"
                   cy="0.0000%"
                   r="100.0000%">
                  <stop
                     offset="0%"
                     stop-color="#fff200"
                     stop-opacity="1.0000"
                     id="stop31" />
                  <stop
                     offset="100%"
                     stop-color="#f25c19"
                     stop-opacity="1.0000"
                     id="stop32" />
                </radialGradient>
              </defs>
              <path
                 d="  M364.7388,197.7086 C363.2549,198.3911 358.4705,200.8961 354.7569,203.2389 L354.7569,203.2389 C353.0417,204.3201 346.6047,208.9197 343.7727,211.9876 L343.7727,211.9876 C337.7958,218.4608 335.3063,217.2012 335.7374,218.6644 L335.7374,218.6644 C336.6519,219.6054 337.5916,219.9072 338.7304,220.0177 L338.7304,220.0177 C343.7940,220.5128 347.0073,218.2844 349.2512,215.6288 L349.2512,215.6288 C354.8577,208.9986 364.8874,200.9407 373.3997,197.9542 L373.3997,197.9542 C381.2643,195.1952 388.4936,196.5608 395.8251,197.9264 L395.8251,197.9264 C400.1500,198.7317 404.5099,199.5376 409.0565,199.4949 L409.0565,199.4949 C402.5044,196.3928 392.7171,194.2717 383.1521,194.2717 L383.1521,194.2717 C376.5231,194.2717 369.9995,195.2915 364.7381,197.7092 Z M364.7388,197.7086 L364.7388,197.7086 L364.7388,197.7086 Z"
                 style="fill: url(#grad16); "
                 id="path32" />
            </g>
          </g>
        </g>
      </g>
      <g
         id="Layer1066">
        <g
           id="Layer1067">
          <g
             id="Layer1068">
            <g
               id="Layer1069">
              <defs
                 id="defs34">
                <radialGradient
                   id="grad17"
                   cx="0.0000%"
                   cy="0.0000%"
                   r="100.0000%">
                  <stop
                     offset="0%"
                     stop-color="#fff200"
                     stop-opacity="1.0000"
                     id="stop33" />
                  <stop
                     offset="100%"
                     stop-color="#f25c19"
                     stop-opacity="1.0000"
                     id="stop34" />
                </radialGradient>
              </defs>
              <path
                 d="  M194.7013,243.4158 C188.4588,244.4246 168.8214,248.4174 170.8476,256.9051 L170.8476,256.9051 C171.3504,259.0152 176.2705,261.5570 179.2150,261.3360 L179.2150,261.3360 C183.0417,254.7238 184.7899,246.3480 196.2103,246.1709 L196.2103,246.1709 C197.0557,242.3546 199.9614,240.2833 202.2305,237.6729 L202.2305,237.6729 C201.8104,237.7039 201.8938,237.1404 201.5428,237.0906 L201.5428,237.0906 C199.7856,239.5413 195.3224,240.9483 194.7026,243.4164 Z M194.7013,243.4158 L194.7013,243.4158 L194.7013,243.4158 Z"
                 style="fill: url(#grad17); "
                 id="path34" />
            </g>
          </g>
        </g>
      </g>
      <g
         id="Layer1070">
        <g
           id="Layer1071">
          <g
             id="Layer1072">
            <g
               id="Layer1073">
              <defs
                 id="defs36">
                <radialGradient
                   id="grad18"
                   cx="0.0000%"
                   cy="0.0000%"
                   r="100.0000%">
                  <stop
                     offset="0%"
                     stop-color="#fff200"
                     stop-opacity="1.0000"
                     id="stop35" />
                  <stop
                     offset="100%"
                     stop-color="#f25c19"
                     stop-opacity="1.0000"
                     id="stop36" />
                </radialGradient>
              </defs>
              <path
                 d="  M202.6667,254.6017 C206.4830,257.5294 212.5601,254.4867 212.5782,250.5831 L212.5782,250.5831 C212.3035,250.4538 211.9577,250.3950 211.5609,250.3950 L211.5609,250.3950 C209.1115,250.3950 204.6851,252.6447 202.6667,254.6017 Z"
                 style="fill: url(#grad18); "
                 id="path36" />
            </g>
          </g>
        </g>
      </g>
      <g
         id="Layer1074">
        <g
           id="Layer1075">
          <g
             id="Layer1076">
            <g
               id="Layer1077">
              <defs
                 id="defs38">
                <radialGradient
                   id="grad19"
                   cx="0.0000%"
                   cy="0.0000%"
                   r="100.0000%">
                  <stop
                     offset="0%"
                     stop-color="#fff200"
                     stop-opacity="1.0000"
                     id="stop37" />
                  <stop
                     offset="100%"
                     stop-color="#f25c19"
                     stop-opacity="1.0000"
                     id="stop38" />
                </radialGradient>
              </defs>
              <path
                 d="  M255.3583,284.1867 C256.9236,285.2711 260.0374,285.5109 259.5133,288.0056 L259.5133,288.0056 C262.9515,289.0461 262.9735,291.5769 263.2682,294.7366 L263.2682,294.7366 C273.0362,303.7678 277.6203,318.8165 284.7229,329.7782 L284.7229,329.7782 C284.4056,329.8047 284.3229,329.5507 284.0611,329.5106 L284.0611,329.5106 C285.6639,331.0287 286.3386,333.3321 287.9511,333.9926 L287.9511,333.9926 C282.7789,318.9122 277.1181,304.7973 268.8347,292.3583 L268.8347,292.3583 C268.7810,291.7217 268.7293,291.0851 268.6763,290.4498 L268.6763,290.4498 C265.6110,287.0904 261.5756,284.8737 257.4775,282.7306 L257.4775,282.7306 C256.4493,282.9419 255.4449,283.1765 255.3577,284.1860 Z M255.3583,284.1867 L255.3583,284.1867 L255.3583,284.1867 Z"
                 style="fill: url(#grad19); "
                 id="path38" />
            </g>
          </g>
        </g>
      </g>
      <g
         id="Layer1078">
        <path
           d="  M84.9951,60.0965 L756.8953,60.0965 L756.8953,535.1785 L84.9951,535.1785 L84.9951,60.0965 Z"
           style="fill: none; "
           id="path39" />
      </g>
      <g
         id="Layer1079">
        <g
           id="Layer1080">
          <g
             id="Layer1081">
            <g
               id="Layer1082">
              <defs
                 id="defs40">
                <linearGradient
                   id="grad20">
                  <stop
                     offset="0%"
                     stop-color="#00adef"
                     stop-opacity="1.0000"
                     id="stop39" />
                  <stop
                     offset="100%"
                     stop-color="#1d418c"
                     stop-opacity="1.0000"
                     id="stop40" />
                </linearGradient>
              </defs>
              <path
                 d="  M364.2308,295.3823 C363.7403,295.3823 363.3124,295.4714 362.9227,295.6531 L362.9227,295.6531 C362.4542,295.8767 361.8835,296.2438 361.2372,296.7382 L361.2372,296.7382 C360.5418,297.2843 359.6971,298.1102 359.6971,298.8987 L359.6971,298.8987 L359.6971,305.5147 C359.8471,305.9510 378.7296,360.6699 378.7296,360.6699 L378.7296,360.6699 L362.0942,360.6699 C362.0942,360.6699 360.5955,359.5364 359.5924,358.7776 L359.5924,358.7776 L359.5924,367.9768 L385.4470,367.9768 C386.1605,367.9768 386.7609,367.8754 387.2308,367.6776 L387.2308,367.6776 C387.6987,367.4773 388.0710,367.2259 388.3657,366.9118 L388.3657,366.9118 C388.6804,366.5731 388.9105,366.2215 389.0514,365.8648 L389.0514,365.8648 C389.1903,365.5035 389.2627,365.1610 389.2627,364.8553 L389.2627,364.8553 L389.2627,358.5592 C389.1095,358.1184 369.8128,302.8275 369.8128,302.8275 L369.8128,302.8275 L386.8540,302.8275 C386.8540,302.8275 388.4465,304.0069 389.5697,304.8393 L389.5697,304.8393 L389.5697,295.3829 L364.2302,295.3829 L364.2308,295.3823 Z Z M361.1719,296.7795 L361.2741,296.7007 L361.1719,296.7795 Z"
                 style="fill: url(#grad20); "
                 id="path40" />
            </g>
          </g>
        </g>
      </g>
      <g
         id="Layer1083">
        <path
           d="  M84.9951,60.0965 L756.8953,60.0965 L756.8953,535.1785 L84.9951,535.1785 L84.9951,60.0965 Z"
           style="fill: none; "
           id="path41" />
      </g>
      <g
         id="Layer1084">
        <g
           id="Layer1085">
          <g
             id="Layer1086">
            <g
               id="Layer1087">
              <defs
                 id="defs42">
                <linearGradient
                   id="grad21">
                  <stop
                     offset="0%"
                     stop-color="#00adef"
                     stop-opacity="1.0000"
                     id="stop41" />
                  <stop
                     offset="100%"
                     stop-color="#1d418c"
                     stop-opacity="1.0000"
                     id="stop42" />
                </linearGradient>
              </defs>
              <path
                 d="  M419.5353,295.3823 C420.5810,296.4926 422.0281,298.0294 422.0281,298.0294 L422.0281,298.0294 L422.0281,360.8095 L409.4979,360.8095 L409.4979,298.1348 C409.4979,298.1348 410.8945,296.5520 411.9279,295.3823 L411.9279,295.3823 L395.4987,295.3823 C396.5315,296.5520 397.9294,298.1348 397.9294,298.1348 L397.9294,298.1348 L397.9294,365.0149 C397.9294,366.8691 402.5846,367.9768 410.3814,367.9768 L410.3814,367.9768 L436.4493,367.9768 C435.1502,366.8995 433.2928,365.3581 433.2928,365.3581 L433.2928,365.3581 L433.2928,298.0249 C433.2928,298.0249 434.7398,296.4887 435.7829,295.3816 L435.7829,295.3816 L419.5353,295.3816 L419.5353,295.3823 Z"
                 style="fill: url(#grad21); "
                 id="path42" />
            </g>
          </g>
        </g>
      </g>
      <g
         id="Layer1088">
        <path
           d="  M84.9951,60.0965 L756.8953,60.0965 L756.8953,535.1785 L84.9951,535.1785 L84.9951,60.0965 Z"
           style="fill: none; "
           id="path43" />
      </g>
      <g
         id="Layer1089">
        <g
           id="Layer1090">
          <g
             id="Layer1091">
            <g
               id="Layer1092">
              <defs
                 id="defs44">
                <linearGradient
                   id="grad22">
                  <stop
                     offset="0%"
                     stop-color="#00adef"
                     stop-opacity="1.0000"
                     id="stop43" />
                  <stop
                     offset="100%"
                     stop-color="#1d418c"
                     stop-opacity="1.0000"
                     id="stop44" />
                </linearGradient>
              </defs>
              <path
                 d="  M462.6677,295.3823 L443.1939,295.3823 C444.2266,296.5520 445.6246,298.1348 445.6246,298.1348 L445.6246,298.1348 L445.6246,365.3129 C445.6246,365.3129 444.2396,366.8542 443.2314,367.9768 L443.2314,367.9768 L459.5843,367.9768 C458.5761,366.8530 457.1943,365.3109 457.1943,365.3109 L457.1943,365.3109 L457.1943,326.7284 C457.1943,326.7284 462.9883,331.8825 464.1089,332.8810 L464.1089,332.8810 C477.8877,328.8533 481.5780,321.0928 482.6037,319.0621 L482.6037,319.0621 C483.5925,317.0871 485.5624,305.6504 477.6635,299.5902 L477.6635,299.5902 C472.4887,295.6194 464.8431,295.3771 463.0529,295.3771 L463.0529,295.3771 C462.8041,295.3771 462.6684,295.3816 462.6684,295.3816 Z M457.4968,303.2417 L461.5975,303.2417 C463.7412,303.2417 465.5967,303.5713 467.1090,304.2202 L467.1090,304.2202 C468.6284,304.8717 469.8938,305.7629 470.8678,306.8674 L470.8678,306.8674 C471.8165,307.9435 472.5191,309.1753 472.9579,310.5292 L472.9579,310.5292 C473.3780,311.8399 473.5874,313.1596 473.5874,314.4612 L473.5874,314.4612 C473.5874,315.7053 473.3773,317.0095 472.9624,318.3383 L472.9624,318.3383 C472.5287,319.7052 471.8605,320.9693 470.9770,322.1023 L470.9770,322.1023 C470.0593,323.2850 468.8494,324.2744 467.3830,325.0435 L467.3830,325.0435 C465.8752,325.8352 464.0637,326.2359 462.0021,326.2359 L462.0021,326.2359 L457.4962,326.2359 L457.4962,303.2424 L457.4968,303.2417 Z"
                 style="fill: url(#grad22); "
                 id="path44" />
            </g>
          </g>
        </g>
      </g>
      <g
         id="Layer1093">
        <path
           d="  M84.9951,60.0965 L756.8953,60.0965 L756.8953,535.1785 L84.9951,535.1785 L84.9951,60.0965 Z"
           style="fill: none; "
           id="path45" />
      </g>
      <g
         id="Layer1094">
        <g
           id="Layer1095">
          <g
             id="Layer1096">
            <g
               id="Layer1097">
              <defs
                 id="defs46">
                <linearGradient
                   id="grad23">
                  <stop
                     offset="0%"
                     stop-color="#00adef"
                     stop-opacity="1.0000"
                     id="stop45" />
                  <stop
                     offset="100%"
                     stop-color="#1d418c"
                     stop-opacity="1.0000"
                     id="stop46" />
                </linearGradient>
              </defs>
              <path
                 d="  M489.7244,295.3823 C490.7753,296.5921 492.1848,298.2117 492.1848,298.2117 L492.1848,298.2117 L492.1848,321.7184 C492.1848,321.7184 489.4756,327.3714 488.2115,330.0070 L488.2115,330.0070 L492.1848,330.0070 L492.1848,365.2198 C492.1848,365.2198 490.7863,366.8032 489.7529,367.9762 L489.7529,367.9762 L518.5326,367.9762 L518.5326,358.5779 C517.3557,359.4523 515.7161,360.6687 515.7161,360.6687 L515.7161,360.6687 L503.5995,360.6687 L503.5995,329.8674 L514.6361,329.8674 C515.2385,328.7894 517.4533,324.8251 518.8338,322.3543 L518.8338,322.3543 L503.5989,322.3543 L503.5989,302.7564 L515.6760,302.7564 C515.6760,302.7564 517.3240,303.8770 518.5313,304.6965 L518.5313,304.6965 L518.5313,295.3810 L489.7225,295.3810 L489.7244,295.3823 Z"
                 style="fill: url(#grad23); "
                 id="path46" />
            </g>
          </g>
        </g>
      </g>
      <g
         id="Layer1098">
        <path
           d="  M84.9951,60.0965 L756.8953,60.0965 L756.8953,535.1785 L84.9951,535.1785 L84.9951,60.0965 Z"
           style="fill: none; "
           id="path47" />
      </g>
      <g
         id="Layer1099">
        <g
           id="Layer1100">
          <g
             id="Layer1101">
            <g
               id="Layer1102">
              <defs
                 id="defs48">
                <linearGradient
                   id="grad24">
                  <stop
                     offset="0%"
                     stop-color="#00adef"
                     stop-opacity="1.0000"
                     id="stop47" />
                  <stop
                     offset="100%"
                     stop-color="#1d418c"
                     stop-opacity="1.0000"
                     id="stop48" />
                </linearGradient>
              </defs>
              <path
                 d="  M544.4189,295.3823 L525.4239,295.3823 C526.4761,296.5449 527.9044,298.1244 527.9044,298.1244 L527.9044,298.1244 L527.9044,365.3232 C527.9044,365.3232 526.4877,366.8614 525.4608,367.9768 L525.4608,367.9768 L541.8654,367.9768 C540.8559,366.8530 539.4729,365.3129 539.4729,365.3129 L539.4729,365.3129 L539.4729,331.8696 L542.6119,331.2504 L559.4573,365.1668 L559.4573,367.9768 L572.9866,367.9768 C571.7050,366.8956 570.1811,365.6063 570.1811,365.6063 L570.1811,365.6063 L569.4954,364.3428 L569.5749,364.2820 L554.7840,329.4809 C569.0682,321.4657 565.8969,308.7810 565.8969,308.7810 L565.8969,308.7810 C562.3875,296.1856 548.7425,295.3635 545.2416,295.3635 L545.2416,295.3635 C544.7162,295.3635 544.4195,295.3816 544.4195,295.3816 Z M539.7779,303.2417 L543.9018,303.2417 C546.0572,303.2417 547.9379,303.5675 549.4922,304.2112 L549.4922,304.2112 C551.0633,304.8633 552.3598,305.7545 553.3460,306.8622 L553.3460,306.8622 C554.3019,307.9331 555.0141,309.1669 555.4561,310.5273 L555.4561,310.5273 C555.8814,311.8418 556.0972,313.1641 556.0972,314.4612 L556.0972,314.4612 C556.0972,315.7002 555.8833,317.0063 555.4606,318.3428 L555.4606,318.3428 C555.0244,319.7168 554.3251,320.9932 553.3835,322.1339 L553.3835,322.1339 C552.4296,323.3005 551.1997,324.2815 549.7320,325.0454 L549.7320,325.0454 C548.2119,325.8365 546.3894,326.2352 544.3135,326.2352 L544.3135,326.2352 L539.7779,326.2352 L539.7779,303.2417 Z"
                 style="fill: url(#grad24); "
                 id="path48" />
            </g>
          </g>
        </g>
      </g>
      <g
         id="Layer1103">
        <path
           d="  M84.9951,60.0965 L756.8953,60.0965 L756.8953,535.1785 L84.9951,535.1785 L84.9951,60.0965 Z"
           style="fill: none; "
           id="path49" />
      </g>
      <g
         id="Layer1104">
        <g
           id="Layer1105">
          <g
             id="Layer1106">
            <g
               id="Layer1107">
              <defs
                 id="defs50">
                <linearGradient
                   id="grad25">
                  <stop
                     offset="0%"
                     stop-color="#00adef"
                     stop-opacity="1.0000"
                     id="stop49" />
                  <stop
                     offset="100%"
                     stop-color="#1d418c"
                     stop-opacity="1.0000"
                     id="stop50" />
                </linearGradient>
              </defs>
              <path
                 d="  M375.3747,377.2866 C375.3295,378.7956 375.2467,381.4900 375.2467,381.4900 L375.2467,381.4900 L374.9824,381.8603 C368.6081,390.7959 362.4083,400.0636 356.5536,409.4076 L356.5536,409.4076 L353.6544,414.0343 L354.4312,381.1061 C354.4312,381.1061 357.3259,378.9682 359.5898,377.2937 L359.5898,377.2937 C359.3152,377.2943 328.9223,377.3105 322.1008,377.3131 L322.1008,377.3131 C324.5877,379.3153 327.9122,381.9928 327.9122,381.9928 L327.9122,381.9928 L327.9193,382.7270 L327.1968,484.8807 C327.1968,484.8807 324.7628,488.2808 322.6404,491.2453 L322.6404,491.2453 C334.1036,485.1625 345.7497,479.5062 357.4060,474.3760 L357.4060,474.3760 C355.3573,473.6690 352.2545,472.5994 352.2545,472.5994 L352.2545,472.5994 L352.2959,471.5091 L353.2369,431.7458 L356.0883,431.1318 C361.6883,442.8108 367.2793,453.9010 372.7036,464.0975 L372.7036,464.0975 L372.8904,464.4497 C372.8904,464.4497 372.8290,466.4810 372.7863,467.9144 L372.7863,467.9144 C382.0411,464.2035 391.3651,460.8202 400.6244,457.7548 L400.6244,457.7548 C398.9777,457.1984 396.7292,456.4377 396.7292,456.4377 L396.7292,456.4377 L396.4572,455.9200 C389.5148,443.0357 382.8154,429.7164 375.9757,415.2028 L375.9757,415.2028 L375.6229,414.4551 L376.0675,413.7564 C383.3932,402.2622 399.2265,379.8051 399.2265,379.8051 L399.2265,379.8051 C399.2265,379.8051 401.1699,378.5378 403.1035,377.2743 L403.1035,377.2743 C397.2618,377.2769 377.6742,377.2846 375.3741,377.2866 Z M375.3747,377.2866 L375.3747,377.2866 L375.3747,377.2866 Z"
                 style="fill: url(#grad25); "
                 id="path50" />
            </g>
          </g>
        </g>
      </g>
      <g
         id="Layer1108">
        <path
           d="  M84.9951,60.0965 L756.8953,60.0965 L756.8953,535.1785 L84.9951,535.1785 L84.9951,60.0965 Z"
           style="fill: none; "
           id="path51" />
      </g>
      <g
         id="Layer1109">
        <g
           id="Layer1110">
          <g
             id="Layer1111">
            <g
               id="Layer1112">
              <defs
                 id="defs52">
                <linearGradient
                   id="grad26">
                  <stop
                     offset="0%"
                     stop-color="#00adef"
                     stop-opacity="1.0000"
                     id="stop51" />
                  <stop
                     offset="100%"
                     stop-color="#1d418c"
                     stop-opacity="1.0000"
                     id="stop52" />
                </linearGradient>
              </defs>
              <path
                 d="  M414.4801,377.2704 C415.8541,378.2470 417.9532,379.7373 417.9532,379.7373 L417.9532,379.7373 L417.9364,380.5522 L415.5264,450.9831 C415.5264,450.9831 413.6703,452.7843 412.4268,453.9896 L412.4268,453.9896 C421.5408,451.2500 430.6521,448.8309 439.6503,446.7615 L439.6503,446.7615 C438.5523,446.2691 436.3717,445.2925 436.3717,445.2925 L436.3717,445.2925 L436.8480,428.6003 L438.2479,379.3043 C438.2479,379.3043 440.1583,378.0162 441.2751,377.2646 L441.2751,377.2646 C434.6778,377.2652 418.0482,377.2704 414.4801,377.2711 Z M414.4801,377.2704 L414.4801,377.2704 L414.4801,377.2704 Z"
                 style="fill: url(#grad26); "
                 id="path52" />
            </g>
          </g>
        </g>
      </g>
      <g
         id="Layer1113">
        <path
           d="  M84.9951,60.0965 L756.8953,60.0965 L756.8953,535.1785 L84.9951,535.1785 L84.9951,60.0965 Z"
           style="fill: none; "
           id="path53" />
      </g>
      <g
         id="Layer1114">
        <g
           id="Layer1115">
          <g
             id="Layer1116">
            <g
               id="Layer1117">
              <defs
                 id="defs54">
                <linearGradient
                   id="grad27">
                  <stop
                     offset="0%"
                     stop-color="#00adef"
                     stop-opacity="1.0000"
                     id="stop53" />
                  <stop
                     offset="100%"
                     stop-color="#1d418c"
                     stop-opacity="1.0000"
                     id="stop54" />
                </linearGradient>
              </defs>
              <path
                 d="  M487.6350,377.1825 C488.3201,377.6407 489.9920,378.7582 489.9920,378.7582 L489.9920,378.7582 L489.9713,379.5861 C489.9713,379.5861 489.7018,389.4884 489.7018,389.5046 L489.7018,389.5046 C489.7018,389.8600 489.6870,402.4800 489.6870,402.4800 L489.6870,402.4800 L487.0650,399.5033 C481.3932,393.0553 474.6789,385.3755 467.7766,377.1832 L467.7766,377.1832 L452.5838,377.1832 C453.5396,377.8211 455.3964,379.0593 455.3964,379.0593 L455.3964,379.0593 L455.3860,379.8879 L454.0043,442.0605 C454.0043,442.0605 452.2813,443.4881 451.3875,444.2287 L451.3875,444.2287 C459.8654,442.5471 468.2749,441.1738 476.5241,440.1177 L476.5241,440.1177 C475.7201,439.7093 473.7968,438.7308 473.7968,438.7308 L473.7968,438.7308 L473.8013,437.7995 L474.1296,403.1341 L488.8862,420.0835 C495.3891,427.5216 502.0995,435.2118 508.6897,442.9976 L508.6897,442.9976 C508.6483,439.6653 507.8915,378.8887 507.8915,378.8887 L507.8915,378.8887 C507.8915,378.8887 509.4995,377.7202 510.2388,377.1832 L510.2388,377.1832 L487.6357,377.1832 L487.6350,377.1825 Z"
                 style="fill: url(#grad27); "
                 id="path54" />
            </g>
          </g>
        </g>
      </g>
      <g
         id="Layer1118">
        <path
           d="  M84.9951,60.0965 L756.8953,60.0965 L756.8953,535.1785 L84.9951,535.1785 L84.9951,60.0965 Z"
           style="fill: none; "
           id="path55" />
      </g>
      <g
         id="Layer1119">
        <g
           id="Layer1120">
          <g
             id="Layer1121">
            <g
               id="Layer1122">
              <defs
                 id="defs56">
                <linearGradient
                   id="grad28">
                  <stop
                     offset="0%"
                     stop-color="#00adef"
                     stop-opacity="1.0000"
                     id="stop55" />
                  <stop
                     offset="100%"
                     stop-color="#1d418c"
                     stop-opacity="1.0000"
                     id="stop56" />
                </linearGradient>
              </defs>
              <path
                 d="  M577.1900,378.6283 L577.1493,378.6593 L577.1060,378.6871 C576.1922,379.2946 575.6486,379.8963 575.6486,380.2983 L575.6486,380.2983 C575.6486,380.3015 575.7876,385.8137 575.8005,386.3203 L575.8005,386.3203 C583.6122,404.5992 590.3032,422.5504 596.2425,441.1873 L596.2425,441.1873 L597.1770,444.1195 L594.2481,443.1759 C589.8094,441.7457 585.1529,440.4267 580.4092,439.2549 L580.4092,439.2549 C580.3956,439.2511 579.5903,439.0546 579.5903,439.0546 L579.5903,439.0546 L579.2633,438.7838 C579.2633,438.7838 578.0664,437.7536 576.8753,436.7293 L576.8753,436.7293 C576.9541,439.9096 577.0375,443.2147 577.0711,444.5616 L577.0711,444.5616 C585.9834,446.8456 598.2460,450.2056 606.9779,454.0413 L606.9779,454.0413 C607.7936,454.4006 608.2647,454.4614 608.5167,454.4491 L608.5167,454.4491 C608.7184,454.4381 609.0034,454.3961 609.1760,454.2649 L609.1760,454.2649 C609.3278,454.1518 609.4183,454.0064 609.4965,453.8371 L609.4965,453.8371 C609.5282,453.4570 609.5405,452.6272 609.5405,451.6229 L609.5405,451.6229 C609.5405,450.4324 609.5269,449.0384 609.5140,448.0030 L609.5140,448.0030 C609.5140,448.0030 609.4997,446.0804 609.4965,445.7107 L609.4965,445.7107 C604.0186,425.1621 597.7412,405.7567 590.3064,386.3972 L590.3064,386.3972 L589.4261,384.1042 L598.8302,384.6607 L604.4607,385.0232 L604.8523,385.3503 C604.8523,385.3503 605.9258,386.2738 606.9728,387.1754 L606.9728,387.1754 L606.9728,377.3551 C604.3611,377.3544 580.6237,377.3454 580.6237,377.3454 L580.6237,377.3454 C579.4443,377.3454 578.3210,377.7635 577.1894,378.6270 Z M577.1900,378.6283 L577.1900,378.6283 L577.1900,378.6283 Z"
                 style="fill: url(#grad28); "
                 id="path56" />
            </g>
          </g>
        </g>
      </g>
      <g
         id="Layer1123">
        <g
           id="Layer1124">
          <g
             id="Layer1125">
            <g
               id="Layer1126">
              <defs
                 id="defs58">
                <linearGradient
                   id="grad29">
                  <stop
                     offset="0%"
                     stop-color="#00adef"
                     stop-opacity="1.0000"
                     id="stop57" />
                  <stop
                     offset="100%"
                     stop-color="#1d418c"
                     stop-opacity="1.0000"
                     id="stop58" />
                </linearGradient>
              </defs>
              <path
                 d="  M548.9054,377.2594 C548.9054,377.2594 518.8247,377.6356 515.5325,404.3388 L515.5325,404.3388 C515.5325,404.3388 511.9411,432.4043 552.2447,439.9872 L552.2447,439.9872 L567.5410,442.6466 L566.8760,419.2369 L569.1367,417.3743 L552.2441,415.7774 L552.6428,432.0062 C552.6428,432.0062 530.7642,429.2879 531.4279,404.9463 L531.4279,404.9463 C533.2886,384.2206 548.6520,384.6523 548.6520,384.6523 L548.6520,384.6523 L563.4164,384.7854 L567.2024,386.9511 L566.9232,377.2594 L548.9041,377.2594 L548.9054,377.2594 Z"
                 style="fill: url(#grad29); "
                 id="path58" />
            </g>
          </g>
        </g>
      </g>
      <g
         id="Layer1127">
        <path
           d="  M84.9951,60.0965 L756.8953,60.0965 L756.8953,535.1785 L84.9951,535.1785 L84.9951,60.0965 Z"
           style="fill: none; "
           id="path59" />
      </g>
    </g>
  </g>
</svg>
