<?xml version="1.0" encoding="UTF-8" standalone="no"?>
<svg
   version="1.1"
   width="8.2677in"
   height="11.6929in"
   viewBox="0 0 595.2756 841.8898"
   id="svg83"
   sodipodi:docname="Delhi Capitals (DC).cdr"
   xmlns:inkscape="http://www.inkscape.org/namespaces/inkscape"
   xmlns:sodipodi="http://sodipodi.sourceforge.net/DTD/sodipodi-0.dtd"
   xmlns:xlink="http://www.w3.org/1999/xlink"
   xmlns="http://www.w3.org/2000/svg"
   xmlns:svg="http://www.w3.org/2000/svg">
  <defs
     id="defs83" />
  <sodipodi:namedview
     id="namedview83"
     pagecolor="#ffffff"
     bordercolor="#000000"
     borderopacity="0.25"
     inkscape:showpageshadow="2"
     inkscape:pageopacity="0.0"
     inkscape:pagecheckerboard="0"
     inkscape:deskcolor="#d1d1d1"
     inkscape:document-units="in" />
  <g
     id="Layer1000">
    <path
       d="  M485.9895,560.0919 C471.2282,584.5043 453.9538,607.3748 434.5253,628.1761 C415.0331,648.9140 393.7674,667.9841 370.6643,684.5820 C359.1340,692.8818 311.2373,720.1033 299.0103,726.1007 C286.7621,720.1033 182.6710,649.1888 163.1160,628.4929 C143.6027,607.7339 126.3071,584.8628 111.5878,560.3866 C96.6570,536.0379 84.5354,509.9358 75.3490,482.7569 C77.2708,489.6630 79.4249,496.5262 81.7478,503.3260 C84.1763,510.0841 86.7106,516.8205 89.5190,523.4303 C95.0520,536.7141 101.4296,549.6384 108.4408,562.2242 C122.6534,587.3125 139.6322,610.8380 158.8918,632.3574 C178.1092,653.9191 199.8397,673.2627 223.0911,690.4106 C234.7483,698.9423 246.8696,706.8615 259.2446,714.3163 C271.6837,721.6657 284.4386,728.4655 297.4264,734.8223 L299.0311,735.6039 L300.6368,734.8223 C313.6025,728.4655 326.3369,721.6449 338.7542,714.2740 C351.1087,706.7984 363.1881,698.8363 374.8030,690.2626 C386.4388,681.7098 397.5896,672.4812 408.2750,662.7884 C418.9822,653.0953 429.1400,642.8106 438.7268,632.0406 C457.9019,610.4789 474.8608,586.9742 489.1148,561.9494 C496.1682,549.4052 502.5881,536.5023 508.1842,523.2609 C511.0564,516.6716 513.6114,509.9567 516.1034,503.2197 C518.4689,496.4410 520.6652,489.6195 522.6502,482.7351 C513.2322,509.8096 500.9622,535.8057 485.9895,560.0919 Z"
       style="fill-rule: evenodd; fill: #faad1b; "
       id="path1" />
    <defs
       id="defs7">
      <linearGradient
         id="grad1">
        <stop
           offset="0.0000%"
           stop-color="#2561ae"
           stop-opacity="1.0000"
           id="stop1" />
        <stop
           offset="13.0000%"
           stop-color="#2561ae"
           stop-opacity="1.0000"
           id="stop2" />
        <stop
           offset="22.0000%"
           stop-color="#255ca7"
           stop-opacity="1.0000"
           id="stop3" />
        <stop
           offset="34.0000%"
           stop-color="#264c93"
           stop-opacity="1.0000"
           id="stop4" />
        <stop
           offset="49.0000%"
           stop-color="#283374"
           stop-opacity="1.0000"
           id="stop5" />
        <stop
           offset="55.0000%"
           stop-color="#282968"
           stop-opacity="1.0000"
           id="stop6" />
        <stop
           offset="100.0000%"
           stop-color="#282968"
           stop-opacity="1.0000"
           id="stop7" />
      </linearGradient>
      <linearGradient
         xlink:href="#grad1"
         id="grad2"
         x1="0"
         y1="0"
         x2="0"
         y2="1"
         gradientTransform="rotate(180 .5 .5)"
         gradientUnits="objectBoundingBox" />
    </defs>
    <path
       d="  M540.6222,405.1061 L551.5824,406.3524 L551.6036,378.6668 L582.7950,347.4751 L534.7936,347.4751 L534.7936,284.0362 C494.4370,261.7990 442.1694,237.0064 383.1444,223.6810 C383.2082,224.0820 383.3139,224.4834 383.3984,224.8847 L387.7911,229.8052 L401.8340,238.9916 L405.3182,260.8490 L405.8890,261.7993 C458.5999,272.6964 492.3044,297.8901 513.8449,321.0988 L513.8449,322.1760 C492.0299,298.7774 450.0470,280.2355 399.9124,270.3733 L396.1537,264.2487 L393.0492,244.6934 L381.4974,237.1332 L374.3805,229.1297 C369.8399,195.0661 345.3855,173.3779 313.8984,166.7261 L313.5608,162.4599 L310.2450,159.5455 L310.2450,154.0759 C316.1797,152.6397 320.0861,150.2534 320.0861,147.5503 C320.0861,144.8258 316.1797,142.4395 310.2450,141.0244 L310.2450,135.1958 L301.7771,130.4652 L301.3335,127.3820 L304.3319,127.3823 L305.5990,123.0107 L302.2412,123.0107 L297.4687,106.2853 L292.7173,123.0107 L289.3585,123.0107 L290.6465,127.3823 L293.6455,127.3823 L293.2022,130.4656 L284.7333,135.1961 L284.7333,141.0248 C278.7993,142.4610 274.9137,144.8473 274.9137,147.5507 C274.9137,150.2537 278.8208,152.6612 284.7333,154.0763 L284.7333,159.5458 L281.4390,162.4603 L281.1010,167.4442 C251.0506,175.1313 227.9476,196.1436 223.5546,229.1089 L216.4377,237.1127 L204.8858,244.6729 L201.7811,264.2282 L197.3042,271.0917 C152.2596,280.5740 111.9872,297.5314 84.0482,321.6904 L84.0482,321.0988 C110.6992,298.0381 143.6433,273.0975 191.4122,262.5597 L192.6162,260.7228 L196.0794,238.9919 L210.1232,229.8056 L214.4950,224.8850 C214.5793,224.3991 214.7058,223.9135 214.7907,223.4279 C155.7458,236.4362 103.4571,260.6795 63.1005,282.6637 L63.1005,347.4747 L12.4806,347.4747 L46.7972,378.9618 L46.7972,468.6080 L75.2222,482.0186 C95.8332,552.5106 151.1203,655.3970 298.9469,726.4598 C447.1319,655.2074 502.3347,551.9609 522.8193,481.4690 L552.2157,468.6084 L552.2157,419.7197 L549.7240,416.5731 C546.0706,411.9065 543.3253,408.4431 540.6222,405.1061 Z"
       style="fill: url(#grad2); "
       id="path7" />
    <path
       d="  M470.1299,555.7412 C456.6140,578.0841 440.8181,599.0120 423.0151,618.0612 C405.1709,637.0249 385.7210,654.4899 364.5606,669.6730 C354.0011,677.2755 343.1469,684.4561 331.9759,691.1294 C321.2267,697.4436 310.2236,703.2933 299.0100,708.7837 C287.7967,703.2936 276.7519,697.4650 265.9816,691.1502 C254.7889,684.4978 243.8917,677.3389 233.2903,669.7787 C212.0882,654.6372 192.5118,637.2783 174.6038,618.3351 C156.7375,599.3287 140.8993,578.4009 127.4471,555.9949 C113.7838,533.6942 102.6756,509.8096 94.2704,484.9328 C96.0443,491.2469 98.0084,497.5189 100.1202,503.7491 C102.3377,509.9368 104.6608,516.1036 107.2371,522.1430 C112.3053,534.2861 118.1342,546.1330 124.5541,557.6425 C137.5627,580.5979 153.1052,602.1381 170.7390,621.8200 C188.3305,641.5656 208.2023,659.2416 229.4892,674.9533 C240.1749,682.7668 251.2412,690.0106 262.5813,696.8318 C273.9640,703.5678 285.6427,709.7770 297.5110,715.6049 L298.9888,716.3230 L300.4671,715.6049 C312.3354,709.7981 323.9929,703.5467 335.3545,696.8100 C346.6731,689.9680 357.7182,682.6823 368.3405,674.8258 C378.9840,666.9911 389.1844,658.5652 398.9826,649.6741 C408.7814,640.8048 418.0949,631.4071 426.8582,621.5237 C444.4074,601.7996 459.9294,580.2801 472.9806,557.3879 C479.4217,545.9001 485.2919,534.0946 490.4453,521.9944 C493.0638,515.9547 495.4078,509.8093 497.6890,503.6636 C499.8636,497.4551 501.8703,491.2043 503.6868,484.9110 C495.0702,509.7036 483.8355,533.5046 470.1299,555.7412 Z"
       style="fill-rule: evenodd; fill: #ffffff; "
       id="path8" />
    <g
       id="Layer1001">
      <g
         id="Layer1002">
        <path
           d="  M211.1379,260.6376 L212.6167,249.0015 L223.7246,242.7081 L231.2422,234.4932 C231.2422,234.4932 233.9667,187.5476 285.4101,174.2434 C285.4101,174.2434 254.1348,182.2472 244.0192,218.7178 C241.2101,228.8760 245.2649,240.2796 245.2649,240.2796 L244.1246,262.5168 C244.1246,262.5168 220.0920,264.7557 206.8935,270.0770 L211.1379,260.6376 Z"
           style="fill-rule: evenodd; fill: #ffffff; "
           id="path9" />
      </g>
      <g
         id="Layer1003">
        <path
           d="  M314.5528,175.0038 C314.5528,175.0038 346.4627,177.3269 357.1481,203.5347 C357.1481,203.5344 340.2330,183.7888 314.5528,175.0038 Z"
           style="fill-rule: evenodd; fill: #ffffff; "
           id="path10" />
      </g>
      <g
         id="Layer1004">
        <path
           d="  M290.4364,174.2222 C290.4364,174.2222 269.4662,189.3218 272.2116,260.4473 L280.6164,259.9617 C280.6164,259.9829 273.1828,195.9105 290.4364,174.2222 Z"
           style="fill-rule: evenodd; fill: #ffffff; "
           id="path11" />
      </g>
    </g>
    <g
       id="Layer1005">
      <g
         id="Layer1006">
        <g
           id="Layer1007">
          <g
             id="Layer1008">
            <path
               d="  M194.2440,295.5877 C207.1254,292.6944 213.6299,291.4696 226.6596,289.4635 C231.8335,292.6521 234.4315,294.1307 239.6474,297.0445 C239.7322,313.8125 239.7742,317.1914 239.8588,333.9803 C234.9594,337.4860 232.5308,339.3230 227.6317,343.2512 C214.2846,343.2512 207.6113,343.2512 194.2651,343.2512 C194.2440,318.5643 194.2440,320.2753 194.2440,295.5877 Z Z M220.6411,301.7123 C217.5370,302.1348 215.9742,302.3459 212.8695,302.8103 C212.9124,315.9457 212.9335,319.1133 212.9963,332.2279 C216.1219,332.1222 217.6635,332.0799 220.7887,331.9742 C220.7468,318.5012 220.7045,315.1853 220.6411,301.7123 Z"
               style="fill-rule: evenodd; fill: #ffffff; "
               id="path12" />
            <path
               d="  M247.7569,286.7185 C261.7789,285.1980 268.8115,284.7124 282.8976,284.2480 C282.8976,289.7386 282.9191,292.1672 282.9191,296.6864 C276.4986,296.8552 273.3102,296.9820 266.9115,297.3408 C266.9323,301.8180 266.9323,303.8241 266.9534,307.7731 C272.2539,307.5409 274.8942,307.4567 280.1943,307.3295 C280.1943,311.3420 280.2157,313.2215 280.2157,317.1498 C274.9150,317.2343 272.2750,317.2974 266.9957,317.4662 C267.0165,322.5770 267.0165,325.0902 267.0377,330.9822 C273.6059,330.8976 276.8797,330.8765 283.4470,330.8342 C283.4470,335.3749 283.4678,337.7820 283.4678,343.2727 C269.2978,343.2727 262.2020,343.2727 248.0317,343.2727 C247.9049,315.0162 247.8619,314.9534 247.7569,286.7185 Z"
               style="fill-rule: evenodd; fill: #ffffff; "
               id="path13" />
            <path
               d="  M289.0212,284.0788 C296.6874,283.9100 300.5305,283.9100 308.1964,284.0574 C308.1752,307.8362 308.1752,311.1732 308.1336,330.7916 C314.9334,330.8131 318.3328,330.8339 325.1332,330.9185 C325.1124,335.4165 325.1124,337.8028 325.0909,343.2723 C310.6887,343.2723 303.4875,343.2723 289.0853,343.2723 C289.0424,313.9608 289.0424,313.3695 289.0212,284.0788 Z"
               style="fill-rule: evenodd; fill: #ffffff; "
               id="path14" />
            <path
               d="  M356.4514,310.7507 C356.4937,302.7046 356.5145,298.7982 356.5571,287.4574 C364.0962,288.3655 367.8341,288.8937 375.3309,290.1185 C375.2255,317.0021 375.1829,316.3894 375.0778,343.2727 C367.5596,343.2727 363.8002,343.2727 356.2615,343.2727 C356.3037,331.9322 356.3246,328.0254 356.3672,319.9794 C353.2416,319.8314 351.6789,319.7468 348.5530,319.6203 C348.5110,327.8144 348.4902,331.7842 348.4479,343.2727 C340.8240,343.2727 337.0226,343.2727 329.4202,343.2727 C329.5050,314.3410 329.5470,313.8974 329.6107,284.9658 C337.2555,285.4513 341.0985,285.7893 348.7218,286.5708 C348.6798,298.0589 348.6590,302.0291 348.6167,310.2235 C351.7628,310.4128 353.3259,310.5185 356.4514,310.7507 Z"
               style="fill-rule: evenodd; fill: #ffffff; "
               id="path15" />
            <path
               d="  M384.8129,291.7441 C392.3737,293.1172 396.1533,293.8985 403.6507,295.5881 C403.6507,320.2753 403.6507,318.5854 403.6507,343.2727 C396.0268,343.2727 392.2257,343.2727 384.6233,343.2727 C384.6861,317.0438 384.7290,317.9730 384.8129,291.7441 Z"
               style="fill-rule: evenodd; fill: #ffffff; "
               id="path16" />
          </g>
        </g>
        <g
           id="Layer1009">
          <path
             d="  M384.8337,291.7441 C384.8337,291.7441 394.2738,293.3491 407.3246,296.3059 C413.9768,297.8055 419.9322,299.4317 419.9322,299.4317 L398.4339,308.4701 L384.8337,291.7441 Z"
             style="fill-rule: evenodd; fill: #ffffff; "
             id="path17" />
        </g>
        <g
           id="Layer1010">
          <path
             d="  M213.6510,291.7441 C213.6510,291.7441 204.2116,293.3491 191.1601,296.3059 C184.5080,297.8055 178.5529,299.4317 178.5529,299.4317 L200.0508,308.4701 L213.6510,291.7441 Z"
             style="fill-rule: evenodd; fill: #ffffff; "
             id="path18" />
        </g>
      </g>
      <g
         id="Layer1011">
        <g
           id="Layer1012">
          <g
             id="Layer1013">
            <g
               id="Layer1014">
              <g
                 id="Layer1015">
                <path
                   d="  M138.2808,357.7172 C131.2481,389.0985 127.3837,421.1345 121.3017,452.7276 C131.1847,449.0104 136.1690,447.2158 146.1578,443.9003 C147.1075,438.3254 147.5937,435.1995 148.5440,428.7373 C154.4569,427.0483 157.4136,426.2457 163.3265,424.7460 C164.0661,430.4478 164.4248,433.1508 165.1641,438.0502 C175.2585,435.1995 180.3056,433.9324 190.3577,431.9900 C184.6556,407.3447 179.9888,382.4890 174.7518,357.7389 L138.2808,357.7386 L138.2808,357.7172 Z Z M150.6135,411.7374 C152.0072,399.3201 153.4431,386.9233 154.9216,374.5275 C155.8928,374.4852 156.3790,374.4644 157.3717,374.4006 C158.8287,386.0790 160.2227,397.7785 161.6801,409.4565 C157.2448,410.3434 155.0273,410.7867 150.6135,411.7374 Z"
                   style="fill-rule: evenodd; fill: #ffffff; "
                   id="path19" />
              </g>
            </g>
            <g
               id="Layer1016">
              <g
                 id="Layer1017">
                <path
                   d="  M350.2641,357.7172 C332.4826,357.7172 314.7008,357.7172 296.9200,357.7172 C296.9200,362.8488 296.9200,365.4253 296.9200,370.5570 C302.6423,370.5570 305.4936,370.5570 311.2165,370.5570 C311.2165,389.0357 311.2373,407.5132 311.2373,425.9920 C321.2482,426.0548 326.2318,426.1188 336.2417,426.3299 C336.2202,407.7458 336.1786,389.1827 336.1575,370.5989 C341.8170,370.6204 344.6469,370.6412 350.3060,370.6623 C350.2852,365.5099 350.2641,362.9122 350.2641,357.7172 Z"
                   style="fill-rule: evenodd; fill: #ffffff; "
                   id="path20" />
              </g>
            </g>
            <g
               id="Layer1018">
              <g
                 id="Layer1019">
                <path
                   d="  M452.4961,357.7172 L427.2602,357.7172 C426.9645,383.6075 426.7118,409.4988 426.4158,435.3683 C442.0855,439.6553 457.3327,444.6174 472.6007,450.1085 C472.7699,444.5547 472.8756,441.3237 473.0444,434.4810 C464.1748,431.6729 459.7821,430.3209 451.0390,427.8507 C451.5246,404.4725 451.9266,381.0950 452.4961,357.7172 Z"
                   style="fill-rule: evenodd; fill: #ffffff; "
                   id="path21" />
              </g>
            </g>
            <g
               id="Layer1020">
              <g
                 id="Layer1021">
                <path
                   d="  M197.4954,357.7172 C197.3474,382.1299 197.2216,406.5420 197.0524,430.9756 C207.1680,429.2229 212.1936,428.6105 222.1827,428.0826 C222.2038,418.5164 222.2246,413.7438 222.2676,404.1769 C228.7720,403.9447 232.0452,403.8601 238.5497,403.6702 C245.3709,399.5100 248.7915,397.4614 255.6127,393.4066 C255.6345,383.1642 255.6345,378.0534 255.6556,367.8116 C248.8555,363.7988 245.4552,361.7931 238.6551,357.7172 L197.4954,357.7172 L197.4954,357.7172 Z Z M231.4539,390.7250 C227.8002,390.8096 225.9841,390.8519 222.3310,390.9364 C222.3518,382.9534 222.3729,378.9413 222.3944,370.9580 C226.0481,370.9160 227.8636,370.9160 231.5174,370.8737 C231.4959,378.8141 231.4748,382.7846 231.4539,390.7250 Z"
                   style="fill-rule: evenodd; fill: #ffffff; "
                   id="path22" />
              </g>
            </g>
            <g
               id="Layer1022">
              <g
                 id="Layer1023">
                <path
                   d="  M263.8064,426.4776 C273.9220,426.2239 278.9905,426.1396 289.1061,426.0548 C289.1273,403.2682 289.1273,380.5037 289.1484,357.7168 L263.9121,357.7172 C263.8910,380.6299 263.8487,403.5437 263.8064,426.4776 Z"
                   style="fill-rule: evenodd; fill: #ffffff; "
                   id="path23" />
              </g>
            </g>
          </g>
        </g>
        <g
           id="Layer1024">
          <g
             id="Layer1025">
            <path
               d="  M392.0358,417.7351 C386.2911,417.3123 383.4192,417.1016 377.6752,416.7422 C376.8725,421.8744 376.4712,424.3446 375.6688,428.8011 C365.9546,428.0826 361.0974,427.7658 351.3832,427.2806 C356.8528,404.2195 361.2243,380.8631 366.2713,357.6963 C380.5893,357.6963 387.7488,357.6963 402.0668,357.6963 C408.1696,382.6370 412.6260,407.9367 418.4758,432.9196 C408.7401,431.7575 403.8615,431.2511 394.1056,430.3216 C393.2600,425.6544 392.8590,423.0775 392.0358,417.7351 Z Z M382.9125,372.2466 C381.4974,384.0303 380.8007,390.7455 379.3860,403.0786 C383.6941,403.2900 385.8481,403.3954 390.1562,403.6494 C388.2133,390.9995 387.2415,384.1783 385.3196,372.2888 C384.3485,372.2677 383.8837,372.2677 382.9125,372.2466 Z"
               style="fill-rule: evenodd; fill: #ffffff; "
               id="path24" />
          </g>
        </g>
        <path
           d="  M504.3411,397.2500 C504.5311,387.8945 504.6160,383.2699 504.8056,374.9496 C509.0288,375.1818 511.1412,375.3087 515.3645,375.5617 C515.2588,381.2424 515.2165,384.3051 515.1108,390.5559 C524.9942,391.6962 529.9573,392.2663 540.0303,393.4066 C540.0303,384.4102 540.0303,380.0393 540.0511,372.2680 L558.5299,357.7175 L523.0310,357.7172 L523.0310,357.7172 L496.7390,357.7172 C489.8969,362.2783 486.4754,364.8129 479.6542,369.7969 C479.3586,380.5037 479.2106,386.8182 478.9153,399.2352 C485.7362,406.2675 489.1369,410.1112 496.0417,418.1355 C503.3914,420.5007 507.0868,421.7470 514.5832,424.2812 C514.4141,434.2911 514.3517,439.2542 514.1825,448.1238 C509.8318,446.6661 507.6570,445.9275 503.3697,444.4916 C503.4962,439.0854 503.5599,436.2126 503.6656,430.2998 C493.3812,427.4065 488.3335,425.9705 478.3237,423.2675 C478.1542,430.3209 478.0703,433.7632 477.9015,440.0355 C484.2576,447.3843 487.4466,451.1437 493.9507,458.2391 C505.2066,462.6110 510.9295,464.8909 522.7978,469.4530 C529.8936,467.2993 533.4627,465.7785 540.6427,461.8083 L540.6427,423.7329 C533.2939,414.4193 529.7456,409.9209 522.7133,401.6638 C515.3017,399.8483 511.6268,398.9607 504.3411,397.2500 Z"
           style="fill-rule: evenodd; fill: #ffffff; "
           id="path25" />
        <path
           d="  M74.7789,357.7172 L74.7789,357.7172 L40.7998,357.7172 L58.3910,372.2888 C58.3702,372.3097 58.3702,372.3097 58.3488,372.3311 C58.3488,402.2762 58.3488,432.2005 58.3488,462.1462 C65.1066,466.2640 68.4855,467.8268 75.2856,470.0023 C85.2529,466.0952 90.3211,464.0469 100.5423,460.0347 C107.2371,452.8541 110.6368,449.0108 117.4161,441.4720 C117.5849,431.1665 117.6694,425.1480 117.8382,413.2159 C108.0397,415.3911 103.1615,416.5314 93.4681,418.7909 C93.3415,430.0256 93.2778,435.6646 93.1513,445.5902 C88.8432,447.0473 86.6894,447.7859 82.4021,449.2436 C82.6344,424.7674 82.8458,400.3131 83.0783,375.8369 C87.4287,375.6047 89.6039,375.4778 93.9754,375.2453 C93.8697,383.3759 93.8278,387.8743 93.7217,396.9764 C103.4360,395.6247 108.3357,394.9274 118.1345,393.5972 C118.2822,383.6504 118.3456,378.7299 118.4936,370.0505 C111.8841,364.9823 108.5891,362.4058 102.0004,357.7598 L74.7789,357.7594 L74.7789,357.7172 Z"
           style="fill-rule: evenodd; fill: #ffffff; "
           id="path26" />
      </g>
    </g>
    <g
       id="Layer1026">
      <g
         id="Layer1027">
        <path
           d="  M339.2616,463.6459 C339.2616,463.6459 343.9495,465.7785 348.3845,469.7487 C348.3845,469.7487 358.3101,465.4828 354.2762,450.6581 C354.5088,457.7532 349.2077,462.8855 339.2616,463.6459 Z"
           style="fill-rule: evenodd; fill: #ffffff; "
           id="path27" />
        <path
           d="  M243.8921,450.0457 C243.8921,450.0457 252.0438,457.4153 254.5570,458.0280 L249.4039,458.7676 C249.4039,458.7676 257.9570,465.1872 263.5111,464.7653 L256.5003,469.2839 C256.4788,469.2836 246.0464,461.0270 243.8921,450.0457 Z"
           style="fill-rule: evenodd; fill: #ffffff; "
           id="path28" />
        <path
           d="  M250.5650,510.5909 C250.5650,510.5909 249.5938,538.6352 261.2933,550.3562 C261.2933,550.3562 250.0378,540.4732 245.6028,523.8320 L250.5650,510.5909 Z"
           style="fill-rule: evenodd; fill: #ffffff; "
           id="path29" />
        <path
           d="  M348.0251,515.5322 C348.0251,515.5322 344.8365,541.0222 332.7145,552.3197 C332.7145,552.3197 346.0399,544.1682 351.0450,527.6753 L348.0251,515.5322 Z"
           style="fill-rule: evenodd; fill: #ffffff; "
           id="path30" />
        <path
           d="  M355.0363,444.5335 C349.6302,443.2872 345.1315,448.5460 343.7381,450.4047 C342.3445,452.2632 341.2670,455.0505 334.2984,457.6693 C341.4153,458.1337 353.1776,453.6568 354.2551,451.9464 C354.5719,455.1984 354.5927,460.6472 348.3839,469.7278 L353.6420,473.9091 C353.6423,473.9088 363.6951,461.5334 355.0363,444.5335 Z"
           style="fill-rule: evenodd; fill: #d71921; "
           id="path31" />
        <path
           d="  M303.5298,547.4209 C304.7547,554.1573 319.0092,553.7137 324.0778,551.3485 C329.1463,548.9834 330.8990,541.9930 330.8990,541.9930 C330.8990,541.9930 330.2866,542.6054 327.3090,544.3582 C324.3311,546.1112 319.6217,546.2800 319.6217,546.2800 C319.6217,546.2800 326.2738,543.3873 329.3366,538.5725 C332.3984,533.7570 331.1732,529.9985 331.1732,529.9985 C331.1732,529.9985 328.4698,535.3412 324.6056,538.4037 C320.7623,541.4655 313.1380,542.7749 313.1380,542.7749 C313.1380,542.7749 322.5781,537.7064 325.3020,533.9479 C328.0050,530.1885 328.7235,525.6478 328.7235,525.6478 C328.7235,525.6478 314.2995,535.1721 316.2213,533.7791 C318.1428,532.3848 325.6614,523.8115 325.6614,523.8115 L319.1992,522.5860 L314.7434,525.6478 L315.0384,526.4928 C315.4820,527.7605 315.4193,529.1327 314.8914,530.3576 L310.7095,539.9873 C310.4347,540.6420 310.0131,541.2336 309.5061,541.7195 L303.5298,547.4209 Z"
           style="fill-rule: evenodd; fill: #ffffff; "
           id="path32" />
        <path
           d="  M308.9782,605.3687 C307.6057,606.1500 304.1845,607.4171 299.5808,607.3960 C293.2874,607.3537 287.3108,607.0792 284.1859,604.2919 C279.2442,599.8989 277.0479,594.2814 277.0479,594.2814 C277.1321,597.1750 276.7311,600.2160 275.1254,602.1590 C275.1254,602.1590 284.0379,607.1849 285.4101,615.2521 C286.4665,621.3975 309.8232,622.4324 311.5333,613.9004 C313.0961,606.1292 316.6226,602.3700 319.9170,602.1593 C318.6290,599.2660 318.4391,594.2817 318.4391,594.2817 C318.4391,594.2817 312.8639,603.1513 308.9782,605.3687 Z"
           style="fill-rule: evenodd; fill: #ffffff; "
           id="path33" />
        <path
           d="  M346.1667,508.2254 C346.1667,508.2254 346.3147,494.5413 336.1149,491.3100 C336.2625,495.3225 333.9397,499.5672 333.0316,500.9609 C336.1149,499.5672 331.2363,505.5435 331.0252,507.7190 C330.6034,512.0483 327.0550,515.4054 319.8119,515.7017 C318.5022,515.5537 317.6367,515.1949 317.2139,515.0470 L325.6405,522.5437 C334.1088,520.9813 336.5162,510.8871 336.6008,510.2324 C336.6639,509.7043 337.4243,511.3096 338.0787,514.3292 C338.2263,514.7936 339.6206,525.3102 338.1847,532.8073 C343.7807,522.1850 342.0280,507.3811 342.0280,507.3811 C341.6901,505.7763 341.3317,504.7200 341.2257,504.3612 C340.7398,502.9673 346.1667,508.2254 346.1667,508.2254 Z"
           style="fill-rule: evenodd; fill: #d71921; "
           id="path34" />
        <path
           d="  M272.7609,523.7266 L272.4015,523.7894 C272.4015,523.7894 273.7324,525.2891 275.4006,527.1478 C277.7237,529.7240 280.7436,532.9546 281.8627,533.7573 C283.1721,534.7077 277.0056,530.6744 272.8666,527.9505 C270.8814,526.6404 269.3400,525.6273 269.3400,525.6273 C269.3400,525.6273 269.5300,526.8096 270.0575,528.4783 C270.5649,530.0623 271.4092,532.0895 272.7404,533.9476 C275.4435,537.7070 284.9037,542.7752 284.9037,542.7752 C284.9037,542.7752 277.3013,541.4658 273.4368,538.4040 C269.5934,535.3415 266.8686,529.9982 266.8686,529.9982 C266.8686,529.9982 265.6444,533.7576 268.7062,538.5728 C271.7680,543.3876 278.4204,546.2803 278.4204,546.2803 C278.4204,546.2803 273.6898,546.1115 270.7129,544.3585 C267.7353,542.6061 267.1222,541.9933 267.1222,541.9933 C267.1222,541.9933 268.8753,548.9834 273.9435,551.3488 C279.0117,553.7143 293.2666,554.1576 294.4918,547.4209 L288.5363,541.6980 C288.0296,541.2124 287.6286,540.6205 287.3329,539.9658 L283.1510,530.3368 C282.6235,529.1119 282.5594,527.7391 283.0033,526.4716 L283.2990,525.6270 L280.7231,523.8531 L278.8432,522.5645 L273.1623,523.6420 L272.7609,523.7266 Z"
           style="fill-rule: evenodd; fill: #ffffff; "
           id="path35" />
        <path
           d="  M239.2041,490.8245 C235.7621,497.7722 237.2396,503.9810 225.4143,514.5399 C226.0478,514.9627 227.7794,514.1171 228.6240,514.1171 C222.8374,520.7692 223.4713,530.6318 223.8934,533.2080 C224.9706,533.4191 228.1801,531.4976 229.2576,531.0539 C230.3348,530.6311 227.1032,543.9360 234.4107,555.2972 C235.2758,553.5868 236.3319,553.5868 236.7752,551.4331 C237.2396,551.6442 237.7685,551.9187 238.3168,552.2563 C245.2441,556.3322 257.7664,569.2991 262.7289,577.8301 C264.2286,577.1966 265.9394,576.1203 265.9394,576.1203 C265.9394,576.1203 266.5937,579.6889 269.1072,584.3983 C270.7962,587.5658 276.6043,592.9719 276.6043,592.9719 C275.9496,587.5873 272.9928,577.5563 273.6683,572.2555 C260.7863,567.1031 248.9814,553.5871 246.6374,550.1454 C248.3482,551.0109 251.1355,550.5673 251.7898,551.2220 C251.5153,550.9475 247.7985,547.2729 243.8914,542.4581 C240.0269,537.6852 235.9719,531.7938 234.8319,526.9780 C234.8319,526.9780 244.2719,514.7513 244.4827,504.0227 C244.5884,499.1870 246.0243,493.2524 248.5586,488.0154 C250.2056,484.5942 252.3385,481.4478 254.8520,479.1458 C243.3850,482.0814 239.2460,490.7188 239.2041,490.8245 Z"
           style="fill-rule: evenodd; fill: #ffffff; "
           id="path36" />
        <g
           id="Layer1028">
          <path
             d="  M321.0573,509.8096 C321.4375,510.3590 322.0711,510.7180 322.7889,510.7180 C323.9080,510.7180 324.7953,509.8519 324.8801,508.7533 C326.4000,508.1197 327.7312,506.7895 328.6383,505.6706 C328.7651,506.5153 328.8711,509.2818 325.3446,511.5204 C321.1422,514.1815 317.9952,510.6543 317.9952,510.6543 C319.3472,510.6757 320.2764,510.3372 321.0573,509.8096 Z"
             style="fill-rule: evenodd; fill: #d71921; "
             id="path37" />
          <path
             d="  M324.8587,508.7750 C324.8587,508.7328 324.8805,508.6905 324.8805,508.6274 C324.8805,507.9086 324.5208,507.2757 323.9721,506.8952 C325.7882,505.1428 328.5758,505.4375 328.5758,505.4375 C328.5758,505.4375 328.5970,505.5432 328.6181,505.6911 C327.7097,506.7895 326.3795,508.1197 324.8587,508.7750 Z"
             style="fill-rule: evenodd; fill: #ffffff; "
             id="path38" />
        </g>
        <g
           id="Layer1029">
          <path
             d="  M277.1318,509.8096 C276.7522,510.3590 276.1184,510.7180 275.4002,510.7180 C274.2811,510.7180 273.3945,509.8519 273.3096,508.7533 C271.7891,508.1197 270.4586,506.7895 269.5502,505.6706 C269.4236,506.5153 269.3179,509.2818 272.8445,511.5204 C277.0476,514.1815 280.1933,510.6543 280.1933,510.6543 C278.8214,510.6757 277.8922,510.3372 277.1318,509.8096 Z"
             style="fill-rule: evenodd; fill: #d71921; "
             id="path39" />
          <path
             d="  M273.3096,508.7750 C273.3096,508.7328 273.2881,508.6905 273.2881,508.6274 C273.2881,507.9086 273.6472,507.2757 274.1965,506.8952 C272.3801,505.1428 269.5931,505.4375 269.5931,505.4375 C269.5931,505.4375 269.5716,505.5432 269.5502,505.6911 C270.4586,506.7895 271.7891,508.1197 273.3096,508.7750 Z"
             style="fill-rule: evenodd; fill: #ffffff; "
             id="path40" />
        </g>
        <path
           d="  M276.6882,555.4036 C276.7731,557.8110 277.7654,563.9144 283.7631,568.2437 C281.8413,561.9929 284.4386,555.4036 284.4386,555.4036 C284.4386,555.4036 278.9486,556.1637 276.6882,555.4036 Z"
           style="fill-rule: evenodd; fill: #ffffff; "
           id="path41" />
        <path
           d="  M318.4599,555.4036 C316.2005,556.1640 310.7098,555.4036 310.7098,555.4036 C310.7098,555.4036 313.2860,561.9929 311.3860,568.2437 C317.3827,563.9141 318.3757,557.8318 318.4599,555.4036 Z"
           style="fill-rule: evenodd; fill: #ffffff; "
           id="path42" />
        <path
           d="  M287.1205,555.8892 C287.1205,555.8892 296.2438,554.1361 299.0949,554.1361 C302.3047,554.1361 309.2104,555.9731 309.2104,555.9731 C309.2104,555.9731 310.7303,559.5214 309.8014,561.6544 C309.8014,561.6544 309.0202,558.8251 308.0487,558.8251 C307.7108,558.8251 302.3681,558.7822 299.0949,558.8251 C295.3992,558.8671 287.8813,558.8251 287.6273,558.8251 C286.7621,558.8033 285.9386,561.6970 285.9386,561.6329 C285.7692,560.0701 285.7906,556.1637 287.1205,555.8892 Z"
           style="fill-rule: evenodd; fill: #ffffff; "
           id="path43" />
        <g
           id="Layer1030">
          <path
             d="  M282.0946,598.9700 L287.1846,601.3771 C286.5081,600.4690 283.1926,593.4579 283.9322,588.5373 C280.0040,596.4780 282.0946,598.9700 282.0946,598.9700 Z"
             style="fill-rule: evenodd; fill: #ffffff; "
             id="path44" />
          <path
             d="  M312.1880,598.9700 C312.1880,598.9700 314.2790,596.4777 310.3511,588.5585 C311.1115,593.4787 307.7748,600.4690 307.0984,601.3982 L312.1880,598.9700 Z"
             style="fill-rule: evenodd; fill: #ffffff; "
             id="path45" />
          <path
             d="  M292.1052,569.1726 L298.9680,581.6110 L298.1022,569.0038 C298.1022,569.0038 305.4510,571.7068 307.7534,580.3227 C310.0340,588.8544 309.4635,590.7343 300.8056,591.6424 C285.4316,591.6424 285.6004,587.8624 285.6004,587.8624 C285.0306,579.9429 292.1052,569.1726 292.1052,569.1726 Z"
             style="fill-rule: evenodd; fill: #d71921; "
             id="path46" />
          <g
             id="Layer1031">
            <path
               d="  M305.0715,601.0184 C305.0715,601.0184 300.7627,601.7358 296.9828,601.7150 C292.3579,601.6727 289.9300,600.9761 289.0853,600.6808 C288.8316,600.5959 288.6417,600.4059 288.5571,600.1740 C288.2192,599.3496 287.5645,597.4069 288.3038,595.4854 C288.3038,595.4854 288.7474,597.8297 289.5709,597.8297 C289.8665,597.8297 304.5644,597.7240 304.7761,597.7240 C305.4936,597.7451 306.1909,595.4434 306.2121,595.4854 C306.5916,596.9636 306.1906,600.8073 305.0715,601.0184 Z"
               style="fill-rule: evenodd; fill: #ffffff; "
               id="path47" />
          </g>
        </g>
        <path
           d="  M336.1149,491.2889 C333.1789,495.8292 331.3420,501.1297 331.3420,501.1297 C331.6581,506.9163 329.5890,510.2321 328.0480,511.8791 C327.7312,512.2167 327.3718,512.5335 326.9708,512.7661 C322.3670,515.6587 317.5945,514.9624 317.1928,515.0255 C317.1928,515.0255 322.9160,518.2353 328.6386,515.0466 C331.4269,513.4835 331.5111,508.2254 331.5111,508.2254 C337.8461,503.5159 336.1149,491.2889 336.1149,491.2889 Z"
           style="fill-rule: evenodd; fill: #ffffff; "
           id="path48" />
        <path
           d="  M316.4116,462.7583 C318.8827,465.5462 319.8328,466.5385 320.6354,469.1996 C310.5615,460.8996 291.2599,457.9857 279.0325,471.1843 C284.7983,457.1831 309.1685,454.0786 317.0237,453.7830 C317.0237,453.7830 298.2499,445.6315 275.2523,456.2122 C273.3512,457.0777 271.4297,458.0918 269.4871,459.2320 C267.9666,460.1183 259.6040,456.8028 256.3516,453.0018 C256.3305,452.9803 256.3094,452.9595 256.2885,452.9387 C251.3891,448.1873 247.9468,444.4919 242.7726,444.5758 C240.2387,447.4477 238.8235,453.5508 239.2668,459.2740 C239.7105,465.0181 241.2732,470.8467 244.2934,473.5497 C245.8773,472.0718 249.4455,469.4738 249.4455,469.4738 C249.4455,469.4738 245.0327,465.5459 243.8914,458.4502 C243.6592,457.0565 243.5535,455.5783 243.6384,453.9521 C243.6807,453.2132 243.9552,451.7772 244.0820,450.9749 C244.4411,451.6507 245.8555,453.0018 246.5733,453.6568 C248.7905,455.5998 252.0852,457.2257 253.3315,457.6270 C253.3734,457.6485 253.4372,457.6693 253.4583,457.6693 C254.9573,458.0921 249.0025,458.5347 249.0025,458.5347 C249.0025,458.5347 252.6556,463.4767 260.5960,465.3983 C260.8708,465.4614 254.2395,469.4107 240.5128,488.7335 C242.3712,486.6851 244.0394,484.9324 246.2777,483.3908 C248.7908,481.6804 254.7885,479.2095 254.7885,479.2095 C256.4570,477.7316 258.2943,476.6336 260.2792,475.9997 C257.2805,479.2095 255.4221,482.7361 254.2818,486.2418 C250.8821,496.8642 254.3033,507.3394 253.9862,508.3103 C253.5634,509.5986 258.7168,504.0236 258.7168,504.0236 C258.7168,504.0236 257.8295,506.7049 257.3651,510.7600 C256.6261,514.9630 256.2248,521.9098 259.0758,529.8509 C259.6674,531.5190 260.4067,533.2086 261.3141,534.9405 C260.9343,532.9972 260.7232,531.0962 260.6175,529.2807 C260.3007,524.1065 261.3990,514.7725 261.3779,514.7302 C263.7433,518.5312 267.9246,520.8756 273.2673,522.3326 L281.0178,515.0899 C279.7715,515.5537 274.5556,516.5040 271.7676,513.8644 C271.6200,514.6882 271.3247,514.8570 271.4297,516.0819 C271.4297,516.0819 266.3404,514.6882 266.8051,508.1838 C262.4125,501.9958 264.3340,500.1374 266.9528,501.0669 C265.7068,498.1531 261.4829,492.6412 262.3282,483.1166 C262.4125,482.0609 262.5598,480.9414 262.7927,479.7803 C262.7927,479.7803 263.0665,478.8719 263.8061,477.4360 C263.4474,478.2172 263.0038,481.8287 263.1514,482.7572 C265.1578,495.1963 276.0123,503.8330 275.8647,502.5236 C275.7167,501.1297 277.0476,499.6518 275.3368,497.9410 C277.3429,498.0890 279.3490,500.1796 281.8201,505.6072 C282.4957,507.0223 288.6622,511.5620 288.6622,511.5620 L288.7041,511.6889 L293.2868,514.8987 L285.7269,513.4627 C285.2404,513.3785 284.7548,513.4208 284.3118,513.6315 L281.0383,515.0896 L284.9454,515.9127 C285.5363,516.0396 286.0645,516.3138 286.4867,516.7363 L291.3652,521.5300 L285.3675,518.7635 L283.5937,518.2138 C282.8333,517.9822 282.0306,518.1088 281.3759,518.5524 L278.5251,520.4954 L281.7983,520.4313 C282.6010,520.4098 283.3823,520.7269 283.9313,521.3185 L286.3816,523.8525 L285.8320,526.6824 C285.6420,527.6119 285.7051,528.5408 286.0008,529.4489 L287.1628,533.1237 C287.3736,533.7996 287.8387,534.3694 288.4719,534.6862 L297.5949,539.5225 C298.5878,540.0504 299.7912,540.0504 300.7842,539.5225 L309.8226,534.7077 C310.4350,534.3691 310.9202,533.8207 311.1316,533.1449 L312.2931,529.4697 C312.5679,528.5828 312.6307,527.6327 312.4619,526.7032 L311.9129,523.8733 L315.2287,521.1491 C315.6294,520.8112 316.1367,520.6424 316.6643,520.6424 L319.5996,520.6638 L316.6226,518.6366 C316.0945,518.2776 315.4189,518.1930 314.8270,518.4464 L306.9504,521.5716 L311.8917,516.7151 C312.2716,516.3343 312.7572,516.0815 313.2639,515.9755 L317.2562,515.1309 L313.7290,513.5681 C313.4545,513.4413 313.1380,513.3993 312.8421,513.4621 L305.0068,514.9409 L309.4628,511.7305 L314.2572,511.0342 L314.5740,510.8650 C314.5948,510.8436 314.6790,510.7382 314.6790,510.7174 C315.0807,509.9986 314.5740,506.5569 315.1015,506.1344 C315.1015,506.1767 315.1015,506.2187 315.1015,506.2613 C315.7139,506.4089 318.5861,500.1790 323.2318,497.3280 C321.8388,499.1864 321.9228,501.0874 322.7463,502.0377 C330.5816,498.9971 333.8967,485.6076 334.2139,481.5952 C334.1508,481.5330 330.9618,468.4815 316.4116,462.7583 Z Z M294.5965,471.0155 C295.5260,468.5449 299.0740,466.6862 299.0740,466.6862 C299.0740,466.6862 302.4735,468.2282 303.4030,471.0155 C314.9337,472.0718 319.8965,478.2800 321.8603,482.4831 C320.8046,480.9622 309.6538,474.8806 299.0103,479.1676 C287.3957,473.4863 277.1962,482.9686 277.1962,482.9686 C280.8275,470.8044 295.1247,471.2691 294.5965,471.0155 Z Z M299.0740,495.6396 C293.7096,487.9942 281.2500,490.2755 276.8791,494.2879 C283.5523,484.0035 296.2653,485.2912 296.2653,485.2912 L299.0740,482.6519 C299.0740,482.6519 300.2560,484.0240 301.5234,485.4392 C302.6637,484.5096 315.6941,484.4677 322.2825,493.4641 C321.2690,491.9648 307.2041,486.7274 299.0740,495.6396 Z"
           style="fill-rule: evenodd; fill: #d71921; "
           id="path49" />
        <path
           d="  M283.1084,510.6331 L288.6625,511.6472 C288.2189,508.3734 280.7221,499.1873 273.7532,496.1672 C273.7532,496.1672 275.9496,500.7709 274.6184,501.2145 C273.2881,501.6364 267.7347,494.3084 266.6572,492.4929 C266.6572,492.4929 266.4249,496.3363 269.8038,500.2853 C272.8871,503.8968 278.0191,501.4256 283.1084,510.6331 Z"
           style="fill-rule: evenodd; fill: #ffffff; "
           id="path50" />
        <path
           d="  M314.6166,511.0137 L309.3793,511.6681 C310.3299,508.6056 318.4391,498.9545 323.9717,496.5474 C323.9717,496.5474 321.7754,501.1508 323.1060,501.5948 C324.4368,502.0172 329.6950,494.9846 330.7722,493.1480 C330.7722,493.1480 331.3000,496.7165 327.9211,500.6652 C324.8375,504.2764 319.7062,501.8062 314.6166,511.0137 Z"
           style="fill-rule: evenodd; fill: #ffffff; "
           id="path51" />
        <path
           d="  M271.6837,513.2311 C271.5985,513.1671 271.4935,513.0832 271.3881,512.9983 C271.3250,512.9560 271.2824,512.9140 271.2190,512.8503 C269.5931,511.4560 266.5303,507.9086 266.8894,501.1297 C266.8894,501.1297 265.6649,495.1749 262.7081,490.6345 C262.7081,490.6345 260.3849,503.4951 266.7206,508.2465 C266.7206,508.2465 265.7491,514.7513 271.3240,516.1450 C271.3240,516.1450 275.2526,517.6020 280.9969,515.0470 C279.8349,515.4906 274.6401,515.3634 271.6837,513.2311 Z"
           style="fill-rule: evenodd; fill: #ffffff; "
           id="path52" />
        <path
           d="  M356.0715,490.8245 C359.5132,497.7722 358.0353,503.9810 369.8617,514.5399 C369.2281,514.9627 367.4962,514.1171 366.6512,514.1171 C372.4379,520.7692 371.8040,530.6318 371.3818,533.2080 C370.3043,533.4191 367.0949,531.4976 366.0180,531.0539 C364.9414,530.6311 368.1720,543.9360 360.8652,555.2972 C359.9991,553.5868 358.9440,553.5868 358.5001,551.4331 C358.0356,551.6442 357.5075,551.9187 356.9581,552.2563 C350.0318,556.3322 337.5085,569.2991 332.5460,577.8301 C331.0467,577.1966 329.3362,576.1203 329.3362,576.1203 C329.3362,576.1203 328.6815,579.6889 326.1684,584.3983 C324.4788,587.5658 318.6716,592.9719 318.6716,592.9719 C319.3264,587.5873 322.2825,577.5563 321.6069,572.2555 C334.4887,567.1031 346.2942,553.5871 348.6385,550.1454 C346.9274,551.0109 344.1398,550.5673 343.4851,551.2220 C343.7599,550.9475 347.4764,547.2729 351.3835,542.4581 C355.2480,537.6852 359.3028,531.7938 360.4431,526.9780 C360.4431,526.9780 351.0036,514.7513 350.7919,504.0227 C350.6869,499.1870 349.2503,493.2524 346.7167,488.0154 C345.0690,484.5942 342.9364,481.4478 340.4233,479.1458 C351.8688,482.0814 356.0078,490.7188 356.0715,490.8245 Z"
           style="fill-rule: evenodd; fill: #ffffff; "
           id="path53" />
      </g>
      <g
         id="Layer1032">
        <g
           id="Layer1033">
          <path
             d="  M199.9669,476.0209 C199.9669,476.0209 202.2898,482.8210 201.8042,488.3751 C201.3397,493.7812 196.7991,499.4410 196.7991,499.4410 C196.7991,499.4410 204.5072,494.7524 204.7391,494.7104 C204.9928,494.6681 205.8375,485.0596 206.0063,484.8056 C206.1543,484.5529 200.7059,475.6615 200.7059,475.6615 L199.9669,476.0209 Z"
             style="fill-rule: evenodd; fill: #ffffff; "
             id="path54" />
          <path
             d="  M172.5558,520.4319 L169.5148,521.4031 L167.0862,523.6203 C167.0862,523.6203 171.3517,525.1625 173.9706,521.9944 C174.4561,521.4028 174.7941,520.8752 175.0263,520.3897 Z M172.5558,520.4319 L172.5558,520.4319 L172.5558,520.4319 Z"
             style="fill-rule: evenodd; fill: #d71921; "
             id="path55" />
          <path
             d="  M172.5558,520.4319 L171.1826,519.7141 L174.9625,517.3490 C174.9625,517.3490 176.0189,518.3205 175.0051,520.3897 C175.0055,520.3897 173.9702,520.8964 172.5558,520.4319 Z"
             style="fill-rule: evenodd; fill: #ffffff; "
             id="path56" />
          <path
             d="  M150.9514,546.9565 C152.6407,546.1115 161.3838,538.5090 160.7291,538.9104 C160.0533,539.3111 149.9588,542.6903 150.5712,542.4370 C151.1837,542.1833 158.6593,535.2358 158.6593,535.2358 L152.7038,534.5177 L140.7510,538.1923 C140.3496,540.0507 142.0815,543.9152 137.8157,549.1105 C139.3785,551.9193 145.0802,553.6932 145.0802,553.6932 C145.0802,553.6932 150.2541,554.0099 158.4267,549.2793 C159.1446,547.6115 160.2429,545.9427 161.8899,544.4225 C160.3492,545.3091 149.2622,547.8008 150.9514,546.9565 Z"
             style="fill-rule: evenodd; fill: #ffffff; "
             id="path57" />
          <path
             d="  M197.7491,471.4805 C193.0608,472.9165 191.9413,478.9350 191.7094,480.9622 C191.4557,482.9898 191.8571,485.6083 187.6963,490.6973 C193.3561,487.9100 200.3670,479.2938 200.4310,477.5199 C202.0989,479.8642 206.4284,483.5391 203.7888,493.7175 L209.5754,492.4084 C209.5540,492.3869 211.8772,480.6877 197.7491,471.4805 Z"
             style="fill-rule: evenodd; fill: #d71921; "
             id="path58" />
          <path
             d="  M150.6135,556.5224 C151.7119,558.7188 155.1750,563.8715 162.5030,565.3500 C158.1103,560.4084 157.7304,553.2700 157.7304,553.2700 C157.7304,553.2700 153.0001,556.2691 150.6135,556.5224 Z"
             style="fill-rule: evenodd; fill: #ffffff; "
             id="path59" />
          <path
             d="  M184.6348,588.2846 C182.9667,586.9534 179.1864,583.0466 179.2287,576.5848 C182.6499,581.2094 188.6688,582.8775 188.6688,582.8775 C188.6688,582.8775 187.0848,587.1863 184.6348,588.2846 Z"
             style="fill-rule: evenodd; fill: #ffffff; "
             id="path60" />
          <path
             d="  M190.0409,554.6640 L186.4936,562.1188 L186.7043,554.0516 C186.7043,554.0516 182.8610,556.4170 182.8610,565.6242 C182.8610,571.1998 184.4868,575.0851 188.9426,577.0499 C192.8917,575.6770 196.7357,567.6095 196.7357,567.6095 C191.1601,563.9141 190.0409,554.6640 190.0409,554.6640 Z"
             style="fill-rule: evenodd; fill: #d71921; "
             id="path61" />
          <path
             d="  M135.0076,539.9238 L133.3394,542.8594 L136.7180,547.6746 C138.7667,545.9638 138.7875,543.8309 139.0835,539.9033 C139.0835,539.9030 137.8160,539.7759 135.0076,539.9238 Z"
             style="fill-rule: evenodd; fill: #d71921; "
             id="path62" />
          <g
             id="Layer1034">
            <path
               d="  M210.9268,520.3897 C210.6104,525.6267 209.7020,535.4469 220.7045,543.4930 C216.5443,539.3322 212.9755,521.7625 220.8525,512.7664 C224.8649,508.1838 227.7153,494.7104 233.8610,488.5442 C234.1567,488.2482 234.4315,487.6989 234.4315,487.6989 C223.4706,493.5701 214.5171,499.4830 215.0876,498.5541 C216.5021,496.2514 222.1196,485.5449 231.0949,481.2162 C227.8845,481.2793 208.3298,487.8895 197.9605,497.8782 C198.1293,496.6111 197.7914,493.8443 198.8058,491.7329 C198.5521,491.8805 182.9032,497.9410 172.9991,506.6841 C173.0836,505.7126 173.9283,503.4112 174.3927,502.7565 C163.2848,506.5576 153.5495,520.8547 153.5495,520.8547 C153.5495,520.8547 154.1407,522.7554 154.1830,523.4732 C154.1407,523.4944 154.1196,523.5155 154.0773,523.5373 C153.6545,523.7900 152.9578,524.2756 152.9578,524.2756 C142.0610,531.4566 135.7677,538.4251 135.7677,538.4251 L140.7308,538.2140 L152.6202,534.5395 C154.1196,534.1385 162.1868,531.6257 163.3905,530.7592 C166.4527,536.7778 186.1560,540.2201 186.5567,540.0936 C181.1925,542.2477 174.8575,542.4379 174.2028,542.3960 L160.2016,549.3860 C160.2016,549.3860 175.9561,542.7547 189.6194,550.5474 C195.8068,554.6025 199.7350,558.6566 199.8404,563.9996 L200.6216,562.6694 C200.0092,555.9958 197.7078,550.5894 184.8677,544.0849 C184.8677,544.0849 194.5819,543.8739 203.6844,546.9360 C201.8887,542.2694 202.9448,532.6180 204.6978,527.0222 C207.8445,516.9486 204.8035,507.2767 200.4948,499.6531 C203.3666,502.2491 211.5181,510.8231 210.9268,520.3897 Z Z M173.7380,527.9921 C164.3191,525.7330 157.4770,527.4854 156.4210,527.9502 L169.5141,514.8356 L169.6407,518.7423 C173.1679,512.9352 173.9488,511.8795 180.0730,509.6405 C181.2354,515.1107 181.1502,521.5719 173.7380,527.9921 Z Z M196.7779,505.2904 C194.6655,507.6341 192.2792,513.7167 192.9346,516.3141 C186.7043,520.5588 186.3036,533.2294 186.3036,533.2294 C184.5509,528.3300 185.1841,516.6309 186.3664,514.0755 C187.5493,511.5412 198.8897,502.9253 196.7779,505.2904 Z"
               style="fill-rule: evenodd; fill: #d71921; "
               id="path63" />
          </g>
          <g
             id="Layer1035">
            <path
               d="  M215.9531,554.5372 C215.9531,554.5372 220.0289,553.8405 226.1955,558.4023 C224.2310,555.9945 222.6894,546.0478 222.6894,546.0478 C212.5745,550.3347 207.8227,531.8143 207.9701,529.7660 C207.9701,529.7660 204.2536,542.3735 211.0956,555.2972 C211.1379,555.4029 206.9150,551.2214 197.6645,549.3207 C197.6645,549.3207 209.7446,562.6678 200.3676,566.2155 C200.3676,566.2155 200.3676,566.2363 200.3894,566.2998 C205.9435,582.4339 194.2229,587.6501 194.2229,587.6501 L194.6876,580.1953 C193.2091,581.8221 192.9772,587.9457 185.5012,590.0578 C184.1704,593.3948 186.7046,597.4492 186.7046,597.4492 L188.3731,595.3585 C188.3731,595.3585 194.0111,599.2230 194.3705,599.6875 C196.6091,597.5337 205.0771,590.9028 209.6385,588.4316 C209.5537,586.1302 209.4066,578.8231 210.3144,574.2193 C212.7436,565.6239 218.2554,563.5336 221.9927,563.9980 C221.3169,561.6970 220.2400,556.9664 215.9531,554.5372 Z"
               style="fill-rule: evenodd; fill: #ffffff; "
               id="path64" />
          </g>
          <path
             d="  M156.3790,527.9921 C156.8012,521.2766 162.0811,513.4839 171.1403,508.7116 C169.5987,510.2533 168.5218,511.7315 168.6064,512.9986 C168.6064,512.9986 178.2780,502.2072 196.8196,502.2072 C176.9901,508.0569 169.5772,518.7852 169.5772,518.7852 L169.4510,514.8782 L156.3790,527.9921 Z"
             style="fill-rule: evenodd; fill: #ffffff; "
             id="path65" />
          <path
             d="  M156.3790,527.9921 C156.3790,527.9921 160.8982,524.7823 173.7380,527.9921 C173.7380,527.8864 165.9450,529.7663 165.9450,529.7663 C164.6570,528.5837 159.8422,527.5065 156.3790,527.9921 Z"
             style="fill-rule: evenodd; fill: #ffffff; "
             id="path66" />
          <path
             d="  M201.5294,521.5091 L192.9346,516.3138 C189.2594,517.9822 186.7681,522.7551 186.3036,533.2291 C186.3036,533.2294 190.2946,525.3522 201.5294,521.5091 Z"
             style="fill-rule: evenodd; fill: #ffffff; "
             id="path67" />
        </g>
        <path
           d="  M218.8461,557.1771 C218.8461,557.1771 229.2784,560.6198 231.8338,566.1947 C239.2467,567.3990 254.3039,578.2949 257.0912,584.7571 C257.0912,584.7571 257.1755,572.2984 235.4033,561.0205 C235.4033,561.0205 225.1606,556.0157 222.6689,546.0689 C222.6689,546.0689 217.4524,553.6714 214.4534,552.9318 C213.1235,552.6150 207.9919,560.6399 216.7557,562.5826 C216.1853,560.8517 221.4015,558.9939 218.8461,557.1771 Z"
           style="fill-rule: evenodd; fill: #ffffff; "
           id="path68" />
      </g>
      <g
         id="Layer1036">
        <g
           id="Layer1037">
          <path
             d="  M395.3513,476.0209 C395.3513,476.0209 393.0281,482.8210 393.5137,488.3751 C393.9785,493.7812 398.5194,499.4410 398.5194,499.4410 C398.5194,499.4410 390.8106,494.7524 390.5787,494.7104 C390.3254,494.6681 389.4810,485.0596 389.3116,484.8056 C389.1636,484.5529 394.6123,475.6615 394.6123,475.6615 L395.3513,476.0209 Z"
             style="fill-rule: evenodd; fill: #ffffff; "
             id="path69" />
          <path
             d="  M422.7624,520.4319 L425.8031,521.4031 L428.2317,523.6203 C428.2317,523.6203 423.9658,525.1625 421.3473,521.9944 C420.8617,521.4028 420.5235,520.8752 420.2916,520.3897 Z M422.7624,520.4319 L422.7624,520.4319 L422.7624,520.4319 Z"
             style="fill-rule: evenodd; fill: #d71921; "
             id="path70" />
          <path
             d="  M422.7624,520.4319 L424.1343,519.7141 L420.3544,517.3490 C420.3544,517.3490 419.2986,518.3205 420.3121,520.3897 C420.3124,520.3897 421.3473,520.8964 422.7624,520.4319 Z"
             style="fill-rule: evenodd; fill: #ffffff; "
             id="path71" />
          <path
             d="  M444.3658,546.9565 C442.6762,546.1115 433.9334,538.5090 434.5881,538.9104 C435.2646,539.3111 445.3584,542.6903 444.7457,542.4370 C444.1339,542.1833 436.6579,535.2358 436.6579,535.2358 L442.6134,534.5177 L454.5659,538.1923 C454.9676,540.0507 453.2357,543.9152 457.5018,549.1105 C455.9388,551.9193 450.2373,553.6932 450.2373,553.6932 C450.2373,553.6932 445.0628,554.0099 436.8908,549.2793 C436.1724,547.6115 435.0743,545.9427 433.4270,544.4225 C434.9686,545.3091 446.0554,547.8008 444.3658,546.9565 Z"
             style="fill-rule: evenodd; fill: #ffffff; "
             id="path72" />
          <path
             d="  M397.5688,471.4805 C402.2564,472.9165 403.3756,478.9350 403.6085,480.9622 C403.8615,482.9898 403.4605,485.6083 407.6206,490.6973 C401.9611,487.9100 394.9499,479.2938 394.8868,477.5199 C393.2184,479.8642 388.8891,483.5391 391.5291,493.7175 L385.7421,492.4084 C385.7632,492.3869 383.4401,480.6877 397.5688,471.4805 Z"
             style="fill-rule: evenodd; fill: #d71921; "
             id="path73" />
          <path
             d="  M444.7037,556.5224 C443.6054,558.7188 440.1419,563.8715 432.8143,565.3500 C437.2069,560.4084 437.5871,553.2700 437.5871,553.2700 C437.5871,553.2700 442.3174,556.2691 444.7037,556.5224 Z"
             style="fill-rule: evenodd; fill: #ffffff; "
             id="path74" />
          <path
             d="  M410.6824,588.2846 C412.3506,586.9534 416.1315,583.0466 416.0885,576.5848 C412.6673,581.2094 406.6488,582.8775 406.6488,582.8775 C406.6488,582.8775 408.2330,587.1863 410.6824,588.2846 Z"
             style="fill-rule: evenodd; fill: #ffffff; "
             id="path75" />
          <path
             d="  M405.2763,554.6640 L408.8246,562.1188 L408.6126,554.0516 C408.6126,554.0516 412.4569,556.4170 412.4569,565.6242 C412.4569,571.1998 410.8301,575.0851 406.3743,577.0499 C402.4252,575.6770 398.5819,567.6095 398.5819,567.6095 C404.1571,563.9141 405.2763,554.6640 405.2763,554.6640 Z"
             style="fill-rule: evenodd; fill: #d71921; "
             id="path76" />
          <path
             d="  M460.3100,539.9238 L461.9778,542.8594 L458.5992,547.6746 C456.5502,545.9638 456.5294,543.8309 456.2341,539.9033 C456.2344,539.9030 457.5015,539.7759 460.3100,539.9238 Z"
             style="fill-rule: evenodd; fill: #d71921; "
             id="path77" />
          <g
             id="Layer1038">
            <path
               d="  M384.3904,520.3897 C384.7072,525.6267 385.6156,535.4469 374.6134,543.4930 C378.7739,539.3322 382.3424,521.7625 374.4657,512.7664 C370.4526,508.1838 367.6016,494.7104 361.4572,488.5442 C361.1612,488.2482 360.8864,487.6989 360.8864,487.6989 C371.8463,493.5701 380.8007,499.4830 380.2303,498.5541 C378.8152,496.2514 373.1980,485.5449 364.2227,481.2162 C367.4325,481.2793 386.9881,487.8895 397.3567,497.8782 C397.1876,496.6111 397.5255,493.8443 396.5121,491.7329 C396.7651,491.8805 412.4137,497.9410 422.3185,506.6841 C422.2336,505.7126 421.3890,503.4112 420.9242,502.7565 C432.0324,506.5576 441.7681,520.8547 441.7681,520.8547 C441.7681,520.8547 441.1976,522.7554 441.1345,523.4732 C441.1768,523.4944 441.1976,523.5155 441.2396,523.5373 C441.6624,523.7900 442.3587,524.2756 442.3587,524.2756 C453.2562,531.4566 459.5496,538.4251 459.5496,538.4251 L454.5867,538.2140 L442.6967,534.5395 C441.1976,534.1385 433.1304,531.6257 431.9267,530.7592 C428.8646,536.7778 409.1619,540.2201 408.7603,540.0936 C414.1247,542.2477 420.4601,542.4379 421.1141,542.3960 L435.1160,549.3860 C435.1160,549.3860 419.3617,542.7547 405.6988,550.5474 C399.5108,554.6025 395.5832,558.6566 395.4772,563.9996 L394.6956,562.6694 C395.3080,555.9958 397.6101,550.5894 410.4502,544.0849 C410.4502,544.0849 400.7359,543.8739 391.6338,546.9360 C393.4285,542.2694 392.3734,532.6180 390.6200,527.0222 C387.4737,516.9486 390.5143,507.2767 394.8221,499.6531 C391.9717,502.2491 383.7995,510.8231 384.3904,520.3897 Z Z M421.5792,527.9921 C430.9985,525.7330 437.8405,527.4854 438.8956,527.9502 L425.8025,514.8356 L425.6756,518.7423 C422.1494,512.9352 421.3681,511.8795 415.2436,509.6405 C414.0828,515.1107 414.1667,521.5719 421.5792,527.9921 Z Z M398.5399,505.2904 C400.6517,507.6341 403.0380,513.7167 402.3833,516.3141 C408.6129,520.5588 409.0146,533.2294 409.0146,533.2294 C410.7673,528.3300 410.1337,516.6309 408.9515,514.0755 C407.7686,511.5412 396.4278,502.9253 398.5399,505.2904 Z"
               style="fill-rule: evenodd; fill: #d71921; "
               id="path78" />
          </g>
          <g
             id="Layer1039">
            <path
               d="  M379.3651,554.5372 C379.3651,554.5372 375.2886,553.8405 369.1224,558.4023 C371.0862,555.9945 372.6281,546.0478 372.6281,546.0478 C382.7437,550.3347 387.4955,531.8143 387.3475,529.7660 C387.3475,529.7660 391.0640,542.3735 384.2219,555.2972 C384.1797,555.4029 388.4038,551.2214 397.6530,549.3207 C397.6530,549.3207 385.5736,562.6678 394.9499,566.2155 C394.9499,566.2155 394.9499,566.2363 394.9288,566.2998 C389.3747,582.4339 401.0953,587.6501 401.0953,587.6501 L400.6309,580.1953 C402.1088,581.8221 402.3416,587.9457 409.8173,590.0578 C411.1475,593.3948 408.6132,597.4492 408.6132,597.4492 L406.9454,595.3585 C406.9454,595.3585 401.3071,599.2230 400.9480,599.6875 C398.7097,597.5337 390.2405,590.9028 385.6793,588.4316 C385.7639,586.1302 385.9115,578.8231 385.0032,574.2193 C382.5752,565.6239 377.0628,563.5336 373.3254,563.9980 C374.0007,561.6970 375.0782,556.9664 379.3651,554.5372 Z"
               style="fill-rule: evenodd; fill: #ffffff; "
               id="path79" />
          </g>
          <path
             d="  M438.9388,527.9921 C438.5160,521.2766 433.2368,513.4839 424.1772,508.7116 C425.7182,510.2533 426.7957,511.7315 426.7115,512.9986 C426.7115,512.9986 417.0386,502.2072 398.4970,502.2072 C418.3278,508.0569 425.7394,518.7852 425.7394,518.7852 L425.8662,514.8782 L438.9388,527.9921 Z"
             style="fill-rule: evenodd; fill: #ffffff; "
             id="path80" />
          <path
             d="  M438.9388,527.9921 C438.9388,527.9921 434.4190,524.7823 421.5792,527.9921 C421.5792,527.8864 429.3716,529.7663 429.3716,529.7663 C430.6609,528.5837 435.4754,527.5065 438.9388,527.9921 Z"
             style="fill-rule: evenodd; fill: #ffffff; "
             id="path81" />
          <path
             d="  M393.7882,521.5091 L402.3830,516.3138 C406.0575,517.9822 408.5498,522.7551 409.0143,533.2291 C409.0143,533.2294 405.0232,525.3522 393.7882,521.5091 Z"
             style="fill-rule: evenodd; fill: #ffffff; "
             id="path82" />
        </g>
        <path
           d="  M376.4712,557.1771 C376.4712,557.1771 366.0388,560.6198 363.4834,566.1947 C356.0712,567.3990 341.0143,578.2949 338.2263,584.7571 C338.2263,584.7571 338.1414,572.2984 359.9146,561.0205 C359.9146,561.0205 370.1570,556.0157 372.6486,546.0689 C372.6486,546.0689 377.8651,553.6714 380.8638,552.9318 C382.1947,552.6150 387.3260,560.6399 378.5621,562.5826 C379.1323,560.8517 373.9158,558.9939 376.4712,557.1771 Z"
           style="fill-rule: evenodd; fill: #ffffff; "
           id="path83" />
      </g>
    </g>
  </g>
</svg>
