<?xml version="1.0" encoding="UTF-8" standalone="no"?>
<svg
   version="1.1"
   width="6.1184in"
   height="9.5365in"
   viewBox="0 0 440.5243 686.6311"
   id="svg194"
   sodipodi:docname="Kolkata Knight Riders (KKR) copy.cdr"
   xmlns:inkscape="http://www.inkscape.org/namespaces/inkscape"
   xmlns:sodipodi="http://sodipodi.sourceforge.net/DTD/sodipodi-0.dtd"
   xmlns:xlink="http://www.w3.org/1999/xlink"
   xmlns="http://www.w3.org/2000/svg"
   xmlns:svg="http://www.w3.org/2000/svg">
  <defs
     id="defs194" />
  <sodipodi:namedview
     id="namedview194"
     pagecolor="#ffffff"
     bordercolor="#000000"
     borderopacity="0.25"
     inkscape:showpageshadow="2"
     inkscape:pageopacity="0.0"
     inkscape:pagecheckerboard="0"
     inkscape:deskcolor="#d1d1d1"
     inkscape:document-units="in" />
  <g
     id="Layer1000">
    <g
       id="Layer1001">
      <g
         id="Layer1002">
        <g
           id="Layer1003">
          <defs
             id="defs23">
            <linearGradient
               id="grad1">
              <stop
                 offset="0.0000%"
                 stop-color="#f2bf28"
                 stop-opacity="1.0000"
                 id="stop1" />
              <stop
                 offset="6.0000%"
                 stop-color="#f2bf28"
                 stop-opacity="1.0000"
                 id="stop2" />
              <stop
                 offset="10.0000%"
                 stop-color="#f2c12b"
                 stop-opacity="1.0000"
                 id="stop3" />
              <stop
                 offset="14.0000%"
                 stop-color="#f2c636"
                 stop-opacity="1.0000"
                 id="stop4" />
              <stop
                 offset="18.0000%"
                 stop-color="#f4cd48"
                 stop-opacity="1.0000"
                 id="stop5" />
              <stop
                 offset="21.0000%"
                 stop-color="#f7d862"
                 stop-opacity="1.0000"
                 id="stop6" />
              <stop
                 offset="24.0000%"
                 stop-color="#fbe682"
                 stop-opacity="1.0000"
                 id="stop7" />
              <stop
                 offset="27.0000%"
                 stop-color="#fff6aa"
                 stop-opacity="1.0000"
                 id="stop8" />
              <stop
                 offset="28.0000%"
                 stop-color="#fff9ae"
                 stop-opacity="1.0000"
                 id="stop9" />
              <stop
                 offset="40.0000%"
                 stop-color="#f9e277"
                 stop-opacity="1.0000"
                 id="stop10" />
              <stop
                 offset="52.0000%"
                 stop-color="#f6cf4d"
                 stop-opacity="1.0000"
                 id="stop11" />
              <stop
                 offset="62.0000%"
                 stop-color="#f2c331"
                 stop-opacity="1.0000"
                 id="stop12" />
              <stop
                 offset="67.0000%"
                 stop-color="#f2bf28"
                 stop-opacity="1.0000"
                 id="stop13" />
              <stop
                 offset="70.0000%"
                 stop-color="#f4c638"
                 stop-opacity="1.0000"
                 id="stop14" />
              <stop
                 offset="76.0000%"
                 stop-color="#f7da64"
                 stop-opacity="1.0000"
                 id="stop15" />
              <stop
                 offset="83.0000%"
                 stop-color="#fff7ac"
                 stop-opacity="1.0000"
                 id="stop16" />
              <stop
                 offset="84.0000%"
                 stop-color="#fff9ae"
                 stop-opacity="1.0000"
                 id="stop17" />
              <stop
                 offset="85.0000%"
                 stop-color="#fbed93"
                 stop-opacity="1.0000"
                 id="stop18" />
              <stop
                 offset="88.0000%"
                 stop-color="#f9dd6d"
                 stop-opacity="1.0000"
                 id="stop19" />
              <stop
                 offset="91.0000%"
                 stop-color="#f6d14f"
                 stop-opacity="1.0000"
                 id="stop20" />
              <stop
                 offset="94.0000%"
                 stop-color="#f4c638"
                 stop-opacity="1.0000"
                 id="stop21" />
              <stop
                 offset="97.0000%"
                 stop-color="#f2c12b"
                 stop-opacity="1.0000"
                 id="stop22" />
              <stop
                 offset="100.0000%"
                 stop-color="#f2bf28"
                 stop-opacity="1.0000"
                 id="stop23" />
            </linearGradient>
            <linearGradient
               xlink:href="#grad1"
               id="grad2"
               x1="0"
               y1="0"
               x2="0"
               y2="1"
               gradientTransform="rotate(249 .5 .5)"
               gradientUnits="objectBoundingBox" />
          </defs>
          <path
             d="  M256.1364,172.0438 L281.4029,228.9414 C282.9458,229.1344 284.4887,229.1344 285.0677,229.1344 C285.2607,229.1344 285.4531,229.1344 285.4531,229.1344 L259.0297,169.7289 C257.4868,171.4648 256.1364,172.0438 256.1364,172.0438 Z Z M245.9142,146.7772 L245.9142,146.7772 C242.8279,146.7772 222.9619,148.5131 222.9619,148.5131 L224.3123,151.4058 C224.3123,151.4058 242.6354,150.0559 247.0716,149.6700 C247.6500,149.6700 248.0355,149.6700 248.6145,149.6700 C253.2431,149.6700 255.3649,151.2134 255.3649,151.2134 C254.0151,147.9341 249.3859,146.7772 246.1072,146.5842 C246.1072,146.7772 245.9142,146.7772 245.9142,146.7772 Z Z M202.7111,222.5763 L202.7111,222.5763 C213.7047,230.4842 225.4692,235.8848 236.8489,239.5496 C236.6564,239.5496 236.4634,239.5496 236.2704,239.5496 C230.6768,239.5496 224.8908,239.5496 219.1053,239.7426 C204.2539,240.1280 189.5956,241.0924 175.3226,242.6353 C188.6311,236.4633 197.8889,227.7839 202.7111,222.5763 Z Z M147.7418,239.5496 L147.7418,239.5496 C166.6433,237.0423 180.1448,227.9769 188.4381,220.6480 C195.5746,214.4760 199.8178,208.6894 201.1676,206.3751 C203.8679,208.4970 206.3752,210.4253 209.0755,212.3541 C222.9619,221.9979 237.6203,227.7839 250.7358,231.0632 C266.1661,235.1134 279.4741,235.8848 287.7680,235.8848 C288.7324,235.8848 289.6963,235.8848 290.6607,235.8848 L292.7826,240.8994 C292.7826,240.8994 290.0823,241.0924 285.6461,241.0924 C270.2163,241.0924 232.2202,238.3921 202.1321,214.2830 C202.1321,214.2830 181.8807,241.4784 145.8129,245.1426 L147.7418,239.5496 Z Z M159.5068,205.4107 L159.5068,205.4107 C159.5068,205.4107 177.4445,198.2742 189.2096,175.7079 C203.2895,148.3201 219.4902,133.2757 252.4717,133.2757 L284.2962,178.6012 L270.2163,179.9517 C270.2163,179.9517 265.0087,155.2635 248.6145,155.2635 C248.0355,155.2635 247.4570,155.2635 246.8786,155.2635 C244.1783,155.4565 225.6622,156.8064 225.2768,156.9994 C225.2768,156.9994 228.5555,169.3435 241.4780,171.6578 C243.0209,171.8508 244.3713,172.0438 245.7212,172.0438 C255.5579,172.0438 259.9941,165.4857 259.9941,165.4857 L289.6963,232.0277 C289.1178,232.0277 288.5394,232.0277 287.7680,232.0277 C271.5662,232.0277 233.9561,228.7484 201.7466,202.3249 L200.7822,201.5535 L200.2038,202.5179 C200.0108,202.9034 183.0375,230.0988 148.5132,235.3064 L159.5068,205.4107 Z Z M156.0351,193.8386 L156.0351,193.8386 C154.8782,189.0164 153.5278,180.3371 153.5278,170.6933 C153.5278,156.9994 156.8071,138.0979 171.6579,126.1398 C184.7734,115.7246 199.4318,112.8313 211.0044,112.8313 C213.8977,112.8313 216.5980,113.0243 219.1053,113.2168 C229.5199,114.3742 237.6203,117.2675 241.0920,118.6174 L248.0355,129.8040 C248.0355,129.8040 243.5999,129.9970 232.9917,131.7328 C226.4337,132.8903 219.2977,135.0116 211.9688,139.8337 C204.4469,144.8483 196.5390,152.7562 189.2096,165.4857 C187.6667,168.1860 186.1238,170.8863 184.7734,173.9721 C175.9011,192.1027 159.8928,200.3961 159.8928,200.3961 L156.0351,193.8386 Z Z M130.5761,59.9839 L130.5761,59.9839 C120.3534,55.7407 113.9889,50.7256 106.6594,45.1325 C101.0664,40.6964 95.2798,36.2602 87.5649,31.8240 C80.4284,27.7739 72.9065,25.8450 65.3846,25.8450 L65.1916,25.8450 C48.6044,25.8450 32.7886,39.7319 32.7886,39.7319 C32.7886,39.7319 54.0050,41.8538 64.8056,48.6043 C54.5834,48.7972 53.4265,57.4766 53.4265,57.4766 L59.5980,60.9483 C73.6780,69.6276 67.8919,73.0994 62.2983,73.0994 C60.5625,73.0994 59.0196,72.9064 57.8622,72.3279 L42.0469,64.2271 C42.0469,64.2271 50.1473,93.3508 69.4348,95.2797 L64.9986,99.5228 C64.9986,99.5228 98.7515,105.3094 109.3597,115.9171 C116.6892,123.2465 120.7393,130.5754 115.5317,132.8903 C114.7603,133.2757 113.9889,133.2757 113.4104,133.2757 C109.7457,133.2757 105.5025,129.9970 102.4163,126.3323 C98.1731,121.3176 94.8943,111.2884 94.8943,111.2884 C88.5293,123.6320 93.5439,137.1334 93.5439,137.1334 C96.2442,145.0413 102.2233,156.0350 116.6892,162.0140 C128.6472,167.0286 132.5044,170.1149 135.3977,173.0082 C147.5488,186.1231 154.1068,202.7104 154.1068,202.7104 L139.2554,242.8283 L137.3266,248.4219 C104.5381,254.4009 74.2569,263.4657 48.6044,274.8453 L29.3169,283.7177 L40.6965,318.8210 C27.9670,326.7283 13.5016,339.2654 9.4509,356.0451 C6.9436,366.2673 8.6795,376.2965 14.4655,385.1688 C19.4807,393.0767 27.0026,398.6703 36.0679,401.5630 L29.7029,435.5089 C14.0801,445.7311 4.4363,457.8822 1.1576,470.6122 C0.3861,473.5050 0.0001,476.3983 0.0001,479.0986 L0.0001,480.2560 C0.1931,487.0065 2.1220,493.5640 5.9792,499.5430 C10.8013,506.8724 17.9378,512.4660 26.2311,515.3588 L21.0235,543.1326 L21.9880,544.8685 C22.1809,545.4470 27.9670,557.0196 38.5752,568.5922 C49.7618,580.7433 66.7345,590.0010 75.9928,594.6302 C74.6424,598.1019 72.5211,603.6950 73.2925,634.1691 L74.6424,682.7734 L110.9026,650.1779 C111.0956,649.9849 123.2466,639.1837 142.9196,624.7184 C149.2846,631.6618 162.0141,644.7773 175.9011,655.7710 C195.3816,671.2013 217.3694,681.2305 219.8762,682.3880 C229.3269,686.6311 229.3269,686.6311 230.6768,686.6311 L232.7987,686.6311 L234.3416,685.4737 C247.8430,675.4445 277.1598,649.0205 278.5097,647.8631 L305.7051,622.2111 L322.2923,605.4308 L340.6154,585.7579 L359.9029,563.1916 L375.3327,542.9397 L363.7601,540.0469 L383.0476,535.2248 L381.8902,524.2311 L387.2908,525.1955 L395.7771,512.4660 C400.9847,504.9436 412.7504,484.4992 417.9580,470.4193 L421.0437,461.7399 L419.3078,457.1108 L425.0939,444.1883 C433.0018,426.4442 438.4024,399.6347 429.9160,378.0323 L424.7084,364.7244 C431.4589,356.8165 433.3878,346.2083 434.9306,337.5295 L440.5242,308.0198 C440.5242,308.0198 406.5778,311.4915 404.4565,311.8775 C404.4565,311.6845 404.2635,311.6845 404.2635,311.4915 C403.2990,310.1416 402.1416,308.9842 400.7917,307.8268 L406.7713,270.6022 L391.9194,265.0091 C365.8814,255.1724 335.0218,248.0359 301.8473,243.9857 L299.1471,238.1991 L275.8094,185.9307 L295.6753,184.1948 L255.9434,127.6827 L240.5136,103.3805 C240.5136,103.3805 237.6203,102.2231 235.8844,101.6447 C236.2704,99.7158 244.3708,54.3903 206.7612,32.2100 C198.6603,27.5809 190.9454,24.4951 183.6160,22.3733 C183.6160,22.3733 179.1798,20.8304 171.0795,19.8660 C167.0288,19.2875 162.5926,19.0945 158.3494,19.0945 C146.1984,19.0945 133.8548,20.8304 127.4898,22.1803 C121.3178,17.7441 110.3241,0.0000 110.3241,0.0000 C110.3241,0.0000 106.8524,38.1891 130.5761,59.9839 Z"
             style="fill: url(#grad2); "
             id="path23" />
        </g>
      </g>
    </g>
    <g
       id="Layer1004">
      <g
         id="Layer1005">
        <g
           id="Layer1006">
          <path
             d="  M84.6721,591.9299 C82.5503,594.2442 81.9718,595.7871 81.5859,596.7515 C80.4284,599.2594 78.5001,604.0810 79.2715,633.9767 L80.2360,669.2725 L106.4664,645.7418 C106.6594,645.5488 120.9323,632.8193 143.4986,616.6180 C146.3914,619.7038 162.0141,637.2554 179.3728,651.1424 C198.6603,666.5722 221.0336,676.4089 221.9975,676.9874 L230.2914,680.6515 C243.5999,670.6223 273.8810,643.4275 273.8810,643.4275 L257.1008,634.3621 L284.2962,633.7837 L293.5540,625.1044 L276.1953,618.9318 L302.4263,616.6175 L312.2625,606.5883 L288.9248,600.4162 L319.0136,599.6448 L328.6573,589.4221 L302.6193,582.2861 L335.2148,581.9002 L347.7519,567.6278 L312.2625,560.4913 L353.7309,560.4913 L364.1461,547.1828 L337.7221,540.6253 L375.7182,531.1746 L374.3683,517.4801 L383.8191,519.0235 L390.1835,509.3798 C395.0057,502.2433 406.7713,481.9913 411.5929,468.6834 L413.9072,462.3184 L411.0145,456.1463 C410.2431,454.4105 409.4711,452.8676 408.6996,451.3247 L414.6787,451.1317 L418.7294,441.6810 C426.0583,425.0937 431.2659,400.0202 423.3580,380.3466 L416.8005,363.3740 C424.3224,356.6235 426.4443,346.2083 428.1802,336.3721 L432.2303,314.9633 L410.4355,317.2776 C407.1568,317.6636 403.8780,318.0490 400.7917,318.6274 C400.2133,317.4706 399.4419,316.3131 398.6704,315.3487 C397.1276,313.4198 395.3917,311.8770 393.2698,310.5271 L399.0559,274.4593 L388.8337,270.6022 C346.9799,254.7864 292.5896,245.9140 235.6920,245.9140 C230.0984,245.9140 224.3123,245.9140 218.7193,246.1070 C155.4567,248.0359 95.6658,260.1870 50.3403,280.6314 L36.0679,287.1894 L47.2545,321.7137 C47.0615,321.7137 47.0615,321.9067 46.8685,321.9067 C34.3320,329.0426 18.5162,341.1937 14.4655,357.5879 C12.3442,366.2673 13.8871,374.5606 18.5162,381.8901 C23.7238,389.9904 32.2102,395.3910 42.0469,396.9339 L34.1390,439.1737 C22.5664,446.3096 9.6439,457.4962 6.1722,471.9621 C4.0503,480.4485 5.5937,488.7418 10.2223,496.0713 C15.2375,503.7862 23.1448,508.9938 32.4032,510.7296 L26.6171,542.1682 C26.6171,542.1682 32.0172,553.3549 42.2394,564.3485 C57.4767,580.5503 84.6721,591.9299 84.6721,591.9299 Z"
             style="fill-rule: evenodd; fill: #3a215d; "
             id="path24" />
        </g>
      </g>
      <g
         id="Layer1007">
        <g
           id="Layer1008">
          <path
             d="  M84.6721,86.0219 C101.2588,77.7280 110.5171,73.8708 111.8670,73.6778 C113.2174,73.6778 93.9299,69.8201 84.6721,61.5268 C74.4494,52.2690 63.4558,54.5833 62.4913,55.7407 C62.4913,55.7407 79.0786,65.1915 74.6424,74.2563 C69.0493,85.4429 54.5834,77.9210 54.5834,77.9210 C54.5834,77.9210 63.4558,96.8225 84.6721,86.0219 Z"
             style="fill-rule: evenodd; fill: #3a215d; "
             id="path25" />
        </g>
      </g>
      <g
         id="Layer1009">
        <g
           id="Layer1010">
          <path
             d="  M138.8694,69.2417 C111.0956,61.3338 104.9236,48.4113 84.6721,37.2246 C64.4202,26.0380 49.1828,36.2602 49.1828,36.2602 C67.5059,39.3465 76.5712,49.7617 94.1229,61.3338 C111.6740,73.0994 138.8694,69.2417 138.8694,69.2417 Z"
             style="fill-rule: evenodd; fill: #3a215d; "
             id="path26" />
        </g>
      </g>
      <g
         id="Layer1011">
        <g
           id="Layer1012">
          <path
             d="  M150.8275,130.5754 C150.8275,130.5754 156.2281,120.3532 165.2934,114.1812 C165.2934,114.1812 164.5220,113.6027 162.9786,112.4453 C158.3500,109.3596 147.5488,102.6091 135.5907,99.1374 C135.5907,99.1374 151.7919,97.0155 175.5156,103.9590 C176.0941,104.1520 176.6731,104.3450 177.4445,104.5374 C177.4445,104.5374 182.2661,100.2943 201.5536,98.5584 C215.2476,97.4015 226.2412,100.8732 226.2412,100.8732 C226.2412,100.8732 226.0482,100.2943 225.4692,99.1374 C221.9975,92.1939 206.3752,66.5414 168.9576,68.2772 C168.9576,68.2772 181.6877,72.1349 185.9308,85.6359 C185.9308,85.6359 169.1506,73.8708 132.6974,75.7997 C96.2442,77.7280 77.1497,96.2441 77.1497,96.2441 C77.1497,96.2441 95.6658,100.4873 109.7457,105.3094 C126.9114,111.2884 145.0415,125.7538 149.0916,129.0326 C149.6706,129.4185 149.8631,129.8040 149.8631,129.8040 L150.8275,130.5754 Z"
             style="fill-rule: evenodd; fill: #3a215d; "
             id="path27" />
        </g>
      </g>
      <g
         id="Layer1013">
        <g
           id="Layer1014">
          <path
             d="  M151.2135,71.7490 C151.2135,71.7490 157.5785,64.4200 176.2871,64.2271 C188.0521,64.0341 201.7466,70.2061 201.7466,70.2061 C200.2038,54.9693 190.3670,46.2899 190.3670,46.2899 C213.5117,52.0760 215.0546,78.8854 215.4406,79.2714 C223.3479,85.0574 229.5199,99.7158 229.5199,99.7158 C229.5199,99.7158 237.6203,56.8976 203.2895,36.8386 C173.5868,19.4800 145.8129,25.0736 145.8129,25.0736 C145.8129,25.0736 158.5424,27.0024 167.6077,35.2958 C176.6731,43.5896 173.5868,57.2836 156.4211,52.8474 C139.4484,48.4113 117.6536,19.8660 117.6536,19.8660 C120.3534,47.4468 151.2135,71.7490 151.2135,71.7490 Z"
             style="fill-rule: evenodd; fill: #3a215d; "
             id="path28" />
        </g>
      </g>
      <g
         id="Layer1015">
        <g
           id="Layer1016">
          <path
             d="  M146.0059,135.0116 C146.0059,134.8191 146.1989,134.8191 146.1989,134.6261 C146.3914,134.2401 146.5843,133.8547 146.7773,133.2757 C146.5843,133.0833 130.1901,116.3030 112.4460,111.6739 C112.4460,111.6739 126.7184,124.5964 123.6326,133.0833 C119.1965,145.2343 100.4874,135.9760 97.4016,127.4897 C97.4016,127.4897 98.3661,147.5486 118.8105,156.2280 C129.6117,160.6641 135.9762,164.9073 138.6765,168.1860 C140.0269,169.7289 140.6053,170.8863 140.6053,170.8863 C140.6053,170.8863 139.0624,149.8629 146.0059,135.0116 Z"
             style="fill-rule: evenodd; fill: #3a215d; "
             id="path29" />
        </g>
      </g>
      <g
         id="Layer1017">
        <g
           id="Layer1018">
          <path
             d="  M151.4065,167.6076 C151.4065,147.1627 157.9640,131.1544 170.3080,121.5106 C187.2807,108.0092 206.3752,106.8523 219.2977,108.2022 C227.9771,109.1666 235.1130,111.2884 239.3562,112.8313 L236.2704,107.8167 C236.2704,107.8167 200.5892,92.7724 170.3080,114.3742 C148.7062,129.8040 143.4986,157.9638 148.7062,178.0228 L152.9494,185.3517 C151.9849,180.3371 151.4065,174.3581 151.4065,167.6076 Z"
             style="fill-rule: evenodd; fill: #3a215d; "
             id="path30" />
        </g>
      </g>
      <g
         id="Layer1019">
        <g
           id="Layer1020">
          <path
             d="  M241.0920,118.6174 C237.6203,117.2675 229.3269,114.3742 219.1053,113.2168 C206.5682,111.8669 188.0521,113.0243 171.6579,126.1398 C156.8071,138.0979 153.5278,156.9994 153.5278,170.6933 C153.5278,180.3371 155.0707,188.8234 156.0351,193.8386 L159.8928,200.5891 C159.8928,200.5891 175.9011,192.2952 184.7734,174.1651 C200.3962,141.9551 218.1409,134.6261 232.9917,131.9258 C243.7923,129.9970 248.2285,129.8040 248.2285,129.8040 L241.0920,118.6174 Z"
             style="fill-rule: evenodd; fill: #3a215d; "
             id="path31" />
        </g>
      </g>
      <g
         id="Layer1021">
        <g
           id="Layer1022">
          <path
             d="  M290.4683,236.0778 C276.0023,236.4633 235.6920,234.5350 201.1676,206.5681 C199.6248,208.8824 195.3816,214.6690 188.4381,220.8405 C180.3372,227.9769 166.6433,237.0423 147.7418,239.7426 L145.8129,245.1426 C181.6877,241.4784 202.1321,214.2830 202.1321,214.2830 C241.0920,245.5286 292.7826,240.8994 292.7826,240.8994 L290.4683,236.0778 Z"
             style="fill-rule: evenodd; fill: #3a215d; "
             id="path32" />
        </g>
      </g>
      <g
         id="Layer1023">
        <g
           id="Layer1024">
          <path
             d="  M259.8011,165.2928 C259.8011,165.2928 254.2075,173.7796 241.2850,171.4648 C228.3625,169.1505 225.0838,156.8064 225.0838,156.8064 C225.4692,156.8064 243.9853,155.4565 246.6856,155.0705 C264.4303,153.3347 270.0233,179.5657 270.0233,179.5657 L284.1032,178.2158 L252.2792,132.8903 C219.2977,132.8903 203.0965,148.1271 189.0166,175.3225 C177.2515,197.8888 159.3144,205.0252 159.3144,205.0252 L148.3202,234.7274 C182.8451,229.5198 199.8178,202.1319 199.8178,201.9389 L200.3962,200.9745 L201.3606,201.7459 C234.9205,229.3274 274.4595,231.6417 289.3108,231.4487 L259.8011,165.2928 Z Z M222.9619,148.7061 L222.9619,148.7061 C222.9619,148.7061 243.7923,146.7772 246.1072,146.9702 C249.3859,147.1627 254.2075,148.3201 255.3649,151.5988 C255.3649,151.5988 252.6646,149.6700 247.0716,150.0559 C242.6354,150.4419 224.3123,151.7918 224.3123,151.7918 L222.9619,148.7061 Z Z M281.4029,228.9414 L281.4029,228.9414 L256.1364,172.0438 C256.1364,172.0438 257.6793,171.4648 259.0297,169.9219 L285.2607,229.1344 C285.2607,229.1344 283.3318,229.1344 281.4029,228.9414 Z"
             style="fill-rule: evenodd; fill: #3a215d; "
             id="path33" />
        </g>
      </g>
    </g>
    <g
       id="Layer1025">
      <g
         id="Layer1026">
        <g
           id="Layer1027">
          <defs
             id="defs41">
            <linearGradient
               id="grad3">
              <stop
                 offset="0.0000%"
                 stop-color="#3a215d"
                 stop-opacity="1.0000"
                 id="stop33" />
              <stop
                 offset="15.0000%"
                 stop-color="#3a215d"
                 stop-opacity="1.0000"
                 id="stop34" />
              <stop
                 offset="36.0000%"
                 stop-color="#574272"
                 stop-opacity="1.0000"
                 id="stop35" />
              <stop
                 offset="50.0000%"
                 stop-color="#64527c"
                 stop-opacity="1.0000"
                 id="stop36" />
              <stop
                 offset="59.0000%"
                 stop-color="#604d79"
                 stop-opacity="1.0000"
                 id="stop37" />
              <stop
                 offset="70.0000%"
                 stop-color="#523d70"
                 stop-opacity="1.0000"
                 id="stop38" />
              <stop
                 offset="83.0000%"
                 stop-color="#3d2660"
                 stop-opacity="1.0000"
                 id="stop39" />
              <stop
                 offset="85.0000%"
                 stop-color="#3a215d"
                 stop-opacity="1.0000"
                 id="stop40" />
              <stop
                 offset="100.0000%"
                 stop-color="#3a215d"
                 stop-opacity="1.0000"
                 id="stop41" />
            </linearGradient>
            <linearGradient
               xlink:href="#grad3"
               id="grad4"
               x1="0"
               y1="0"
               x2="0"
               y2="1"
               gradientTransform="rotate(251 .5 .5)"
               gradientUnits="objectBoundingBox" />
          </defs>
          <path
             d="  M172.0439,125.5608 L189.0166,165.4857 C196.3460,152.7562 204.0609,144.8483 211.7758,139.8337 L200.5892,113.4098 C191.5244,114.9526 181.4947,118.4244 172.0439,125.5608 Z"
             style="fill: url(#grad4); "
             id="path41" />
        </g>
      </g>
    </g>
    <g
       id="Layer1028">
      <g
         id="Layer1029">
        <g
           id="Layer1030">
          <defs
             id="defs50">
            <linearGradient
               id="grad5">
              <stop
                 offset="0.0000%"
                 stop-color="#3a215d"
                 stop-opacity="1.0000"
                 id="stop42" />
              <stop
                 offset="15.0000%"
                 stop-color="#3a215d"
                 stop-opacity="1.0000"
                 id="stop43" />
              <stop
                 offset="36.0000%"
                 stop-color="#574272"
                 stop-opacity="1.0000"
                 id="stop44" />
              <stop
                 offset="50.0000%"
                 stop-color="#64527c"
                 stop-opacity="1.0000"
                 id="stop45" />
              <stop
                 offset="59.0000%"
                 stop-color="#604d79"
                 stop-opacity="1.0000"
                 id="stop46" />
              <stop
                 offset="70.0000%"
                 stop-color="#523d70"
                 stop-opacity="1.0000"
                 id="stop47" />
              <stop
                 offset="83.0000%"
                 stop-color="#3d2660"
                 stop-opacity="1.0000"
                 id="stop48" />
              <stop
                 offset="85.0000%"
                 stop-color="#3a215d"
                 stop-opacity="1.0000"
                 id="stop49" />
              <stop
                 offset="100.0000%"
                 stop-color="#3a215d"
                 stop-opacity="1.0000"
                 id="stop50" />
            </linearGradient>
            <linearGradient
               xlink:href="#grad5"
               id="grad6"
               x1="0"
               y1="0"
               x2="0"
               y2="1"
               gradientTransform="rotate(251 .5 .5)"
               gradientUnits="objectBoundingBox" />
          </defs>
          <path
             d="  M191.5244,171.2723 L206.1828,205.6037 C220.2616,216.0189 235.1130,222.3839 248.6145,226.2411 L213.7047,144.2699 C204.8324,150.6344 197.8889,159.8927 191.5244,171.2723 Z"
             style="fill: url(#grad6); "
             id="path50" />
        </g>
      </g>
    </g>
    <g
       id="Layer1031">
      <g
         id="Layer1032">
        <g
           id="Layer1033">
          <defs
             id="defs59">
            <linearGradient
               id="grad7">
              <stop
                 offset="0.0000%"
                 stop-color="#3a215d"
                 stop-opacity="1.0000"
                 id="stop51" />
              <stop
                 offset="15.0000%"
                 stop-color="#3a215d"
                 stop-opacity="1.0000"
                 id="stop52" />
              <stop
                 offset="36.0000%"
                 stop-color="#574272"
                 stop-opacity="1.0000"
                 id="stop53" />
              <stop
                 offset="50.0000%"
                 stop-color="#64527c"
                 stop-opacity="1.0000"
                 id="stop54" />
              <stop
                 offset="59.0000%"
                 stop-color="#604d79"
                 stop-opacity="1.0000"
                 id="stop55" />
              <stop
                 offset="70.0000%"
                 stop-color="#523d70"
                 stop-opacity="1.0000"
                 id="stop56" />
              <stop
                 offset="83.0000%"
                 stop-color="#3d2660"
                 stop-opacity="1.0000"
                 id="stop57" />
              <stop
                 offset="85.0000%"
                 stop-color="#3a215d"
                 stop-opacity="1.0000"
                 id="stop58" />
              <stop
                 offset="100.0000%"
                 stop-color="#3a215d"
                 stop-opacity="1.0000"
                 id="stop59" />
            </linearGradient>
            <linearGradient
               xlink:href="#grad7"
               id="grad8"
               x1="0"
               y1="0"
               x2="0"
               y2="1"
               gradientTransform="rotate(248 .5 .5)"
               gradientUnits="objectBoundingBox" />
          </defs>
          <path
             d="  M253.4339,237.8088 L253.4262,237.8115 C240.6995,235.1112 226.6234,230.4821 213.1263,222.1909 L209.0755,212.5471 C223.1549,221.9979 237.6203,227.7839 250.7358,231.2557 L253.4339,237.8088 Z"
             style="fill: url(#grad8); "
             id="path59" />
        </g>
      </g>
    </g>
    <g
       id="Layer1034">
      <g
         id="Layer1035">
        <g
           id="Layer1036">
          <defs
             id="defs76">
            <linearGradient
               id="grad9">
              <stop
                 offset="0.0000%"
                 stop-color="#f2bf28"
                 stop-opacity="1.0000"
                 id="stop60" />
              <stop
                 offset="6.0000%"
                 stop-color="#f2bf28"
                 stop-opacity="1.0000"
                 id="stop61" />
              <stop
                 offset="10.0000%"
                 stop-color="#f2c12b"
                 stop-opacity="1.0000"
                 id="stop62" />
              <stop
                 offset="14.0000%"
                 stop-color="#f2c636"
                 stop-opacity="1.0000"
                 id="stop63" />
              <stop
                 offset="18.0000%"
                 stop-color="#f4cd48"
                 stop-opacity="1.0000"
                 id="stop64" />
              <stop
                 offset="21.0000%"
                 stop-color="#f7d862"
                 stop-opacity="1.0000"
                 id="stop65" />
              <stop
                 offset="24.0000%"
                 stop-color="#fbe682"
                 stop-opacity="1.0000"
                 id="stop66" />
              <stop
                 offset="27.0000%"
                 stop-color="#fff6aa"
                 stop-opacity="1.0000"
                 id="stop67" />
              <stop
                 offset="28.0000%"
                 stop-color="#fff9ae"
                 stop-opacity="1.0000"
                 id="stop68" />
              <stop
                 offset="36.0000%"
                 stop-color="#f9e277"
                 stop-opacity="1.0000"
                 id="stop69" />
              <stop
                 offset="43.0000%"
                 stop-color="#f6cf4d"
                 stop-opacity="1.0000"
                 id="stop70" />
              <stop
                 offset="49.0000%"
                 stop-color="#f2c331"
                 stop-opacity="1.0000"
                 id="stop71" />
              <stop
                 offset="53.0000%"
                 stop-color="#f2bf28"
                 stop-opacity="1.0000"
                 id="stop72" />
              <stop
                 offset="76.0000%"
                 stop-color="#fff7aa"
                 stop-opacity="1.0000"
                 id="stop73" />
              <stop
                 offset="76.0000%"
                 stop-color="#fff9ae"
                 stop-opacity="1.0000"
                 id="stop74" />
              <stop
                 offset="88.0000%"
                 stop-color="#f7db69"
                 stop-opacity="1.0000"
                 id="stop75" />
              <stop
                 offset="100.0000%"
                 stop-color="#f2bf28"
                 stop-opacity="1.0000"
                 id="stop76" />
            </linearGradient>
            <linearGradient
               xlink:href="#grad9"
               id="grad10"
               x1="0"
               y1="0"
               x2="0"
               y2="1"
               gradientTransform="rotate(242 .5 .5)"
               gradientUnits="objectBoundingBox" />
          </defs>
          <path
             d="  M75.2208,286.0320 L71.5566,295.6757 L70.5922,296.0617 L68.0849,288.5393 L61.3344,290.6611 L67.5059,309.3697 L74.2569,307.2484 L71.7491,299.7264 L78.5001,297.6046 L81.0074,305.1265 L87.7579,303.0052 L84.6721,293.5544 C84.2862,292.5900 82.5503,292.2040 80.6214,292.7830 L78.3071,293.5544 L82.3573,283.9107 L75.2208,286.0320 Z Z M361.2528,283.9107 L361.2528,283.9107 L362.2172,280.0529 L369.1607,281.7888 L368.1963,285.6465 L361.2528,283.9107 Z Z M355.8522,276.3882 L355.8522,276.3882 L351.4160,293.5544 L358.3595,295.2903 L360.2884,287.5754 L367.2318,289.3113 L365.3030,297.0262 L372.2464,298.7620 L376.6826,281.5958 C376.8756,280.4389 375.7182,279.2815 373.7899,278.8961 L359.9029,275.2313 C359.3239,275.0383 358.7455,275.0383 358.3595,275.0383 C357.0096,275.0383 356.0452,275.6168 355.8522,276.3882 Z Z M117.8461,278.5101 L117.8461,278.5101 L124.7895,276.9672 L127.2968,288.7323 L120.3534,290.2751 L117.8461,278.5101 Z Z M127.4898,272.5310 L127.4898,272.5310 L113.6029,275.4243 C111.6740,275.8098 110.3241,276.9672 110.5171,278.1241 L113.7959,293.5544 C113.9889,294.7113 115.7247,295.0973 117.6536,294.7113 L131.5405,291.8186 C133.4689,291.4326 134.8193,290.2751 134.6263,289.1183 L131.3475,273.6885 C131.1545,272.9165 130.1901,272.3380 128.8402,272.3380 C128.4542,272.3380 127.8758,272.5310 127.4898,272.5310 Z Z M159.6998,267.1304 L159.6998,267.1304 L162.0141,286.8034 L183.2305,284.2961 L182.2661,276.0028 L175.3226,277.3526 L175.9011,281.4034 L168.7652,282.1748 L166.8363,266.3590 L159.6998,267.1304 Z Z M307.0549,269.8307 L307.0549,269.8307 L314.1914,270.7952 L311.8771,286.6110 L318.8206,287.5754 L321.1349,271.7596 L328.0783,272.7240 L328.6573,268.8663 L307.4409,265.7806 L307.0549,269.8307 Z Z M265.3942,270.4092 L265.3942,270.4092 L265.5871,266.3590 L272.7236,266.7450 L272.5306,270.7952 L265.3942,270.4092 Z Z M258.6437,264.0447 L258.6437,264.0447 L257.6793,281.7888 L264.8157,282.1748 L265.2017,274.2669 L272.3376,274.6523 L271.9522,282.5602 L279.0886,282.9462 L280.0531,265.2016 C280.0531,264.0447 278.7026,263.0803 276.5813,263.0803 L262.3084,262.3088 C262.1154,262.3088 262.1154,262.3088 261.9224,262.3088 C260.1866,262.3088 258.6437,263.0803 258.6437,264.0447 Z Z M222.9619,262.1158 L222.9619,262.1158 L216.7904,270.2167 L215.8260,270.2167 L215.6336,262.3088 L208.4971,262.5013 L209.2685,282.1748 L216.4050,281.9818 L216.2120,274.0739 L223.3479,273.8809 L223.5409,281.7888 L230.6768,281.5958 L230.2914,271.7596 C230.2914,270.6022 228.5555,269.8307 226.6267,269.8307 L224.1194,269.8307 L230.6768,261.7298 L222.9619,262.1158 Z"
             style="fill: url(#grad10); "
             id="path76" />
        </g>
      </g>
    </g>
    <g
       id="Layer1037">
      <g
         id="Layer1038">
        <g
           id="Layer1039">
          <defs
             id="defs94">
            <linearGradient
               id="grad11">
              <stop
                 offset="0.0000%"
                 stop-color="#f2bf28"
                 stop-opacity="1.0000"
                 id="stop77" />
              <stop
                 offset="6.0000%"
                 stop-color="#f2bf28"
                 stop-opacity="1.0000"
                 id="stop78" />
              <stop
                 offset="9.0000%"
                 stop-color="#f2c12b"
                 stop-opacity="1.0000"
                 id="stop79" />
              <stop
                 offset="12.0000%"
                 stop-color="#f2c636"
                 stop-opacity="1.0000"
                 id="stop80" />
              <stop
                 offset="14.0000%"
                 stop-color="#f4cd48"
                 stop-opacity="1.0000"
                 id="stop81" />
              <stop
                 offset="16.0000%"
                 stop-color="#f7d862"
                 stop-opacity="1.0000"
                 id="stop82" />
              <stop
                 offset="19.0000%"
                 stop-color="#fbe682"
                 stop-opacity="1.0000"
                 id="stop83" />
              <stop
                 offset="21.0000%"
                 stop-color="#fff6aa"
                 stop-opacity="1.0000"
                 id="stop84" />
              <stop
                 offset="21.0000%"
                 stop-color="#fff9ae"
                 stop-opacity="1.0000"
                 id="stop85" />
              <stop
                 offset="28.0000%"
                 stop-color="#f9e277"
                 stop-opacity="1.0000"
                 id="stop86" />
              <stop
                 offset="34.0000%"
                 stop-color="#f6cf4d"
                 stop-opacity="1.0000"
                 id="stop87" />
              <stop
                 offset="38.0000%"
                 stop-color="#f2c331"
                 stop-opacity="1.0000"
                 id="stop88" />
              <stop
                 offset="41.0000%"
                 stop-color="#f2bf28"
                 stop-opacity="1.0000"
                 id="stop89" />
              <stop
                 offset="57.0000%"
                 stop-color="#fff7aa"
                 stop-opacity="1.0000"
                 id="stop90" />
              <stop
                 offset="58.0000%"
                 stop-color="#fff9ae"
                 stop-opacity="1.0000"
                 id="stop91" />
              <stop
                 offset="75.0000%"
                 stop-color="#f7db69"
                 stop-opacity="1.0000"
                 id="stop92" />
              <stop
                 offset="92.0000%"
                 stop-color="#f2bf28"
                 stop-opacity="1.0000"
                 id="stop93" />
              <stop
                 offset="100.0000%"
                 stop-color="#f2bf28"
                 stop-opacity="1.0000"
                 id="stop94" />
            </linearGradient>
            <linearGradient
               xlink:href="#grad11"
               id="grad12"
               x1="0"
               y1="0"
               x2="0"
               y2="1"
               gradientTransform="rotate(242 .5 .5)"
               gradientUnits="objectBoundingBox" />
          </defs>
          <path
             d="  M222.7695,294.5188 C189.9810,295.6757 157.9640,299.7264 129.6117,307.6338 L128.6472,313.0344 C157.5785,306.2839 188.8241,301.6548 222.3835,300.6903 C279.4741,299.1475 324.9926,306.8624 366.0744,318.6280 L367.0388,314.5773 C330.5856,300.6903 287.9604,293.9399 241.6710,293.9399 C235.4990,294.1329 229.3269,294.3259 222.7695,294.5188 Z"
             style="fill: url(#grad12); "
             id="path94" />
        </g>
      </g>
    </g>
    <g
       id="Layer1040">
      <g
         id="Layer1041">
        <g
           id="Layer1042">
          <defs
             id="defs109">
            <linearGradient
               id="grad13">
              <stop
                 offset="0.0000%"
                 stop-color="#f2bf28"
                 stop-opacity="1.0000"
                 id="stop95" />
              <stop
                 offset="6.0000%"
                 stop-color="#f2bf28"
                 stop-opacity="1.0000"
                 id="stop96" />
              <stop
                 offset="10.0000%"
                 stop-color="#f2c12b"
                 stop-opacity="1.0000"
                 id="stop97" />
              <stop
                 offset="14.0000%"
                 stop-color="#f2c636"
                 stop-opacity="1.0000"
                 id="stop98" />
              <stop
                 offset="18.0000%"
                 stop-color="#f4cd48"
                 stop-opacity="1.0000"
                 id="stop99" />
              <stop
                 offset="21.0000%"
                 stop-color="#f7d862"
                 stop-opacity="1.0000"
                 id="stop100" />
              <stop
                 offset="24.0000%"
                 stop-color="#fbe682"
                 stop-opacity="1.0000"
                 id="stop101" />
              <stop
                 offset="27.0000%"
                 stop-color="#fff6aa"
                 stop-opacity="1.0000"
                 id="stop102" />
              <stop
                 offset="28.0000%"
                 stop-color="#fff9ae"
                 stop-opacity="1.0000"
                 id="stop103" />
              <stop
                 offset="44.0000%"
                 stop-color="#f9e277"
                 stop-opacity="1.0000"
                 id="stop104" />
              <stop
                 offset="58.0000%"
                 stop-color="#f6cf4d"
                 stop-opacity="1.0000"
                 id="stop105" />
              <stop
                 offset="70.0000%"
                 stop-color="#f2c331"
                 stop-opacity="1.0000"
                 id="stop106" />
              <stop
                 offset="77.0000%"
                 stop-color="#f2bf28"
                 stop-opacity="1.0000"
                 id="stop107" />
              <stop
                 offset="99.0000%"
                 stop-color="#fff7aa"
                 stop-opacity="1.0000"
                 id="stop108" />
              <stop
                 offset="100.0000%"
                 stop-color="#fff9ae"
                 stop-opacity="1.0000"
                 id="stop109" />
            </linearGradient>
            <linearGradient
               xlink:href="#grad13"
               id="grad14"
               x1="0"
               y1="0"
               x2="0"
               y2="1"
               gradientTransform="rotate(245 .5 .5)"
               gradientUnits="objectBoundingBox" />
          </defs>
          <path
             d="  M238.7777,534.0679 C158.1570,558.1770 101.2588,597.1375 99.7160,601.1877 C97.9801,605.4308 98.5591,631.8548 98.5591,631.8548 C98.5591,631.8548 135.9762,598.1019 188.0521,568.7852 C278.7026,517.4806 374.5613,512.6585 374.5613,512.6585 C374.5613,512.6585 372.6324,512.6585 369.1607,512.6585 C353.5379,512.4660 304.7406,514.2014 238.7777,534.0679 Z"
             style="fill: url(#grad14); "
             id="path109" />
        </g>
      </g>
    </g>
    <g
       id="Layer1043">
      <g
         id="Layer1044">
        <g
           id="Layer1045">
          <defs
             id="defs126">
            <linearGradient
               id="grad15">
              <stop
                 offset="0.0000%"
                 stop-color="#f2bf28"
                 stop-opacity="1.0000"
                 id="stop110" />
              <stop
                 offset="6.0000%"
                 stop-color="#f2bf28"
                 stop-opacity="1.0000"
                 id="stop111" />
              <stop
                 offset="10.0000%"
                 stop-color="#f2c12b"
                 stop-opacity="1.0000"
                 id="stop112" />
              <stop
                 offset="14.0000%"
                 stop-color="#f2c636"
                 stop-opacity="1.0000"
                 id="stop113" />
              <stop
                 offset="18.0000%"
                 stop-color="#f4cd48"
                 stop-opacity="1.0000"
                 id="stop114" />
              <stop
                 offset="21.0000%"
                 stop-color="#f7d862"
                 stop-opacity="1.0000"
                 id="stop115" />
              <stop
                 offset="24.0000%"
                 stop-color="#fbe682"
                 stop-opacity="1.0000"
                 id="stop116" />
              <stop
                 offset="27.0000%"
                 stop-color="#fff6aa"
                 stop-opacity="1.0000"
                 id="stop117" />
              <stop
                 offset="28.0000%"
                 stop-color="#fff9ae"
                 stop-opacity="1.0000"
                 id="stop118" />
              <stop
                 offset="36.0000%"
                 stop-color="#f9e277"
                 stop-opacity="1.0000"
                 id="stop119" />
              <stop
                 offset="43.0000%"
                 stop-color="#f6cf4d"
                 stop-opacity="1.0000"
                 id="stop120" />
              <stop
                 offset="49.0000%"
                 stop-color="#f2c331"
                 stop-opacity="1.0000"
                 id="stop121" />
              <stop
                 offset="53.0000%"
                 stop-color="#f2bf28"
                 stop-opacity="1.0000"
                 id="stop122" />
              <stop
                 offset="76.0000%"
                 stop-color="#fff7aa"
                 stop-opacity="1.0000"
                 id="stop123" />
              <stop
                 offset="76.0000%"
                 stop-color="#fff9ae"
                 stop-opacity="1.0000"
                 id="stop124" />
              <stop
                 offset="88.0000%"
                 stop-color="#f7db69"
                 stop-opacity="1.0000"
                 id="stop125" />
              <stop
                 offset="100.0000%"
                 stop-color="#f2bf28"
                 stop-opacity="1.0000"
                 id="stop126" />
            </linearGradient>
            <linearGradient
               xlink:href="#grad15"
               id="grad16"
               x1="0"
               y1="0"
               x2="0"
               y2="1"
               gradientTransform="rotate(246 .5 .5)"
               gradientUnits="objectBoundingBox" />
          </defs>
          <path
             d="  M202.3251,629.5405 C192.6813,619.5108 182.8451,605.0454 182.8451,605.0454 C182.8451,605.0454 191.1384,596.1731 204.2539,586.9153 C218.1409,576.8855 232.0272,570.3281 232.0272,570.3281 C232.0272,570.3281 232.4127,593.6658 232.2202,609.6740 C232.0272,623.3685 230.8698,653.2637 230.8698,653.2637 C230.8698,653.2637 213.7047,641.1126 202.3251,629.5405 Z Z M338.1081,528.6673 L338.1081,528.6673 C333.8649,528.6673 304.9336,529.6317 246.1072,552.7764 C182.2661,577.8500 158.3500,603.6950 158.3500,603.6950 C158.3500,603.6950 174.7442,622.4041 192.6813,636.6764 C210.4260,650.9494 231.6413,660.2071 231.6413,660.2071 C231.6413,660.2071 240.7066,653.8427 255.3649,640.9196 C254.4005,640.3412 253.2431,639.7627 252.0862,639.1837 C243.7923,634.5551 235.6920,633.2047 235.6920,633.2047 C235.6920,633.2047 255.1720,628.3831 269.0589,628.1901 L269.2519,627.9971 C267.9020,627.4187 266.5516,626.8402 265.0087,626.2612 C246.4926,618.7393 236.0774,616.4250 236.0774,616.4250 C236.0774,616.4250 270.6018,607.9387 287.9604,607.9387 C277.9312,605.4308 276.3878,605.4308 270.0233,604.0810 C253.6291,600.9947 242.8279,598.6804 242.8279,598.6804 C242.8279,598.6804 271.5662,593.4728 305.8981,590.7725 C301.0759,589.2296 294.3254,588.2652 285.8391,587.3007 C266.3586,584.9864 249.9644,582.2861 249.9644,582.2861 C249.9644,582.2861 265.9731,578.8144 288.7324,575.7287 C302.6193,573.7998 312.8415,572.6424 319.7850,572.0639 C314.5774,570.9065 307.6339,569.5566 300.1115,568.7852 C283.7172,567.0493 283.7172,567.0493 257.8722,566.8563 C257.8722,566.8563 290.0823,552.9694 330.5856,552.9694 C325.5710,551.4265 312.2625,549.3047 296.8327,549.4977 C286.2246,549.6907 268.8659,550.4621 268.8659,550.4621 C268.8659,550.4621 306.8625,534.6463 338.4935,529.0527 C338.6865,528.6673 338.4935,528.6673 338.1081,528.6673 Z"
             style="fill: url(#grad16); "
             id="path126" />
        </g>
      </g>
    </g>
    <g
       id="Layer1046">
      <g
         id="Layer1047">
        <g
           id="Layer1048">
          <defs
             id="defs144">
            <linearGradient
               id="grad17">
              <stop
                 offset="0.0000%"
                 stop-color="#f2bf28"
                 stop-opacity="1.0000"
                 id="stop127" />
              <stop
                 offset="6.0000%"
                 stop-color="#f2bf28"
                 stop-opacity="1.0000"
                 id="stop128" />
              <stop
                 offset="10.0000%"
                 stop-color="#f2c12b"
                 stop-opacity="1.0000"
                 id="stop129" />
              <stop
                 offset="14.0000%"
                 stop-color="#f2c636"
                 stop-opacity="1.0000"
                 id="stop130" />
              <stop
                 offset="18.0000%"
                 stop-color="#f4cd48"
                 stop-opacity="1.0000"
                 id="stop131" />
              <stop
                 offset="21.0000%"
                 stop-color="#f7d862"
                 stop-opacity="1.0000"
                 id="stop132" />
              <stop
                 offset="24.0000%"
                 stop-color="#fbe682"
                 stop-opacity="1.0000"
                 id="stop133" />
              <stop
                 offset="27.0000%"
                 stop-color="#fff6aa"
                 stop-opacity="1.0000"
                 id="stop134" />
              <stop
                 offset="28.0000%"
                 stop-color="#fff9ae"
                 stop-opacity="1.0000"
                 id="stop135" />
              <stop
                 offset="37.0000%"
                 stop-color="#f9e277"
                 stop-opacity="1.0000"
                 id="stop136" />
              <stop
                 offset="45.0000%"
                 stop-color="#f6cf4d"
                 stop-opacity="1.0000"
                 id="stop137" />
              <stop
                 offset="52.0000%"
                 stop-color="#f2c331"
                 stop-opacity="1.0000"
                 id="stop138" />
              <stop
                 offset="56.0000%"
                 stop-color="#f2bf28"
                 stop-opacity="1.0000"
                 id="stop139" />
              <stop
                 offset="69.0000%"
                 stop-color="#fff7aa"
                 stop-opacity="1.0000"
                 id="stop140" />
              <stop
                 offset="69.0000%"
                 stop-color="#fff9ae"
                 stop-opacity="1.0000"
                 id="stop141" />
              <stop
                 offset="80.0000%"
                 stop-color="#f7db69"
                 stop-opacity="1.0000"
                 id="stop142" />
              <stop
                 offset="90.0000%"
                 stop-color="#f2bf28"
                 stop-opacity="1.0000"
                 id="stop143" />
              <stop
                 offset="100.0000%"
                 stop-color="#f2bf28"
                 stop-opacity="1.0000"
                 id="stop144" />
            </linearGradient>
            <linearGradient
               xlink:href="#grad17"
               id="grad18"
               x1="0"
               y1="0"
               x2="0"
               y2="1"
               gradientTransform="rotate(246 .5 .5)"
               gradientUnits="objectBoundingBox" />
          </defs>
          <path
             d="  M85.0576,533.2964 C95.6658,533.8749 112.0600,565.8919 154.6852,557.0196 C109.3597,560.4913 97.5946,528.4743 86.0220,528.4743 L85.0576,533.2964 Z Z M156.9995,477.7487 L156.9995,477.7487 C148.3202,481.4129 145.0415,484.4992 141.3767,486.8135 L140.4123,490.8637 C140.4123,490.8637 143.1126,492.0211 139.6409,507.8369 L136.5551,521.1454 C139.4484,523.0737 151.0205,528.8603 156.2281,530.2101 L166.6433,484.8846 C167.8007,480.0630 164.3290,476.9767 160.2783,476.9767 C159.1214,476.9767 157.9640,477.1697 156.9995,477.7487 Z Z M59.4056,472.3481 L59.4056,472.3481 L47.4470,537.1536 C49.9548,541.2038 49.9548,541.2038 52.0761,544.0971 L66.1561,467.9120 C64.0342,469.2618 61.5269,470.8047 59.4056,472.3481 Z Z M107.4309,472.7336 L107.4309,472.7336 C105.6950,485.8491 98.9445,492.9855 91.2296,497.2287 L90.4582,500.8934 C100.2949,497.4217 106.8524,489.5138 109.7457,479.6770 C110.5171,477.3627 111.2886,474.8554 111.6740,472.3481 C107.8168,468.6834 101.6448,462.5114 98.7515,458.8466 C100.4874,464.4402 106.2740,471.3837 107.4309,472.7336 Z Z M147.3558,475.0484 L147.3558,475.0484 C161.0503,467.3330 168.1862,468.8764 169.5366,472.3481 L171.0795,465.4047 C171.8509,462.3184 170.3080,459.6181 164.3290,458.8466 C159.6998,458.2682 155.4567,457.3038 151.5990,456.3393 L147.3558,475.0484 Z Z M260.1866,463.6688 L260.1866,463.6688 C261.9224,463.2828 267.7090,460.9685 270.9877,460.1971 L268.2874,472.1551 C264.4303,473.3125 260.1866,474.6624 257.4868,475.8198 L260.1866,463.6688 Z Z M279.0886,448.0460 L279.0886,448.0460 C262.6944,452.6746 247.4570,458.4612 237.0419,459.2326 L236.0774,463.4758 C236.0774,463.4758 238.1993,468.8764 235.4990,480.0630 L227.0126,514.3944 C231.6413,514.2014 233.3771,517.2876 234.7275,519.4090 C240.1281,517.8661 270.2163,508.6083 276.0023,507.2584 L284.2962,491.6351 C281.4029,491.4426 266.1661,494.7214 251.8932,499.5430 L254.9790,486.0421 C263.0798,483.1488 278.5097,481.9919 284.8747,483.5348 L291.2397,456.3393 C292.3966,450.7463 291.2397,446.8886 285.4531,446.8886 C283.9102,447.0816 281.7889,447.4670 279.0886,448.0460 Z Z M297.4117,446.5031 L297.4117,446.5031 L340.2294,427.2156 C333.8649,429.9159 326.9215,437.2448 323.4497,441.4880 L325.3780,433.0016 C316.1203,436.4734 307.0549,439.5591 298.3756,442.4524 L297.4117,446.5031 C297.4117,446.5031 299.9190,448.6244 296.8327,463.4758 L287.1890,504.5581 C294.5184,502.8223 305.1266,500.5074 309.9482,499.7360 L320.5564,453.8320 C323.0637,451.5177 327.1139,448.2384 331.9361,444.9597 L327.3069,464.6332 C331.5501,462.7044 341.1938,460.7755 348.7157,459.4256 L350.4516,452.2892 L351.4160,448.4314 L353.1519,440.9095 C355.4668,431.2658 351.2236,425.8652 345.2440,425.8652 C343.5081,426.2512 341.9653,426.6366 340.2294,427.2156 L297.4117,446.5031 Z Z M49.7618,449.0104 L49.7618,449.0104 C30.6673,460.0041 20.2521,473.8910 27.5810,485.2706 C33.5600,494.5284 44.7472,493.5640 48.6044,492.7925 L52.4621,474.0840 C51.1117,473.6980 48.0260,472.5411 48.9904,468.6834 C50.7262,461.7399 73.0995,447.6600 91.8081,441.8740 C95.8588,448.2384 103.1877,457.3038 110.3241,463.2828 C112.4460,465.2117 114.9533,466.7545 117.4606,468.2974 C116.1102,474.4694 114.3743,480.4485 111.6740,485.4636 C107.0454,494.1429 99.3305,502.4363 86.9864,503.7867 L96.6302,452.8676 C87.9509,456.7253 79.8500,460.7755 72.1351,465.0187 L56.5123,548.5332 C63.2628,556.8266 68.4704,562.0342 75.6068,565.6989 L83.5147,520.5664 C101.4518,521.9168 114.9533,561.8417 172.8153,551.0405 C186.5093,548.5332 199.2393,539.6609 209.4615,530.9816 C204.2539,533.6819 196.5390,535.9962 184.3880,538.1180 C156.9995,542.7472 138.8694,533.1034 126.3329,523.2667 C115.9177,515.1658 109.5527,507.2584 105.1165,507.2584 C139.6409,500.3144 140.9913,471.1907 143.8840,458.2682 C137.1336,456.1463 131.7330,453.4460 127.4898,450.3603 C115.1458,441.1025 108.5883,433.5801 104.1521,426.2512 C91.6156,429.9159 65.5776,440.1381 49.7618,449.0104 Z Z M101.4518,404.4563 L101.4518,404.4563 C108.9743,411.2068 121.7038,445.5387 156.6141,452.2892 C123.0537,441.4880 113.2174,408.1211 102.6092,397.8983 L101.4518,404.4563 Z Z M368.7747,458.6536 L368.7747,458.6536 C371.0896,461.3539 380.1543,470.4193 376.8756,476.0123 C375.5257,478.3272 371.8610,476.7843 366.6534,475.2409 C363.1817,474.2764 359.1309,473.3125 354.6953,473.5050 C357.7811,469.6478 361.0598,466.5615 368.7747,458.6536 Z Z M385.7479,421.6220 L385.7479,421.6220 C388.4482,419.8861 389.7981,418.9217 394.0413,415.2570 C396.3561,416.0290 399.6349,421.8150 398.4774,427.0226 C395.1987,427.9870 388.8337,431.6518 382.4692,435.8949 L385.7479,421.6220 Z Z M359.7099,420.4651 L359.7099,420.4651 L359.1309,424.3223 C359.1309,424.3223 362.9887,426.6366 361.2528,435.5089 L357.9741,450.1673 L362.2172,453.8320 C359.7099,456.7253 345.6300,470.9977 343.8941,473.1196 C336.5647,473.3125 328.8498,475.8198 327.1139,476.3983 L322.0993,497.8071 C329.4288,496.6502 360.6744,492.4071 380.1543,498.0001 C384.3975,491.8281 395.3917,472.9266 399.6349,460.9685 C395.7771,452.4821 392.1124,446.6956 387.6768,442.2594 C392.6914,438.2092 402.3352,433.1946 407.3498,433.1946 C414.4862,417.1858 416.9935,397.7059 411.7859,384.2044 C399.6349,396.3554 372.2464,414.1001 359.7099,420.4651 Z Z M192.8743,363.1810 L192.8743,363.1810 C184.7734,366.0743 175.3226,370.5104 172.4293,372.2463 L174.5512,363.5670 C168.1862,367.4247 154.2992,373.4037 146.9703,375.1396 L146.1989,378.8038 C146.1989,378.8038 149.0916,377.0685 145.6199,395.0056 C148.1278,400.2132 158.9284,416.9934 161.4357,419.8861 L169.9220,383.8189 C172.2369,382.6615 175.9011,381.1186 180.1448,379.5758 L169.9220,424.1293 C175.3226,421.4290 186.3163,416.9934 193.0673,414.6785 L202.3251,370.5104 C203.4825,365.3028 200.0108,362.4095 195.9600,362.4095 C194.8032,362.6025 193.8387,362.7955 192.8743,363.1810 Z Z M224.6978,359.7098 L224.6978,359.7098 C218.9123,361.2527 211.0044,365.4958 208.1111,367.2317 L207.3397,370.8964 C207.3397,370.8964 209.2685,376.6825 206.5682,387.8691 L198.4673,426.0582 C204.6394,421.2366 215.2476,416.6074 222.3835,414.1001 L232.9917,367.6171 C234.3416,362.0241 230.2914,359.5168 226.4337,359.5168 C226.0482,359.5168 225.4692,359.5168 224.6978,359.7098 Z Z M188.0521,509.7657 L188.0521,509.7657 L196.1530,475.6269 C198.4673,477.3627 201.7466,480.2560 204.4469,483.1488 L197.1175,514.0089 C194.9956,512.8515 189.0166,510.1512 188.0521,509.7657 Z Z M263.2728,366.8457 L263.2728,366.8457 C265.9731,365.6888 269.4449,364.1454 273.4950,362.9885 L265.5871,397.1269 C263.4658,397.7059 258.6437,399.0557 255.5579,400.0202 L263.2728,366.8457 Z Z M286.2246,347.7512 L286.2246,347.7512 C279.2811,348.5226 263.2728,352.3803 238.5847,366.4603 L237.6203,370.5104 C237.6203,370.5104 239.5492,376.2965 237.0419,387.6761 L231.4488,411.7858 C239.7421,408.8925 244.7568,409.6639 247.2641,413.3287 C249.3859,412.3642 256.7148,410.2424 262.8869,408.5065 L259.2227,422.5864 C253.2431,427.0226 246.2996,430.1083 238.9707,432.2302 L240.1281,427.7940 C241.6710,421.2366 235.1130,418.9217 232.0272,419.6931 C225.6622,421.4290 218.9123,424.3223 213.5117,427.4080 L212.5473,431.8442 C212.5473,431.8442 213.3187,432.4232 213.5117,435.5089 C202.9035,435.3159 193.8387,433.5801 189.5956,431.4588 L191.3314,422.7794 C184.7734,424.9007 177.2515,428.1800 172.8153,430.6873 C181.3017,437.6308 194.2242,444.1883 212.1618,446.3101 C211.9688,447.0816 211.7758,447.8530 211.5828,448.8174 L206.5682,470.8047 C204.0609,468.2974 201.7466,466.1761 199.6248,464.4402 C193.8387,465.2117 180.7232,470.4193 173.2013,474.0840 L172.0439,478.3272 C172.0439,478.3272 174.7442,480.4485 171.4655,495.4928 L165.8719,519.4090 C173.0083,520.7594 185.3524,529.4387 188.8241,533.4889 C193.6457,531.5600 204.0609,528.6673 210.2330,527.1244 C212.1618,523.4597 216.0190,518.8305 218.7193,517.4806 L235.3060,446.5031 C245.3357,445.5387 256.3294,443.4168 268.4804,439.7521 C268.8659,437.6308 270.9877,429.3369 278.5097,424.7083 L294.7114,356.8165 C296.2543,350.2585 291.4322,347.7512 287.1890,347.7512 C287.1890,347.5587 286.6105,347.5587 286.2246,347.7512 Z Z M70.5922,351.2229 L70.5922,351.2229 L54.1980,438.7877 C56.5123,437.6308 59.0196,436.4734 61.5269,435.3159 L78.3071,346.0153 C75.6068,347.5587 72.9065,349.4870 70.5922,351.2229 Z Z M218.5263,338.6869 L218.5263,338.6869 L214.0901,357.3949 C219.1053,354.5016 232.9917,348.9086 236.8489,352.7658 L239.9351,340.0368 C241.2850,334.8292 238.7777,332.9004 234.9205,332.9004 C229.7129,332.7079 222.3835,335.9866 218.5263,338.6869 Z Z M382.2762,321.5207 L382.2762,321.5207 C376.6826,323.2566 367.4248,328.0788 364.5315,329.8146 L363.5671,333.6718 C363.5671,333.6718 366.0744,335.0222 364.3385,344.2794 C362.9887,344.8584 362.0242,345.6299 359.3239,346.7867 L356.4312,360.2882 C359.1309,359.3238 360.6744,358.7454 362.2172,358.1664 C360.2884,366.8457 351.8020,400.9846 349.6802,410.8214 C353.7309,409.6639 356.8166,412.1712 357.7811,413.5211 C371.8610,405.9992 390.1841,392.8837 401.3707,384.0114 C391.7270,387.4831 379.9613,389.7980 376.2972,390.3764 L385.1689,352.7658 C388.6407,352.1873 394.2343,351.9943 400.5993,351.8019 C411.3999,351.0305 412.7504,347.3657 415.6431,331.3575 C406.1923,332.3219 397.3200,334.6362 388.6407,336.9511 L390.3765,329.6216 C391.7270,324.0286 388.2552,320.9423 384.3975,320.9423 C383.8191,321.1353 383.0476,321.3283 382.2762,321.5207 Z Z M112.0600,355.0806 L112.0600,355.0806 L111.0956,359.9022 C147.7418,356.0451 162.5931,332.1289 152.3709,319.3994 C157.7710,326.1499 148.8992,349.4870 112.0600,355.0806 Z Z M323.4497,318.8210 L323.4497,318.8210 C323.0637,319.0134 322.6777,319.0134 322.2923,319.2064 C315.1558,321.9067 309.1768,325.3785 306.4765,327.1143 L305.5121,330.9720 C305.5121,330.9720 306.2835,333.0934 306.2835,337.1435 C306.2835,339.8438 305.8981,343.5080 304.9336,348.1372 L284.6817,433.9661 L308.0194,426.0582 L320.5564,372.6323 C323.2567,371.4749 326.9215,369.9320 330.7786,368.7746 L318.2421,422.7794 L340.2294,414.8715 L352.7665,360.4812 C352.9595,359.7098 352.9595,359.1308 352.9595,358.5524 C352.9595,353.5378 347.5589,351.6089 343.8941,352.5733 C340.2294,353.5378 333.6719,355.4661 323.4497,359.7098 L331.1646,327.1143 C331.3571,326.3429 331.3571,325.7644 331.3571,325.1855 C331.3571,320.9423 327.4999,318.8210 324.6066,318.8210 C324.4136,318.4350 323.8352,318.6280 323.4497,318.8210 Z Z M155.8427,315.1563 L155.8427,315.1563 C160.2783,317.8565 164.1360,324.9925 158.5424,338.1080 C147.9348,362.7955 112.2530,365.4958 105.3095,365.8813 L116.1102,310.7201 C103.1877,314.7703 74.4494,324.9925 58.2482,334.0578 C38.7676,345.2439 28.1600,359.5168 35.6819,371.0889 C41.8539,380.5396 53.2335,379.5758 57.0907,378.8038 L60.9485,359.7098 C59.5980,359.3238 56.5123,358.1664 57.4767,354.1162 C59.2126,347.1727 72.9065,339.4584 86.6005,333.6718 L68.0849,432.0372 C76.7642,428.1800 86.9864,424.3223 95.4728,422.2004 L100.4874,390.5694 C116.3032,394.4271 126.7184,465.2117 203.8679,452.0962 C148.1278,446.5031 143.3056,392.4983 121.1253,377.0685 C139.4484,373.2107 208.4971,354.8876 197.6959,310.1416 C183.4235,311.1055 169.5366,312.8414 155.8427,315.1563 Z"
             style="fill: url(#grad18); "
             id="path144" />
        </g>
      </g>
    </g>
    <g
       id="Layer1049">
      <g
         id="Layer1050">
        <g
           id="Layer1051">
          <path
             d="  M107.4309,85.4429 C115.7247,82.7431 124.2111,81.0073 133.0834,80.4283 C141.7627,79.8498 150.4421,80.2353 159.1214,81.9712 C167.6077,83.5146 177.2515,85.8289 185.1594,89.4936 C177.4445,85.4429 169.1506,82.3572 160.4713,80.4283 C151.7919,78.4994 142.9196,77.9210 134.2403,78.3070 C125.3685,78.8854 116.6892,80.6213 108.2023,83.1286 C99.7160,85.8289 91.6156,89.3006 84.0932,94.1222 L82.3573,95.2797 L84.4791,95.6656 C90.4582,96.6301 96.4372,97.9799 102.4163,99.5228 C108.3953,101.0657 114.1819,102.9946 119.7749,105.3094 C125.5610,107.6237 133.8548,112.0599 133.8548,112.0599 C133.8548,112.0599 129.4187,108.5881 120.1609,104.1520 C114.5673,101.4517 108.5883,99.7158 102.6092,97.9799 C97.4016,96.4371 92.0011,95.2797 86.6005,94.3152 C89.4937,92.5794 92.0011,91.4225 95.2798,89.8791 C99.3305,88.5292 103.3807,86.7933 107.4309,85.4429 Z"
             style="fill-rule: evenodd; fill: #f2bf28; "
             id="path145" />
        </g>
      </g>
      <g
         id="Layer1052">
        <g
           id="Layer1053">
          <path
             d="  M58.2482,35.8747 C64.4202,36.8386 70.7852,39.3465 76.3783,42.6252 C79.0786,44.1681 81.7788,46.0970 84.2862,48.0258 C85.4436,48.9897 86.6005,50.1471 87.7579,51.3046 C88.9153,52.4614 90.0722,53.4259 91.2296,54.3903 C93.5439,56.5122 96.0518,58.2480 98.7515,59.9839 C101.4518,61.5268 104.3451,62.8766 107.2384,63.8411 C110.1312,64.8055 113.2174,65.5769 116.3032,66.1559 C119.3895,66.7344 122.2822,66.9273 125.3685,67.5058 C122.2822,67.3128 119.0035,67.1203 115.9177,66.7344 C112.8314,66.3484 109.7457,65.7699 106.6594,64.9985 C103.5737,64.2271 100.6804,62.8766 97.7871,61.3338 C95.2798,59.7909 92.5795,58.0550 90.0722,55.7407 C88.9153,54.7763 87.7579,53.6189 86.6005,52.4614 C85.4436,51.3046 84.2862,50.3401 83.1287,49.1827 C80.8144,47.0614 78.3071,45.3255 75.6068,43.5896 C72.9065,41.8538 70.2062,40.5034 67.3135,39.1535 C64.2272,37.8031 61.3344,36.6462 58.2482,35.8747 Z"
             style="fill-rule: evenodd; fill: #f2bf28; "
             id="path146" />
        </g>
      </g>
      <g
         id="Layer1054">
        <g
           id="Layer1055">
          <path
             d="  M178.7944,70.7845 C182.8451,71.1705 187.0883,72.1349 190.9454,73.4848 C194.8032,74.8352 198.6603,76.7636 202.3251,78.8854 C205.7968,81.1997 209.2685,83.7070 212.1618,86.6003 C215.2476,89.4936 217.7549,92.7724 220.0692,96.2441 C217.3694,93.1583 214.2831,90.2650 211.1974,87.5648 C208.1111,84.8645 204.8324,82.5501 201.3606,80.2353 C197.8889,78.1140 194.2242,76.1851 190.5600,74.6423 C186.7023,73.2918 182.8451,71.7490 178.7944,70.7845 Z"
             style="fill-rule: evenodd; fill: #f2bf28; "
             id="path147" />
        </g>
      </g>
      <g
         id="Layer1056">
        <g
           id="Layer1057">
          <path
             d="  M160.0858,27.7739 C168.5722,27.9669 176.8655,29.5097 184.9664,32.2100 C193.0673,34.9103 200.5892,38.7675 207.3397,44.3611 C210.6184,47.0614 213.5117,50.1471 216.2120,53.6189 C218.7193,57.0906 221.0336,60.7553 222.5765,64.6125 C224.3123,68.4702 225.4692,72.7134 226.2412,76.7636 C227.0126,81.0073 227.3981,85.0574 227.2051,89.3006 C226.8196,85.0574 225.8552,82.1642 224.8908,78.1140 C223.9264,74.0638 222.5765,70.0131 220.8406,66.3484 C217.3694,58.8265 212.1618,52.0760 205.7968,46.8684 C199.4318,41.4678 191.9099,37.6106 184.1950,34.7173 C180.3372,33.1745 176.2871,32.0170 172.2369,31.0526 C167.9937,30.0882 164.3290,29.5097 160.0858,27.7739 Z"
             style="fill-rule: evenodd; fill: #f2bf28; "
             id="path148" />
        </g>
      </g>
      <g
         id="Layer1058">
        <g
           id="Layer1059">
          <path
             d="  M175.3226,47.0614 C175.5156,49.9541 173.7798,53.6189 171.6579,55.5477 C169.3436,57.6690 166.2579,58.6335 163.3646,59.0195 C160.2783,59.4049 157.3855,59.0195 154.2992,58.2480 C151.4065,57.4766 148.7062,56.3192 146.0059,54.9693 C140.7983,52.0760 135.9762,48.4113 131.9260,44.1681 C127.8758,39.9249 124.7895,34.7173 121.8968,29.5097 C125.3685,34.3313 129.0327,38.7675 133.2764,42.8182 C137.5196,46.8684 142.1482,50.3401 147.1633,53.0404 C149.6706,54.3903 152.3709,55.5477 155.0707,56.3192 C157.7710,57.0906 160.6643,57.4766 163.5576,57.2836 C166.4503,57.0906 169.1506,56.3192 171.4655,54.5833 C173.7798,52.6544 175.1296,49.9541 175.3226,47.0614 Z"
             style="fill-rule: evenodd; fill: #f2bf28; "
             id="path149" />
        </g>
      </g>
      <g
         id="Layer1060">
        <g
           id="Layer1061">
          <path
             d="  M68.2774,57.0906 C76.9567,57.4766 81.9718,62.8766 85.2506,67.1203 C90.6512,74.0638 99.5230,74.8352 102.8022,74.4493 C95.2798,75.4137 88.1439,74.2563 84.6721,69.6276 C80.2360,63.8411 75.9928,59.5979 68.2774,57.0906 Z"
             style="fill-rule: evenodd; fill: #f2bf28; "
             id="path150" />
        </g>
      </g>
      <g
         id="Layer1062">
        <g
           id="Layer1063">
          <path
             d="  M62.2983,82.9356 C71.1707,84.2860 75.6068,78.1140 76.3783,76.9566 C76.1853,78.3070 74.8354,80.8143 73.8710,81.9712 C72.1351,83.7070 70.3992,84.4790 67.1205,84.4790 C64.9986,84.4790 63.6487,83.7070 62.2983,82.9356 Z"
             style="fill-rule: evenodd; fill: #f2bf28; "
             id="path151" />
        </g>
      </g>
      <g
         id="Layer1064">
        <g
           id="Layer1065">
          <path
             d="  M118.0390,115.9171 C120.5464,116.8815 122.8612,118.0389 125.1755,119.3888 C127.4898,120.7392 129.8047,122.0891 131.9260,123.6320 C134.0478,125.1754 136.1691,126.9112 138.0980,128.8396 C140.0269,130.7684 141.7627,132.6973 143.1126,135.0116 C141.1838,133.0833 139.2554,131.3474 137.1336,129.8040 C135.0123,128.2611 133.0834,126.5252 130.9615,124.9824 C126.7184,121.8961 122.2822,119.0033 118.0390,115.9171 Z"
             style="fill-rule: evenodd; fill: #f2bf28; "
             id="path152" />
        </g>
      </g>
      <g
         id="Layer1066">
        <g
           id="Layer1067">
          <path
             d="  M103.7667,137.5189 C105.6950,139.6407 108.0098,141.3766 110.5171,142.3410 C113.0244,143.4985 115.7247,143.8839 118.4250,143.4985 C121.1253,143.3055 123.4396,141.9551 124.7895,139.6407 C126.1399,137.3264 126.7184,134.6261 126.9114,131.7328 C127.4898,134.4331 127.2968,137.5189 125.9469,140.2192 C125.1755,141.5696 124.2111,142.7265 122.8612,143.6909 C121.5108,144.4624 119.9679,145.0413 118.6175,145.2343 C115.7247,145.6198 112.6385,145.0413 109.9382,143.6909 C107.2384,142.1480 105.1165,140.0267 103.7667,137.5189 Z"
             style="fill-rule: evenodd; fill: #f2bf28; "
             id="path153" />
        </g>
      </g>
      <g
         id="Layer1068">
        <g
           id="Layer1069">
          <path
             d="  M167.4147,607.1667 C211.1974,568.7852 264.8157,548.1473 264.8157,548.1473 C195.3816,571.4850 163.3646,603.3095 163.3646,603.3095 L167.4147,607.1667 Z"
             style="fill-rule: evenodd; fill: #3a215d; "
             id="path154" />
        </g>
      </g>
      <g
         id="Layer1070">
        <g
           id="Layer1071">
          <path
             d="  M337.9151,412.3642 L350.0662,360.2882 C350.4516,358.7454 350.2592,357.5879 349.4877,356.8165 C348.5233,355.6591 346.7874,355.0806 345.4370,355.0806 C346.7874,356.4305 347.3659,358.3594 346.7874,361.0597 L334.6364,413.5211 L337.9151,412.3642 Z"
             style="fill-rule: evenodd; fill: #3a215d; "
             id="path155" />
        </g>
      </g>
      <g
         id="Layer1072">
        <g
           id="Layer1073">
          <path
             d="  M168.1862,464.6332 C168.5722,462.7044 167.2217,462.1254 165.6789,461.9329 L164.5220,466.9475 C166.0649,466.7545 167.0293,467.1405 167.4147,467.5260 L168.1862,464.6332 Z"
             style="fill-rule: evenodd; fill: #3a215d; "
             id="path156" />
        </g>
      </g>
      <g
         id="Layer1074">
        <g
           id="Layer1075">
          <path
             d="  M379.5759,422.9724 L376.2972,437.6308 C377.4540,437.0518 378.4185,436.2804 379.7689,435.8949 L383.2406,421.2366 L379.5759,422.9724 Z"
             style="fill-rule: evenodd; fill: #3a215d; "
             id="path157" />
        </g>
      </g>
      <g
         id="Layer1076">
        <g
           id="Layer1077">
          <path
             d="  M48.9904,476.2053 C45.5186,474.6624 45.3257,471.1907 45.9041,468.6834 C47.2545,462.8973 54.7764,456.9178 69.0493,450.1673 C56.3193,455.9539 44.7472,461.9329 42.8184,469.4548 C41.6609,474.0840 43.0113,478.3272 48.4114,479.6770 L48.9904,476.2053 Z"
             style="fill-rule: evenodd; fill: #3a215d; "
             id="path158" />
        </g>
      </g>
      <g
         id="Layer1078">
        <g
           id="Layer1079">
          <path
             d="  M270.0233,506.1010 C271.1807,505.9080 273.3021,505.1366 273.6880,505.1366 C275.4239,501.2789 277.7382,497.6147 279.0886,494.7214 C278.1242,494.9144 277.5452,495.1074 276.3883,495.2998 C274.0735,498.3861 271.7592,502.4363 270.0233,506.1010 Z"
             style="fill-rule: evenodd; fill: #3a215d; "
             id="path159" />
        </g>
      </g>
      <g
         id="Layer1080">
        <g
           id="Layer1081">
          <path
             d="  M251.3148,477.7487 C252.2792,477.3627 253.2431,476.9767 254.4005,476.5913 L257.1008,464.6332 C256.1364,464.8257 255.1720,465.0187 254.2075,465.4047 L251.3148,477.7487 Z"
             style="fill-rule: evenodd; fill: #3a215d; "
             id="path160" />
        </g>
      </g>
      <g
         id="Layer1082">
        <g
           id="Layer1083">
          <path
             d="  M284.6817,449.5889 C284.2962,449.5889 284.1032,449.5889 283.9102,449.5889 L283.7172,449.5889 C285.4531,450.7463 286.4175,452.8676 285.8391,455.7609 L280.4385,479.4840 C281.4029,479.4840 282.3674,479.6770 283.1388,479.6770 L289.1178,454.2180 C289.3108,453.0606 289.3108,452.0962 288.5394,451.3247 C287.5750,450.3603 285.8391,449.5889 284.6817,449.5889 Z"
             style="fill-rule: evenodd; fill: #3a215d; "
             id="path161" />
        </g>
      </g>
      <g
         id="Layer1084">
        <g
           id="Layer1085">
          <path
             d="  M317.8561,371.8603 C316.6987,372.4393 315.5418,372.8247 314.5774,373.2107 L302.8118,424.3223 L305.8981,423.1649 L317.8561,371.8603 Z"
             style="fill-rule: evenodd; fill: #3a215d; "
             id="path162" />
        </g>
      </g>
      <g
         id="Layer1086">
        <g
           id="Layer1087">
          <path
             d="  M230.4844,367.8101 C231.4488,363.1810 227.5911,361.8311 225.8552,362.4095 C227.3981,363.3740 227.9771,365.6888 227.3981,368.5816 L217.3694,411.9782 C218.3339,411.5928 219.4902,411.2068 220.4546,411.0138 L230.4844,367.8101 Z"
             style="fill-rule: evenodd; fill: #3a215d; "
             id="path163" />
        </g>
      </g>
      <g
         id="Layer1088">
        <g
           id="Layer1089">
          <path
             d="  M245.9142,501.6649 C246.8786,501.2789 247.8430,500.8934 248.8075,500.5074 L252.0862,486.2350 C251.1218,486.4280 250.1573,486.8135 249.1929,487.0065 L245.9142,501.6649 Z"
             style="fill-rule: evenodd; fill: #3a215d; "
             id="path164" />
        </g>
      </g>
      <g
         id="Layer1090">
        <g
           id="Layer1091">
          <path
             d="  M324.4136,321.5207 C325.3780,322.8712 325.9570,324.8000 325.3780,327.3073 L317.6631,360.2882 C318.8206,359.7098 319.9780,359.3238 320.9419,358.7454 L328.4643,326.9213 C328.8498,325.3785 328.6573,324.2210 327.8853,323.2566 C327.1139,322.0997 325.3780,321.5207 324.4136,321.5207 Z"
             style="fill-rule: evenodd; fill: #3a215d; "
             id="path165" />
        </g>
      </g>
      <g
         id="Layer1092">
        <g
           id="Layer1093">
          <path
             d="  M237.2348,339.0724 C238.0063,335.7937 236.0774,335.2152 234.9205,335.4077 L231.8343,348.5226 C232.9917,348.3302 234.1486,348.5226 234.7275,348.9086 L237.2348,339.0724 Z"
             style="fill-rule: evenodd; fill: #3a215d; "
             id="path166" />
        </g>
      </g>
      <g
         id="Layer1094">
        <g
           id="Layer1095">
          <path
             d="  M343.7011,457.4968 C344.6656,457.3038 345.8230,457.1108 346.5944,456.9178 L350.2592,441.2950 C351.2236,437.4378 351.2236,428.1800 343.5081,429.3369 C348.1373,430.1083 348.7157,435.5089 347.1729,442.6454 L345.4370,450.1673 L343.7011,457.4968 Z"
             style="fill-rule: evenodd; fill: #3a215d; "
             id="path167" />
        </g>
      </g>
      <g
         id="Layer1096">
        <g
           id="Layer1097">
          <path
             d="  M304.7406,497.8071 C305.5121,497.6147 306.6695,497.2287 307.6339,497.0357 L317.2777,455.7609 C315.7343,457.1108 314.3844,458.2682 313.2270,459.2326 L304.7406,497.8071 Z"
             style="fill-rule: evenodd; fill: #3a215d; "
             id="path168" />
        </g>
      </g>
      <g
         id="Layer1098">
        <g
           id="Layer1099">
          <path
             d="  M317.4701,443.2238 C318.6276,441.6810 319.9780,440.1381 321.3279,438.5952 L321.5209,437.4378 C320.5564,437.8238 319.3990,438.2092 318.4346,438.5952 L317.4701,443.2238 Z"
             style="fill-rule: evenodd; fill: #3a215d; "
             id="path169" />
        </g>
      </g>
      <g
         id="Layer1100">
        <g
           id="Layer1101">
          <path
             d="  M167.0293,383.4329 C165.6789,384.0114 164.7144,384.5904 163.7500,384.9758 L157.9640,407.7351 C158.7354,408.6995 159.3144,409.8569 160.0858,410.8214 L167.0293,383.4329 Z"
             style="fill-rule: evenodd; fill: #3a215d; "
             id="path170" />
        </g>
      </g>
      <g
         id="Layer1102">
        <g
           id="Layer1103">
          <path
             d="  M112.6385,314.7703 C111.6740,315.1563 110.5171,315.5417 109.3597,315.9277 L99.3305,366.8457 C100.2949,366.8457 101.2588,366.6527 102.4163,366.6527 L112.6385,314.7703 Z"
             style="fill-rule: evenodd; fill: #3a215d; "
             id="path171" />
        </g>
      </g>
      <g
         id="Layer1104">
        <g
           id="Layer1105">
          <path
             d="  M124.9825,494.9144 C135.0123,487.1995 137.5196,472.7336 140.4123,460.1971 C139.6409,460.0041 138.4840,459.4256 137.7120,459.0396 C134.8193,471.3837 131.7330,487.9709 124.9825,494.9144 Z"
             style="fill-rule: evenodd; fill: #3a215d; "
             id="path172" />
        </g>
      </g>
      <g
         id="Layer1106">
        <g
           id="Layer1107">
          <path
             d="  M170.5010,369.1606 C169.3436,369.5460 168.1862,370.1244 167.2217,370.7034 L166.2579,374.9466 C167.0293,374.5606 168.5722,373.9822 169.7296,373.4037 L170.5010,369.1606 Z"
             style="fill-rule: evenodd; fill: #3a215d; "
             id="path173" />
        </g>
      </g>
      <g
         id="Layer1108">
        <g
           id="Layer1109">
          <path
             d="  M131.9260,456.5323 C121.5108,451.1317 107.6238,437.4378 102.6092,429.5299 C101.8378,429.7229 100.6804,430.3013 99.9089,430.4943 C104.1521,437.0518 117.4606,450.9387 131.9260,456.5323 Z"
             style="fill-rule: evenodd; fill: #3a215d; "
             id="path174" />
        </g>
      </g>
      <g
         id="Layer1110">
        <g
           id="Layer1111">
          <path
             d="  M57.8622,361.8311 C54.3904,360.2882 54.1980,356.8165 54.7764,354.1162 C56.1263,348.3302 63.8417,341.9657 78.3071,335.2152 C65.3846,341.0013 53.4265,347.3657 51.4977,354.8876 C50.3403,359.5168 51.6907,363.9530 57.0907,365.3028 L57.8622,361.8311 Z"
             style="fill-rule: evenodd; fill: #3a215d; "
             id="path175" />
        </g>
      </g>
      <g
         id="Layer1112">
        <g
           id="Layer1113">
          <path
             d="  M159.3144,480.0630 C158.9284,480.0630 158.3500,480.0630 157.9640,480.2560 C159.8928,481.6059 161.2427,483.9202 160.4713,486.8135 L152.1779,523.0737 C152.9494,523.4597 154.6852,523.8451 154.6852,523.8451 L163.7500,484.8846 C164.1360,483.5348 163.9430,482.5703 163.1716,481.6059 C162.4001,480.8345 160.8573,480.0630 159.3144,480.0630 Z"
             style="fill-rule: evenodd; fill: #3a215d; "
             id="path176" />
        </g>
      </g>
      <g
         id="Layer1114">
        <g
           id="Layer1115">
          <path
             d="  M71.7491,558.5625 C72.5211,559.1414 73.2925,559.7199 73.8710,560.1059 L81.2004,520.3734 C80.4284,520.3734 79.6570,520.3734 78.6931,520.5664 L71.7491,558.5625 Z"
             style="fill-rule: evenodd; fill: #3a215d; "
             id="path177" />
        </g>
      </g>
      <g
         id="Layer1116">
        <g
           id="Layer1117">
          <path
             d="  M95.0873,388.6405 L89.6867,420.8506 C90.8436,420.4651 91.4226,420.2721 92.7725,420.0791 L97.9801,389.2190 C97.0157,388.8335 96.0518,388.8335 95.0873,388.6405 Z"
             style="fill-rule: evenodd; fill: #3a215d; "
             id="path178" />
        </g>
      </g>
      <g
         id="Layer1118">
        <g
           id="Layer1119">
          <path
             d="  M81.5859,505.7150 C82.3573,505.5220 83.3217,505.5220 84.0932,505.3296 L93.3515,456.9178 C92.3870,457.3038 91.4226,457.8822 90.4582,458.2682 L81.5859,505.7150 Z"
             style="fill-rule: evenodd; fill: #3a215d; "
             id="path179" />
        </g>
      </g>
      <g
         id="Layer1120">
        <g
           id="Layer1121">
          <path
             d="  M199.2393,372.0533 C200.0108,367.8101 198.0819,365.1098 194.8032,365.6888 C196.1530,367.0387 196.9245,368.9676 196.1530,371.6679 L187.2807,413.3287 C188.4381,412.9427 189.4026,412.3642 190.5600,411.9782 L199.2393,372.0533 Z"
             style="fill-rule: evenodd; fill: #3a215d; "
             id="path180" />
        </g>
      </g>
      <g
         id="Layer1122">
        <g
           id="Layer1123">
          <path
             d="  M370.3181,391.7268 C371.2820,391.5338 372.2464,391.3408 373.4039,391.1478 L382.2762,353.5378 C381.3118,353.7302 380.1543,353.7302 379.1899,353.9232 L370.3181,391.7268 Z"
             style="fill-rule: evenodd; fill: #3a215d; "
             id="path181" />
        </g>
      </g>
      <g
         id="Layer1124">
        <g
           id="Layer1125">
          <path
             d="  M387.0978,330.0076 C388.4482,324.6070 383.8191,323.8356 382.4692,324.4140 C384.0121,324.9925 384.3975,327.8858 383.8191,330.5861 L381.8902,338.8794 C383.0476,338.6869 384.0121,338.4940 385.1689,338.1080 L387.0978,330.0076 Z"
             style="fill-rule: evenodd; fill: #3a215d; "
             id="path182" />
        </g>
      </g>
      <g
         id="Layer1126">
        <g
           id="Layer1127">
          <path
             d="  M170.1150,352.9588 C184.9664,343.7010 195.5746,331.3575 193.0673,312.8414 L189.7880,313.0344 C190.5600,319.3994 191.1384,337.7225 170.1150,352.9588 Z"
             style="fill-rule: evenodd; fill: #3a215d; "
             id="path183" />
        </g>
      </g>
      <g
         id="Layer1128">
        <g
           id="Layer1129">
          <path
             d="  M98.1731,510.5372 C108.5883,512.8515 128.6472,547.3758 162.9786,541.7828 C128.0688,543.1326 109.7457,509.1868 101.2588,509.3798 L98.1731,510.5372 Z"
             style="fill-rule: evenodd; fill: #3a215d; "
             id="path184" />
        </g>
      </g>
      <g
         id="Layer1130">
        <g
           id="Layer1131">
          <path
             d="  M117.0746,377.8399 L112.4460,378.4183 C127.1044,384.5904 145.4275,441.8740 180.9162,449.3959 C145.2345,436.4734 132.6974,388.6405 117.0746,377.8399 Z"
             style="fill-rule: evenodd; fill: #3a215d; "
             id="path185" />
        </g>
      </g>
      <g
         id="Layer1132">
        <g
           id="Layer1133">
          <path
             d="  M371.8610,480.0630 C351.9950,473.6980 335.2148,477.3627 330.3932,478.5201 L329.6212,481.6059 C336.3722,479.4840 350.8376,476.3983 371.8610,480.0630 Z"
             style="fill-rule: evenodd; fill: #3a215d; "
             id="path186" />
        </g>
      </g>
      <g
         id="Layer1134">
        <g
           id="Layer1135">
          <path
             d="  M184.7734,512.0800 C185.9308,512.6585 189.0166,513.8159 191.3314,514.9733 L190.9454,516.9017 C188.6311,515.7448 183.0375,513.2375 181.8807,512.8515 L191.3314,472.5411 C192.1029,473.1196 192.8743,473.6980 193.6457,474.4694 L184.7734,512.0800 Z"
             style="fill-rule: evenodd; fill: #3a215d; "
             id="path187" />
        </g>
      </g>
      <g
         id="Layer1136">
        <g
           id="Layer1137">
          <path
             d="  M232.6057,422.3934 C232.4127,422.3934 232.2202,422.3934 232.0272,422.3934 C233.7631,423.7439 234.7275,425.8652 233.9561,428.9515 L213.7047,516.3232 C214.6691,515.3588 215.8260,514.5874 216.9834,514.2014 L237.2348,427.7940 C237.6203,426.2512 237.4278,425.0937 236.6564,424.3223 C235.4990,422.9724 233.7631,422.3934 232.6057,422.3934 Z"
             style="fill-rule: evenodd; fill: #3a215d; "
             id="path188" />
        </g>
      </g>
      <g
         id="Layer1138">
        <g
           id="Layer1139">
          <path
             d="  M252.6646,400.5986 L260.3796,367.8101 C259.6081,368.0031 258.2582,368.7746 257.1008,369.1606 L249.3859,401.9490 C250.3503,401.5630 251.5072,400.9846 252.6646,400.5986 Z"
             style="fill-rule: evenodd; fill: #3a215d; "
             id="path189" />
        </g>
      </g>
      <g
         id="Layer1140">
        <g
           id="Layer1141">
          <path
             d="  M196.3460,468.2974 C197.6959,469.4548 199.2393,470.9977 200.7822,472.5411 L201.3606,469.8408 C200.5892,469.0694 199.6248,468.2974 198.6603,467.5260 C197.8889,467.9120 197.1175,468.1049 196.3460,468.2974 Z"
             style="fill-rule: evenodd; fill: #3a215d; "
             id="path190" />
        </g>
      </g>
      <g
         id="Layer1142">
        <g
           id="Layer1143">
          <path
             d="  M292.2041,356.8165 C292.5896,355.0806 292.3966,353.5378 291.6251,352.5733 C290.6607,351.2229 288.9248,350.6445 287.5750,350.6445 C289.1178,352.1873 289.8893,354.3092 289.1178,357.5879 L273.1096,425.2867 C267.3230,428.1800 264.6227,435.5089 263.4658,438.9807 C264.4303,438.7877 265.3942,438.5952 266.3586,438.4022 C267.3230,434.9305 269.8303,428.1800 276.1953,423.9363 L292.2041,356.8165 Z"
             style="fill-rule: evenodd; fill: #3a215d; "
             id="path191" />
        </g>
      </g>
      <g
         id="Layer1144">
        <g
           id="Layer1145">
          <path
             d="  M379.5759,493.5640 C384.3975,485.8491 392.6914,471.3837 396.5486,460.7755 C393.8483,455.1824 388.8337,446.8886 385.3619,442.6454 L382.8546,444.5743 C385.7479,447.8530 391.3410,456.5323 393.6558,461.3539 C389.9911,471.5767 382.6616,488.1634 379.5759,493.5640 Z"
             style="fill-rule: evenodd; fill: #3a215d; "
             id="path192" />
        </g>
      </g>
      <g
         id="Layer1146">
        <g
           id="Layer1147">
          <path
             d="  M407.3498,428.1800 C409.8571,421.6220 414.6787,400.9846 411.2069,390.9554 L408.1212,393.6551 C410.2431,396.5484 410.8215,415.4500 407.3498,428.1800 Z"
             style="fill-rule: evenodd; fill: #3a215d; "
             id="path193" />
        </g>
      </g>
      <g
         id="Layer1148">
        <g
           id="Layer1149">
          <path
             d="  M408.8926,335.7937 L405.9993,347.1727 C406.9638,347.1727 409.4711,346.0153 410.6285,341.3872 L412.1714,335.2152 C411.2069,335.4077 409.4711,335.7937 408.8926,335.7937 Z"
             style="fill-rule: evenodd; fill: #3a215d; "
             id="path194" />
        </g>
      </g>
    </g>
  </g>
</svg>
