<?xml version="1.0" encoding="UTF-8" standalone="no"?>
<svg
   version="1.1"
   width="11.6929in"
   height="8.2677in"
   viewBox="0 0 841.8898 595.2756"
   id="svg86"
   sodipodi:docname="Mumbai Indians (MI).cdr"
   xmlns:inkscape="http://www.inkscape.org/namespaces/inkscape"
   xmlns:sodipodi="http://sodipodi.sourceforge.net/DTD/sodipodi-0.dtd"
   xmlns:xlink="http://www.w3.org/1999/xlink"
   xmlns="http://www.w3.org/2000/svg"
   xmlns:svg="http://www.w3.org/2000/svg">
  <defs
     id="defs87" />
  <sodipodi:namedview
     id="namedview86"
     pagecolor="#ffffff"
     bordercolor="#000000"
     borderopacity="0.25"
     inkscape:showpageshadow="2"
     inkscape:pageopacity="0.0"
     inkscape:pagecheckerboard="0"
     inkscape:deskcolor="#d1d1d1"
     inkscape:document-units="in" />
  <g
     id="Layer1000">
    <g
       id="Layer1001">
      <g
         id="Layer1002">
        <path
           d="  M544.3820,313.3339 C603.0215,274.1072 636.3573,224.1701 626.4502,179.5880 C609.5812,104.2137 477.4422,69.5387 331.3790,102.2056 C185.1824,134.7384 80.3548,222.4295 97.2238,297.8038 C108.6035,348.9461 173.1335,381.3446 259.2183,386.7001 L247.8386,386.5663 L228.6936,386.5663 L216.7785,430.8805 L174.0707,388.5744 L176.3467,378.8011 L126.1416,378.8011 L91.3328,504.2467 L172.8656,504.2467 L183.3081,460.6018 L227.3548,505.3176 L286.5298,505.3176 C286.5298,505.3176 327.4970,507.1919 350.6581,487.3778 L345.8385,503.7112 L422.4175,503.7112 L435.6715,485.7714 L465.7945,485.7714 L470.2124,503.0420 L542.2402,503.0416 L554.0216,458.3257 L599.4066,503.3095 L673.0404,503.4433 L685.2235,502.9078 C707.4474,501.1673 725.7890,483.3612 725.7890,461.0035 C725.7890,461.0035 727.9313,436.1018 706.5103,424.8558 L721.5049,424.8558 C721.5049,424.8558 736.7670,424.4541 743.4613,415.2167 C746.8083,410.5309 750.0215,403.8370 750.1552,396.6072 L750.5569,388.7082 L750.2890,380.2737 L726.1907,380.2741 L743.9968,313.2006 L549.8712,313.2001 L544.3820,313.3339 L544.3820,313.3339 Z"
           style="fill-rule: evenodd; fill: #ffffff; "
           id="path1" />
        <defs
           id="defs5">
          <linearGradient
             id="grad1">
            <stop
               offset="0.0000%"
               stop-color="#004081"
               stop-opacity="1.0000"
               id="stop1" />
            <stop
               offset="11.0000%"
               stop-color="#00488a"
               stop-opacity="1.0000"
               id="stop2" />
            <stop
               offset="49.0000%"
               stop-color="#0061a5"
               stop-opacity="1.0000"
               id="stop3" />
            <stop
               offset="80.0000%"
               stop-color="#0070b8"
               stop-opacity="1.0000"
               id="stop4" />
            <stop
               offset="100.0000%"
               stop-color="#0077c0"
               stop-opacity="1.0000"
               id="stop5" />
          </linearGradient>
          <linearGradient
             xlink:href="#grad1"
             id="grad2"
             x1="0"
             y1="0"
             x2="0"
             y2="1"
             gradientTransform="rotate(146 .5 .5)"
             gradientUnits="objectBoundingBox" />
        </defs>
        <path
           d="  M184.6470,365.5470 C212.2264,362.3339 247.9719,350.9541 284.1195,327.6593 C284.1195,327.6593 260.5567,331.2742 233.1115,330.3370 C205.8000,329.3998 174.7399,323.9106 160.1470,305.8370 C174.2044,314.1377 199.9091,317.0830 238.1990,305.8370 C234.8521,305.0336 219.4558,301.8204 207.2726,291.6458 C195.2233,281.6050 186.2534,264.7361 195.4912,237.2908 C194.9558,250.8128 203.2560,263.5314 228.5594,266.7446 C227.2206,262.3267 223.3382,253.0888 226.4172,238.3622 C229.4966,223.7693 239.6712,203.9551 266.1793,178.1163 C254.6658,192.5754 247.8377,209.1764 256.4059,222.0287 C260.5563,213.5942 266.4468,202.2145 280.6380,187.7554 C294.5616,173.5642 316.6514,156.5615 352.7991,136.7473 C333.5203,149.3322 315.0450,165.7994 307.9494,183.4713 C319.8646,172.8950 333.3866,161.9165 354.0042,150.9385 C374.4880,140.0943 401.9332,129.1163 441.9633,118.4058 C417.7312,126.9740 390.9552,140.2280 369.9359,158.5696 C385.5998,150.8048 404.0755,142.6378 428.0396,136.8811 C451.8704,131.1244 481.1899,127.7774 518.4085,129.6517 C492.8376,131.1244 461.5095,137.5507 429.6460,152.4112 C441.6953,150.2689 462.3125,147.1899 485.6078,149.1980 C508.9027,151.2060 535.2770,158.1679 559.1077,176.5094 C539.2936,167.4058 510.3757,162.5857 473.1567,168.3429 C476.9054,169.4138 493.9080,174.2338 508.9027,187.0862 C524.0310,200.0727 537.1513,221.4933 532.3317,256.5700 C529.1185,235.4169 514.9273,216.0045 483.5997,206.9008 C486.5449,211.3187 490.6953,224.4389 489.2227,241.7096 C487.7501,259.2477 480.5207,281.2042 460.4386,303.0264 C446.5149,318.6902 434.7335,322.8406 434.7335,322.8406 C434.7335,322.8406 442.7662,313.8707 449.0584,299.6795 C455.3506,285.6220 460.0364,266.6113 453.4763,246.5291 C447.3179,281.7396 416.6594,310.7912 386.9382,330.4717 C356.8152,350.5538 327.7632,360.9963 326.2905,358.9882 C326.2905,358.9882 338.7412,350.2863 353.0666,337.0318 C367.2578,323.9115 381.8507,310.7912 389.6159,293.1193 C346.9081,336.3626 280.7717,363.1386 219.9903,366.3518 C201.2484,367.6893 188.1281,365.8150 184.6470,365.5470 L184.6470,365.5470 Z"
           style="fill: url(#grad2); "
           id="path5" />
        <path
           d="  M385.6006,220.6894 C380.1114,211.7195 362.0378,212.2549 345.1689,221.6266 C328.1662,231.1319 318.6608,246.2603 324.0158,255.3644 C329.5051,264.6023 347.8466,264.0664 364.9831,254.2935 C381.9857,244.7877 391.0899,229.5251 385.6006,220.6894 L385.6006,220.6894 Z"
           style="fill-rule: evenodd; fill: #ffffff; "
           id="path6" />
        <defs
           id="defs9">
          <linearGradient
             id="grad3">
            <stop
               offset="0.0000%"
               stop-color="#ed1b2f"
               stop-opacity="1.0000"
               id="stop6" />
            <stop
               offset="26.0000%"
               stop-color="#ed1b2f"
               stop-opacity="1.0000"
               id="stop7" />
            <stop
               offset="65.0000%"
               stop-color="#ffcc32"
               stop-opacity="1.0000"
               id="stop8" />
            <stop
               offset="100.0000%"
               stop-color="#ffcc32"
               stop-opacity="1.0000"
               id="stop9" />
          </linearGradient>
        </defs>
        <path
           d="  M511.0463,206.0965 C500.0683,187.0857 480.5216,177.5799 457.8959,174.6347 C435.2703,171.6894 409.5652,175.4381 386.0023,183.0691 C402.2016,176.6427 417.1962,172.2249 426.8358,170.7523 C454.1473,160.5772 478.6473,158.0337 497.3905,159.5063 C471.1500,153.7496 443.4368,155.3559 417.5984,161.5144 C391.6258,167.8066 367.5275,178.6508 348.3825,191.2356 C360.6994,181.8640 373.0163,174.0992 382.2541,169.9488 C402.2021,155.3559 425.3636,145.8506 445.4453,140.6293 C413.3143,146.2523 385.3331,156.5611 362.7075,169.0117 C339.9481,181.5965 322.5437,196.3232 312.2349,210.5144 C317.8579,200.4735 325.0872,191.5036 331.7815,185.7464 C341.0194,170.4843 358.2896,157.3640 375.5603,147.7244 C344.6339,161.9156 322.0082,177.8474 307.4153,193.2437 C292.6887,208.7738 285.9948,223.7684 287.1994,235.9515 C284.3879,227.9187 284.5217,220.0197 287.0657,214.1293 C283.5850,202.0799 291.7515,188.0229 303.1312,176.3752 C279.1667,196.3232 266.8498,214.3972 263.9046,228.9901 C260.9593,243.8510 267.5195,254.9627 281.3090,261.2554 C269.6613,258.1759 261.7623,253.6243 259.0850,249.2060 C242.2161,243.9847 238.7354,232.4708 241.5469,220.9573 C219.1891,265.4053 251.3202,284.0148 298.9813,277.8563 C281.1752,281.7387 266.4485,282.9439 258.4158,281.7387 C238.4679,288.8343 213.8337,282.1404 205.5334,274.1077 C213.6999,292.3155 233.2466,300.0803 257.6128,299.9465 C281.9791,299.8128 310.7632,291.6458 337.1375,278.5260 C319.1976,288.9685 302.1949,296.8675 290.8152,300.0807 C283.3179,312.1301 232.1757,320.5646 212.2277,320.5646 C232.7116,324.8487 260.1568,323.9115 283.7196,318.5565 C320.5365,310.1220 355.3453,287.4964 382.2550,261.7913 C382.2550,261.7913 382.3888,261.6575 382.3888,261.6575 C382.3888,261.7913 382.2550,261.7913 382.2550,261.7913 C374.0885,273.9744 334.5939,304.6328 334.5939,304.6328 C331.5145,316.6822 295.5010,333.2831 257.7470,351.0892 C300.1869,340.5129 346.1078,321.3680 378.9081,291.6467 C394.9736,277.1876 404.2115,264.6032 409.4328,255.0974 C416.6621,241.9771 416.5284,234.0781 416.5284,234.0781 C416.5284,234.0781 416.5284,234.0781 416.5284,234.0781 C418.6706,249.6081 410.3699,264.8702 410.3699,264.8702 C406.8892,303.5614 371.8125,327.5260 371.8125,327.5260 C379.8453,322.9739 389.6186,316.1463 389.6186,316.1463 C420.1433,291.1108 435.9408,268.0834 441.0283,249.2064 C445.9821,230.4632 440.3591,215.4686 428.0418,206.3649 C439.0198,211.8541 446.6513,218.5480 448.9269,224.4385 C467.9377,235.4165 471.9543,253.0888 467.9377,270.7607 C481.7272,241.8429 479.5853,221.2253 468.4731,207.8371 C457.4951,194.5830 437.6810,188.1566 415.4565,187.8891 C431.5221,186.8182 445.1778,187.4874 452.6751,189.6297 C481.1908,188.5579 500.0678,195.9215 511.0463,206.0965 L511.0463,206.0965 L511.0463,206.0965 Z Z M382.9229,261.6566 L382.9229,261.6566 L382.9229,261.6566 L382.9229,261.6566 Z Z M361.6361,250.4107 L361.6361,250.4107 C344.4997,259.9160 326.1581,260.3177 320.8027,251.4816 C315.4476,242.6454 324.9530,227.9187 341.9557,218.5471 C358.8246,209.3092 376.8982,208.9080 382.3875,217.6100 C387.8767,226.3124 378.6388,241.0390 361.6361,250.4107 Z"
           style="fill: url(#grad3); "
           id="path9" />
        <path
           d="  M516.5350,180.1239 C579.9942,196.9928 585.0817,266.8779 499.9341,303.9627 C570.6225,262.7275 553.0844,201.9461 516.4013,180.3918 L516.5350,180.1239 L516.5350,180.1239 Z"
           style="fill-rule: evenodd; fill: #f79433; "
           id="path10" />
        <path
           d="  M507.9668,314.0035 C607.9749,278.6593 638.9012,136.4789 509.4395,141.2985 C584.1445,117.2002 620.6934,161.6481 609.0462,213.9951 C603.0215,241.1728 585.7513,265.0031 564.5983,282.6755 C547.7289,296.8671 527.9148,307.5771 507.9668,314.0035 Z"
           style="fill-rule: evenodd; fill: #00a65d; "
           id="path11" />
        <path
           d="  M208.6115,302.8913 C135.7808,291.1099 144.7507,209.9789 238.4665,180.7931 C155.9966,220.1539 163.7614,291.9133 208.7453,302.4896 L208.6115,302.8913 L208.6115,302.8913 Z"
           style="fill-rule: evenodd; fill: #00a65d; "
           id="path12" />
        <path
           d="  M228.9611,167.4053 C125.7399,191.6373 75.4011,332.0776 204.5949,341.3150 C93.3409,364.2086 77.9446,254.1593 166.9746,194.5826 C180.2287,185.7464 195.0895,178.2491 210.2179,172.8941 C216.3768,170.6181 222.5352,168.8779 228.9611,167.4053 L228.9611,167.4053 Z"
           style="fill-rule: evenodd; fill: #f79433; "
           id="path13" />
        <path
           d="  M477.8439,316.9488 L440.2236,342.3859 L440.0898,342.1184 L416.7945,317.8859 L400.9970,376.1238 L417.5979,376.1238 L425.3632,347.6072 L436.3412,359.3886 L452.9422,348.2769 L445.3111,376.1238 L462.0458,376.1238 L477.8439,316.9488 Z"
           style="fill-rule: evenodd; fill: #ffffff; "
           id="path14" />
        <defs
           id="defs18">
          <linearGradient
             id="grad4">
            <stop
               offset="0.0000%"
               stop-color="#003b7a"
               stop-opacity="1.0000"
               id="stop14" />
            <stop
               offset="18.0000%"
               stop-color="#004080"
               stop-opacity="1.0000"
               id="stop15" />
            <stop
               offset="48.0000%"
               stop-color="#004d90"
               stop-opacity="1.0000"
               id="stop16" />
            <stop
               offset="86.0000%"
               stop-color="#0062aa"
               stop-opacity="1.0000"
               id="stop17" />
            <stop
               offset="100.0000%"
               stop-color="#006cb7"
               stop-opacity="1.0000"
               id="stop18" />
          </linearGradient>
          <linearGradient
             xlink:href="#grad4"
             id="grad5"
             x1="0"
             y1="0"
             x2="0"
             y2="1"
             gradientTransform="rotate(-0 .5 .5)"
             gradientUnits="objectBoundingBox" />
        </defs>
        <path
           d="  M491.6334,374.5170 C483.7343,374.5170 477.1742,372.3747 473.2918,368.3585 C469.4094,364.6099 468.2043,359.3886 469.6769,353.7656 L477.7097,324.1781 L488.9561,324.1786 L481.5925,351.2221 C480.2536,356.1759 481.0571,360.4600 484.0023,363.4052 C486.2783,365.6812 489.7590,366.8859 494.0431,366.8859 C503.6823,366.8859 512.1167,360.5937 514.5270,351.7576 L522.0243,324.1781 L533.2702,324.1786 L525.3712,353.2306 C522.0243,365.4133 507.5651,374.5170 491.6334,374.5170 L491.6334,374.5170 L491.6334,374.5170 Z"
           style="fill: url(#grad5); "
           id="path18" />
        <defs
           id="defs23">
          <linearGradient
             id="grad6">
            <stop
               offset="0.0000%"
               stop-color="#003b7a"
               stop-opacity="1.0000"
               id="stop19" />
            <stop
               offset="18.0000%"
               stop-color="#004080"
               stop-opacity="1.0000"
               id="stop20" />
            <stop
               offset="48.0000%"
               stop-color="#004d90"
               stop-opacity="1.0000"
               id="stop21" />
            <stop
               offset="86.0000%"
               stop-color="#0062aa"
               stop-opacity="1.0000"
               id="stop22" />
            <stop
               offset="100.0000%"
               stop-color="#006cb7"
               stop-opacity="1.0000"
               id="stop23" />
          </linearGradient>
          <linearGradient
             xlink:href="#grad6"
             id="grad7"
             x1="0"
             y1="0"
             x2="0"
             y2="1"
             gradientTransform="rotate(-0 .5 .5)"
             gradientUnits="objectBoundingBox" />
        </defs>
        <path
           d="  M688.5709,373.3123 L686.2948,363.8069 L659.6526,363.8069 L652.2890,373.3123 L640.6418,373.3123 L672.7729,333.9515 L680.9394,323.9106 L695.1306,323.9106 L691.6499,328.1947 L691.6499,328.3285 C690.7127,329.6673 690.3110,331.2737 690.5789,332.8805 L690.5789,333.0143 L700.8877,373.3123 L688.5709,373.3123 L688.5709,373.3123 Z Z M665.1418,356.7113 L684.6880,356.7113 L680.1360,337.2989 L665.1418,356.7113 L665.1418,356.7113 Z"
           style="fill: url(#grad7); "
           id="path23" />
        <path
           d="  M733.1525,321.2329 L716.4178,321.2329 L716.4178,321.2329 L701.6907,375.8558 L718.2921,375.8558 L733.1525,321.2329 Z"
           style="fill-rule: evenodd; fill: #ffffff; "
           id="path24" />
        <path
           d="  M649.0763,337.5664 C650.5489,331.9434 648.5408,328.3285 646.5327,326.3204 C643.4533,323.2410 638.3662,321.5008 632.2078,321.5008 L596.5952,321.5008 L581.7343,376.1238 L620.6934,376.1238 C633.2783,376.1238 643.8546,369.4299 646.5323,359.9245 C648.0049,354.4353 646.1306,349.8837 641.4448,347.0722 C645.3276,344.7957 648.0049,341.4488 649.0763,337.5664 Z Z M630.1993,358.5856 C629.5301,361.2634 625.9152,363.2715 621.8986,363.2715 L601.9506,363.2715 L604.3604,354.5695 L625.3792,354.5690 C627.2536,354.5690 628.8599,355.1045 629.6634,355.9079 C630.4668,356.8451 630.3330,357.7822 630.1993,358.5856 L630.1993,358.5856 Z Z M632.3411,337.5664 C631.8056,339.7086 629.3959,341.7167 625.3792,341.7167 L607.8411,341.7167 L609.8492,334.3532 L628.5924,334.3532 C629.6634,334.3532 631.2702,334.4869 631.9394,335.2903 C632.6090,336.0937 632.4748,337.1647 632.3411,337.5664 L632.3411,337.5664 Z"
           style="fill-rule: evenodd; fill: #ffffff; "
           id="path25" />
        <defs
           id="defs29">
          <linearGradient
             id="grad8">
            <stop
               offset="0.0000%"
               stop-color="#003b7a"
               stop-opacity="1.0000"
               id="stop25" />
            <stop
               offset="18.0000%"
               stop-color="#004080"
               stop-opacity="1.0000"
               id="stop26" />
            <stop
               offset="48.0000%"
               stop-color="#004d90"
               stop-opacity="1.0000"
               id="stop27" />
            <stop
               offset="86.0000%"
               stop-color="#0062aa"
               stop-opacity="1.0000"
               id="stop28" />
            <stop
               offset="100.0000%"
               stop-color="#006cb7"
               stop-opacity="1.0000"
               id="stop29" />
          </linearGradient>
          <linearGradient
             xlink:href="#grad8"
             id="grad9"
             x1="0"
             y1="0"
             x2="0"
             y2="1"
             gradientTransform="rotate(-0 .5 .5)"
             gradientUnits="objectBoundingBox" />
        </defs>
        <path
           d="  M585.2154,373.4461 L598.6032,324.0444 L632.2073,324.0444 C637.6966,324.0444 642.1144,325.5170 644.7922,328.0610 C646.9344,330.2033 647.6037,333.1485 646.6665,336.7629 C645.8631,339.9761 643.4533,342.7876 640.2401,344.7957 L636.3577,347.0717 L640.2401,349.3478 C643.9888,351.4900 645.3276,354.9707 644.1225,359.2549 C641.8465,367.6893 632.3411,373.5798 620.8276,373.5798 L585.2154,373.5798 L585.2154,373.4461 Z Z M598.6032,365.9487 L621.8986,365.9487 C627.1198,365.9487 631.6719,363.1373 632.7428,359.2549 C633.2783,357.2468 632.8766,355.3725 631.4039,354.0336 C630.0651,352.6947 627.9232,352.0255 625.2455,352.0255 L602.2181,352.0255 L598.6032,365.9487 L598.6032,365.9487 Z Z M604.3604,344.3940 L625.3792,344.3940 C630.8685,344.3940 634.0812,341.3146 634.8846,338.2356 C635.4201,336.3612 635.0184,334.6207 633.6795,333.4160 C632.6086,332.2109 630.7343,331.6754 628.4582,331.6754 L607.7074,331.6754 L604.3604,344.3940 Z"
           style="fill: url(#grad9); "
           id="path29" />
        <path
           d="  M565.8030,376.1238 L582.5377,376.1238 L597.2648,321.5008 L592.0435,321.5008 L560.7155,342.3859 L540.7675,321.5008 L536.2155,321.5008 L521.4888,376.1238 L538.0898,376.1238 L545.8546,347.6072 L556.9668,359.3886 L573.4340,348.2769 L565.8030,376.1238 Z"
           style="fill-rule: evenodd; fill: #ffffff; "
           id="path30" />
        <defs
           id="defs34">
          <linearGradient
             id="grad10">
            <stop
               offset="0.0000%"
               stop-color="#003b7a"
               stop-opacity="1.0000"
               id="stop30" />
            <stop
               offset="18.0000%"
               stop-color="#004080"
               stop-opacity="1.0000"
               id="stop31" />
            <stop
               offset="48.0000%"
               stop-color="#004d90"
               stop-opacity="1.0000"
               id="stop32" />
            <stop
               offset="86.0000%"
               stop-color="#0062aa"
               stop-opacity="1.0000"
               id="stop33" />
            <stop
               offset="100.0000%"
               stop-color="#006cb7"
               stop-opacity="1.0000"
               id="stop34" />
          </linearGradient>
          <linearGradient
             xlink:href="#grad10"
             id="grad11"
             x1="0"
             y1="0"
             x2="0"
             y2="1"
             gradientTransform="rotate(-0 .5 .5)"
             gradientUnits="objectBoundingBox" />
        </defs>
        <path
           d="  M717.2208,371.5717 C717.2208,371.5717 717.2208,371.3038 717.3545,370.9025 L729.9393,323.9106 L718.9613,323.9106 L705.1718,373.1785 L705.5736,373.1785 L716.6858,373.1785 L716.6858,373.1785 L716.6853,373.1785 L718.2921,373.1785 C717.3550,372.7768 717.2208,372.2414 717.2208,371.5717 L717.2208,371.5717 Z"
           style="fill: url(#grad11); "
           id="path34" />
        <defs
           id="defs39">
          <linearGradient
             id="grad12">
            <stop
               offset="0.0000%"
               stop-color="#003b7a"
               stop-opacity="1.0000"
               id="stop35" />
            <stop
               offset="18.0000%"
               stop-color="#004080"
               stop-opacity="1.0000"
               id="stop36" />
            <stop
               offset="48.0000%"
               stop-color="#004d90"
               stop-opacity="1.0000"
               id="stop37" />
            <stop
               offset="86.0000%"
               stop-color="#0062aa"
               stop-opacity="1.0000"
               id="stop38" />
            <stop
               offset="100.0000%"
               stop-color="#006cb7"
               stop-opacity="1.0000"
               id="stop39" />
          </linearGradient>
          <linearGradient
             xlink:href="#grad12"
             id="grad13"
             x1="0"
             y1="0"
             x2="0"
             y2="1"
             gradientTransform="rotate(-0 .5 .5)"
             gradientUnits="objectBoundingBox" />
        </defs>
        <path
           d="  M581.0651,372.1072 C581.0651,372.1072 581.0651,371.8392 581.0651,371.5717 L582.8057,365.1453 L593.9179,324.3119 L592.9807,324.3123 L560.4480,346.0008 L539.6962,324.1786 L538.3577,324.1786 L524.9700,373.5803 L536.2155,373.5798 L544.6499,342.3859 L557.3685,356.0417 L577.8523,342.1180 L569.2841,373.7136 L580.5301,373.5798 L582.0027,373.5798 C581.0651,373.0443 581.0651,372.6426 581.0651,372.1072 L581.0651,372.1072 Z"
           style="fill: url(#grad13); "
           id="path39" />
        <defs
           id="defs44">
          <linearGradient
             id="grad14">
            <stop
               offset="0.0000%"
               stop-color="#003b7a"
               stop-opacity="1.0000"
               id="stop40" />
            <stop
               offset="18.0000%"
               stop-color="#004080"
               stop-opacity="1.0000"
               id="stop41" />
            <stop
               offset="48.0000%"
               stop-color="#004d90"
               stop-opacity="1.0000"
               id="stop42" />
            <stop
               offset="86.0000%"
               stop-color="#0062aa"
               stop-opacity="1.0000"
               id="stop43" />
            <stop
               offset="100.0000%"
               stop-color="#006cb7"
               stop-opacity="1.0000"
               id="stop44" />
          </linearGradient>
          <linearGradient
             xlink:href="#grad14"
             id="grad15"
             x1="0"
             y1="0"
             x2="0"
             y2="1"
             gradientTransform="rotate(-0 .5 .5)"
             gradientUnits="objectBoundingBox" />
        </defs>
        <path
           d="  M460.4395,372.1072 C460.4395,372.1072 460.4395,371.9734 460.4395,371.9734 L474.0952,322.7055 L439.9556,345.8666 L418.1334,323.1072 L404.4777,373.5798 L415.7236,373.5798 L424.1581,342.3859 L436.8767,356.0417 L457.3605,342.1180 L448.7923,373.5798 L449.3273,373.5798 L449.3273,373.5798 L449.4615,373.5798 L455.8874,373.5798 L459.9040,373.5798 L460.0378,373.5798 L460.0378,373.5798 L461.5104,373.5798 C460.4395,373.0443 460.4395,372.6426 460.4395,372.1072 L460.4395,372.1072 Z"
           style="fill: url(#grad15); "
           id="path44" />
        <path
           d="  M358.0217,474.2575 L351.4615,499.1592 L419.4723,499.1592 L432.7263,481.4868 L469.5432,481.4873 L473.8273,498.4900 L539.2945,498.4900 L551.8793,450.4272 L601.2810,499.0254 L668.7562,499.0254 L680.9394,498.4900 C703.1633,496.7494 721.5049,480.6839 721.5049,458.3262 C721.5049,452.0340 720.0323,446.1431 717.4883,440.9218 C717.4883,440.9218 710.5264,423.2494 683.3487,424.4546 C683.3487,424.4546 672.1027,424.3208 669.2913,424.4546 C666.6135,424.5883 664.6054,424.3208 664.6054,424.3208 C665.4089,424.3208 663.9362,424.3208 663.8020,423.5174 C663.6683,422.9819 664.0700,422.3123 664.6054,422.0448 C664.6054,422.0448 667.0152,420.1704 678.3949,420.1704 C689.6409,420.1704 716.8186,420.1704 716.8186,420.1704 C716.8186,420.1704 733.0179,421.1076 739.7122,411.8697 C743.5946,406.3805 745.6032,399.5529 745.7369,392.3231 L745.7369,384.9595 L683.7504,385.0933 C683.7504,385.0933 656.3052,384.1561 640.6409,396.4730 L642.3815,389.7791 L602.2181,389.7795 L589.4996,437.7086 L541.8384,390.3150 L535.9475,390.3150 L589.2316,443.1974 C589.2316,443.1974 590.4367,444.2683 591.7751,443.8666 C592.9803,443.5986 593.3815,442.7957 593.6495,441.7243 C593.9174,440.6534 606.1001,393.9290 606.1001,393.9290 L636.8932,393.9299 L631.6719,413.4765 C631.6719,413.4765 640.2401,388.4411 683.8851,389.2445 C696.0682,389.5125 741.1857,389.2445 741.1857,389.2445 L741.1857,392.3240 C741.0520,398.8841 739.0435,404.9088 735.5628,409.8621 C735.5628,409.8621 729.9398,416.5560 716.1503,415.6188 L678.1279,415.6184 C664.3384,415.6184 660.7235,419.7687 660.7235,419.7687 C659.5184,420.7059 658.8492,422.0448 658.8492,423.6511 C658.8492,426.3289 661.3927,427.8015 663.9367,427.9353 C663.9367,427.9353 675.4501,429.0062 683.0816,428.4707 C690.7127,427.9353 705.7073,429.8096 712.2674,441.5910 C715.0789,446.5448 716.4178,452.3015 716.4178,458.3262 C716.4178,478.2741 700.0843,493.1349 678.2621,494.6076 L603.6912,494.7413 L553.0848,445.4734 C553.0848,445.4734 551.7460,443.3311 550.0054,443.7328 C548.2648,444.1345 548.1311,446.5443 548.1311,446.5443 L536.0817,494.2054 L476.7729,494.2059 L472.3551,477.0694 L430.3165,477.0690 L416.9287,494.7413 L356.5486,494.7413 L368.0621,451.0964 C368.0621,451.0964 353.8709,492.5990 294.1604,495.1430 L231.5047,495.4110 L181.1658,446.5448 C181.1658,446.5448 180.4966,444.9384 178.8898,445.3396 C177.2834,445.7413 176.8817,448.8203 176.8817,448.8203 L165.1003,494.7413 L103.5160,494.7413 L133.3710,388.5749 L168.1797,388.5749 L169.5186,383.8890 L130.1582,383.8886 L98.1609,499.5609 L168.5815,499.5609 L181.0321,451.7656 L229.8983,499.8284 L284.6555,499.8288 C284.6555,499.8288 332.3166,503.0416 358.0217,474.2575 Z"
           style="fill-rule: evenodd; fill: #ed1c24; "
           id="path45" />
        <path
           d="  M165.3683,392.5910 L218.1169,444.5362 C218.1169,444.5362 219.0541,445.7413 220.5267,445.3396 C222.1330,445.0717 222.4010,442.9299 222.4010,442.9299 L235.1196,395.5363 L312.5024,395.5363 C312.5024,395.5363 329.9068,394.3311 345.4368,399.9541 C360.9669,405.4433 374.8906,421.1072 371.5432,439.8504 L383.4584,395.0008 L414.2510,395.0008 L389.4830,487.3778 L464.5898,394.4653 L502.6118,394.4653 L491.6338,407.9873 C491.6338,407.9873 487.0817,412.0039 489.6257,418.1624 L507.2981,486.0394 L533.1369,390.1812 L528.4502,390.1812 L507.4309,469.4379 L493.9089,417.7602 C493.9089,417.7602 492.0346,413.6099 496.0512,409.4595 L511.3133,390.5825 L462.1800,390.5829 L398.7209,469.0367 L419.4723,390.5829 L379.9777,390.5829 L372.4804,418.8316 C372.4804,418.8316 366.4557,403.4353 346.5078,396.3397 C328.3000,389.9133 312.1007,391.6539 312.1007,391.6539 L231.3714,391.6539 L218.6528,439.1812 L171.2592,392.5910 L165.3683,392.5910 L165.3683,392.5910 Z"
           style="fill-rule: evenodd; fill: #ed1c24; "
           id="path46" />
        <path
           d="  M296.4369,467.4298 C315.8493,467.2961 332.5845,457.2548 336.1990,443.4653 C337.2699,439.7167 337.5378,434.2274 332.9858,429.8096 C328.8354,425.6592 321.7398,423.5174 312.3682,423.6511 L292.1523,423.6511 L280.5046,467.5636 L296.4369,467.4298 L296.4369,467.4298 Z"
           style="fill-rule: evenodd; fill: #ffffff; "
           id="path47" />
        <path
           d="  M361.3686,410.2629 C354.5405,403.4348 341.1527,395.5363 316.5190,395.6700 L264.4396,395.9380 L238.1990,495.4105 L292.0186,495.2768 C330.1743,495.4105 362.8408,473.8562 370.2043,445.8751 C373.9530,432.0856 370.8740,419.5008 361.3686,410.2629 L361.3686,410.2629 Z Z M340.3493,444.4025 C336.1990,460.2005 317.7237,471.5802 296.4369,471.7140 L274.8821,471.7140 L288.9396,418.9653 L312.5024,418.9653 C322.9449,418.8316 331.1119,421.5089 336.1990,426.4626 C340.7510,431.0142 342.2236,437.4406 340.3493,444.4025 L340.3493,444.4025 Z"
           style="fill-rule: evenodd; fill: #ffffff; "
           id="path48" />
        <defs
           id="defs52">
          <linearGradient
             id="grad16">
            <stop
               offset="0.0000%"
               stop-color="#003b7a"
               stop-opacity="1.0000"
               id="stop48" />
            <stop
               offset="18.0000%"
               stop-color="#004080"
               stop-opacity="1.0000"
               id="stop49" />
            <stop
               offset="48.0000%"
               stop-color="#004d90"
               stop-opacity="1.0000"
               id="stop50" />
            <stop
               offset="86.0000%"
               stop-color="#0062aa"
               stop-opacity="1.0000"
               id="stop51" />
            <stop
               offset="100.0000%"
               stop-color="#006cb7"
               stop-opacity="1.0000"
               id="stop52" />
          </linearGradient>
          <linearGradient
             xlink:href="#grad16"
             id="grad17"
             x1="0"
             y1="0"
             x2="0"
             y2="1"
             gradientTransform="rotate(-0 .5 .5)"
             gradientUnits="objectBoundingBox" />
        </defs>
        <path
           d="  M135.6470,490.7247 C133.6389,490.0555 133.5047,488.8504 133.5047,487.5115 C133.5047,487.5115 133.5047,486.8423 133.6385,486.3064 L158.5402,392.5906 L137.1196,392.5910 L109.8081,490.7247 L135.6470,490.7247 Z"
           style="fill: url(#grad17); "
           id="path52" />
        <path
           d="  M340.3493,444.4025 C336.1990,460.2005 317.7237,471.5802 296.4369,471.7140 L274.8821,471.7140 L288.9396,418.9653 L312.5024,418.9653 C322.9449,418.8316 331.1119,421.5089 336.1990,426.4626 C340.7510,431.0142 342.2236,437.4406 340.3493,444.4025 L340.3493,444.4025 Z"
           style="fill-rule: evenodd; fill: #ed1b2f; "
           id="path53" />
        <path
           d="  M296.4369,467.4298 C315.8493,467.2961 332.5845,457.2548 336.1990,443.4653 C337.2699,439.7167 337.5378,434.2274 332.9858,429.8096 C328.8354,425.6592 321.7398,423.5174 312.3682,423.6511 L292.1523,423.6511 L280.5046,467.5636 L296.4369,467.4298 L296.4369,467.4298 Z"
           style="fill-rule: evenodd; fill: #ffffff; "
           id="path54" />
        <path
           d="  M467.1334,454.4433 L448.1226,454.4433 L462.7155,436.5035 L467.1334,454.4433 Z"
           style="fill-rule: evenodd; fill: #ed1c24; "
           id="path55" />
        <path
           d="  M688.5709,457.2548 C685.8931,454.8450 683.7513,454.9788 677.0574,455.1125 L668.0875,455.1125 C660.3227,454.8446 653.6283,453.6399 646.9344,451.0959 C642.7841,449.4896 638.5000,446.8118 638.3662,446.6781 C629.2625,440.1179 628.4591,432.0852 628.7271,427.6673 C628.7271,427.1318 628.7271,426.3284 628.8608,425.2575 L616.5440,471.3123 C620.0247,468.7687 624.3088,467.2956 628.8608,467.2956 L672.2378,468.3666 C676.3882,467.9649 687.6342,468.3666 689.2405,462.3419 C689.6418,461.0035 689.5076,458.0582 688.5709,457.2548 L688.5709,457.2548 Z Z M672.3711,464.0829 L628.9941,463.0120 C626.7181,463.0120 624.4421,463.2799 622.4340,463.9491 L628.3249,441.8589 C630.0655,444.5367 632.7428,447.2140 636.3577,449.6238 C647.2019,456.8531 659.7868,458.5937 668.0870,458.8616 L677.3249,458.9954 C682.5462,458.9954 685.0897,458.5937 685.4914,460.0663 C686.1606,463.2795 682.0107,463.9487 672.3711,464.0829 Z"
           style="fill-rule: evenodd; fill: #ed1b2f; "
           id="path56" />
        <defs
           id="defs60">
          <linearGradient
             id="grad18">
            <stop
               offset="0.0000%"
               stop-color="#003b7a"
               stop-opacity="1.0000"
               id="stop56" />
            <stop
               offset="18.0000%"
               stop-color="#004080"
               stop-opacity="1.0000"
               id="stop57" />
            <stop
               offset="48.0000%"
               stop-color="#004d90"
               stop-opacity="1.0000"
               id="stop58" />
            <stop
               offset="86.0000%"
               stop-color="#0062aa"
               stop-opacity="1.0000"
               id="stop59" />
            <stop
               offset="100.0000%"
               stop-color="#006cb7"
               stop-opacity="1.0000"
               id="stop60" />
          </linearGradient>
          <linearGradient
             xlink:href="#grad18"
             id="grad19"
             x1="0"
             y1="0"
             x2="0"
             y2="1"
             gradientTransform="rotate(-0 .5 .5)"
             gradientUnits="objectBoundingBox" />
        </defs>
        <path
           d="  M480.5216,489.3859 L476.3712,472.1152 L428.4422,472.3832 L415.0544,489.7876 L392.8304,489.9213 L451.4700,417.3585 L466.3309,398.8832 L493.1069,398.7494 L486.2783,407.1839 L486.1446,407.3177 C484.5382,409.7275 483.8685,412.5389 484.1365,415.2167 L484.1365,415.4846 L503.4152,489.2525 L480.5216,489.3859 L480.5216,489.3859 Z Z M439.0189,458.4599 L473.2922,458.3262 L465.2595,424.5883 L439.0189,458.4599 Z"
           style="fill: url(#grad19); "
           id="path60" />
        <defs
           id="defs65">
          <linearGradient
             id="grad20">
            <stop
               offset="0.0000%"
               stop-color="#003b7a"
               stop-opacity="1.0000"
               id="stop61" />
            <stop
               offset="18.0000%"
               stop-color="#004080"
               stop-opacity="1.0000"
               id="stop62" />
            <stop
               offset="48.0000%"
               stop-color="#004d90"
               stop-opacity="1.0000"
               id="stop63" />
            <stop
               offset="86.0000%"
               stop-color="#0062aa"
               stop-opacity="1.0000"
               id="stop64" />
            <stop
               offset="100.0000%"
               stop-color="#006cb7"
               stop-opacity="1.0000"
               id="stop65" />
          </linearGradient>
          <linearGradient
             xlink:href="#grad20"
             id="grad21"
             x1="0"
             y1="0"
             x2="0"
             y2="1"
             gradientTransform="rotate(-0 .5 .5)"
             gradientUnits="objectBoundingBox" />
        </defs>
        <path
           d="  M243.6882,490.5910 L267.7865,399.8204 L316.5185,399.5524 C339.6797,399.4187 351.9965,406.7818 358.1550,412.9402 C366.4557,421.1067 369.1330,432.2189 365.9198,444.2683 C358.9579,470.3746 327.2286,490.1893 291.8844,490.3230 L243.6882,490.5910 Z Z M268.9912,475.7301 L296.3027,475.5964 C319.4638,475.4626 339.8134,462.6098 344.4992,445.0717 C346.7753,436.5035 344.7672,428.6045 339.0100,422.9815 C333.1191,417.2248 323.8816,414.1453 312.2340,414.2795 L285.3242,414.4133 L268.9912,475.7301 L268.9912,475.7301 Z"
           style="fill: url(#grad21); "
           id="path65" />
        <defs
           id="defs70">
          <linearGradient
             id="grad22">
            <stop
               offset="0.0000%"
               stop-color="#003b7a"
               stop-opacity="1.0000"
               id="stop66" />
            <stop
               offset="18.0000%"
               stop-color="#004080"
               stop-opacity="1.0000"
               id="stop67" />
            <stop
               offset="48.0000%"
               stop-color="#004d90"
               stop-opacity="1.0000"
               id="stop68" />
            <stop
               offset="86.0000%"
               stop-color="#0062aa"
               stop-opacity="1.0000"
               id="stop69" />
            <stop
               offset="100.0000%"
               stop-color="#006cb7"
               stop-opacity="1.0000"
               id="stop70" />
          </linearGradient>
          <linearGradient
             xlink:href="#grad22"
             id="grad23"
             x1="0"
             y1="0"
             x2="0"
             y2="1"
             gradientTransform="rotate(-0 .5 .5)"
             gradientUnits="objectBoundingBox" />
        </defs>
        <path
           d="  M385.6006,486.7086 C385.6006,486.5748 386.0023,484.0308 386.0023,483.7633 C386.1361,482.2907 386.9395,479.3455 387.2075,478.1403 L408.2268,399.0174 L386.8062,399.1512 L364.9840,481.2193 L362.7079,489.9213 L362.7079,489.9213 L384.1285,489.7876 L384.5297,489.7876 L384.5297,489.7876 L387.7429,489.7876 C385.7344,488.8504 385.6006,488.0474 385.6006,486.7086 Z"
           style="fill: url(#grad23); "
           id="path70" />
        <defs
           id="defs75">
          <linearGradient
             id="grad24">
            <stop
               offset="0.0000%"
               stop-color="#003b7a"
               stop-opacity="1.0000"
               id="stop71" />
            <stop
               offset="18.0000%"
               stop-color="#004080"
               stop-opacity="1.0000"
               id="stop72" />
            <stop
               offset="48.0000%"
               stop-color="#004d90"
               stop-opacity="1.0000"
               id="stop73" />
            <stop
               offset="86.0000%"
               stop-color="#0062aa"
               stop-opacity="1.0000"
               id="stop74" />
            <stop
               offset="100.0000%"
               stop-color="#006cb7"
               stop-opacity="1.0000"
               id="stop75" />
          </linearGradient>
          <linearGradient
             xlink:href="#grad24"
             id="grad25"
             x1="0"
             y1="0"
             x2="0"
             y2="1"
             gradientTransform="rotate(-0 .5 .5)"
             gradientUnits="objectBoundingBox" />
        </defs>
        <path
           d="  M609.0462,398.0798 L599.0054,435.7001 L599.0054,435.7001 L599.0054,435.8338 L596.8631,443.7328 L596.7294,444.0008 L594.9888,450.4272 C594.1854,452.4352 592.5790,452.1677 591.6418,451.7660 L586.1526,446.4110 C586.1526,446.4110 586.0189,446.2773 585.8847,446.2773 L585.7509,446.1435 L576.1118,436.5044 L575.5763,435.9689 L575.5763,435.9689 L535.8138,396.0717 L511.0458,489.2521 L532.8681,489.1183 L532.8681,489.1183 L536.0813,489.1183 C534.2069,488.1812 534.0732,487.2440 534.0732,486.0389 C534.0732,485.9052 534.4749,483.3612 534.4749,483.0937 C534.7428,481.2193 535.8138,477.0690 535.8138,477.0690 L542.6419,451.6318 L542.6419,451.6318 L543.8470,446.9460 L544.9179,442.9294 L544.9179,442.9294 L546.5243,436.9047 C547.3277,434.8967 548.9340,435.1642 549.8712,435.5659 L554.8250,440.5196 L554.9587,440.6534 L559.3766,445.0712 L565.8030,451.3634 L565.8030,451.3643 L604.3604,489.7880 L606.2347,489.7876 L629.3959,402.8994 C629.7976,401.1588 630.4668,399.5524 631.2702,398.0798 L609.0462,398.0798 L609.0462,398.0798 Z"
           style="fill: url(#grad25); "
           id="path75" />
        <defs
           id="defs77">
          <linearGradient
             id="grad26">
            <stop
               offset="0%"
               stop-color="#004081"
               stop-opacity="1.0000"
               id="stop76" />
            <stop
               offset="100%"
               stop-color="#0077c0"
               stop-opacity="1.0000"
               id="stop77" />
          </linearGradient>
          <linearGradient
             xlink:href="#grad26"
             id="grad27"
             x1="0"
             y1="0"
             x2="0"
             y2="1"
             gradientTransform="rotate(-0 .5 .5)"
             gradientUnits="objectBoundingBox" />
        </defs>
        <path
           d="  M707.5816,442.2602 C710.3931,446.4106 712.4012,451.8993 712.4012,457.7903 C712.4012,475.1947 696.7374,488.1812 682.1445,489.1183 L671.3002,489.7876 C667.5516,489.9213 664.7401,489.9213 664.2046,489.9213 C664.2046,489.9213 659.2509,490.0551 653.4941,489.7876 C615.2047,487.7795 611.7235,490.0555 611.7235,490.0555 C611.5898,488.8504 611.8573,487.1103 611.9915,486.0389 C612.1252,485.2355 612.3932,484.1646 612.7949,483.0937 C615.3384,476.1318 621.3631,471.4460 628.9941,471.4460 L672.2374,472.5169 C676.6553,472.5169 690.1772,472.3832 693.5242,462.7436 C694.8631,458.9949 693.6579,456.3172 692.7208,455.1125 C690.3110,451.7656 685.4914,450.4267 677.0570,450.4267 L668.2208,450.2930 C661.6606,450.0250 652.5570,448.2849 646.9340,446.0089 C643.0516,444.4025 640.9093,442.6619 640.9093,442.6619 C633.8137,437.4406 632.7428,431.1484 633.0103,427.2656 C633.1441,423.6507 634.2154,395.1346 678.6633,393.6619 C678.6633,393.6619 683.3491,393.3940 685.6252,393.3940 L699.8164,393.5277 C704.3684,393.7957 711.5978,393.7957 716.2836,393.9294 C719.4968,393.9294 722.0403,393.9294 725.2535,393.9294 C728.6005,393.7957 732.4829,393.7957 736.6332,392.9923 C736.6332,392.9923 736.4995,397.6781 735.5623,400.3558 C733.0188,407.3177 728.3330,410.6646 720.7015,410.6646 L676.3877,411.2001 C671.9699,411.3338 657.6445,411.7355 654.9672,420.8392 L654.9672,420.9730 C654.1638,423.5165 654.4317,426.0605 655.9044,428.0686 C658.3141,431.4155 663.1337,432.7544 671.5682,432.7544 L686.2948,432.6206 C686.4286,432.7548 700.7535,431.9514 707.5816,442.2602 L707.5816,442.2602 Z"
           style="fill: url(#grad27); "
           id="path77" />
        <g
           id="Layer1003">
          <path
             d="  M479.9861,315.4762 L481.0571,311.7275 L440.7591,339.0390 L415.5899,312.7984 L397.6500,378.9348 L419.7402,378.9353 L426.8358,352.9627 L436.0737,363.0035 L448.5243,354.5690 L441.9642,378.9353 L464.0544,378.9353 L466.7321,368.8944 C466.7321,368.8944 471.1500,376.3917 481.8605,378.8015 C496.4534,382.4164 509.1719,376.5255 511.4480,375.5883 C513.9915,374.3832 518.1419,371.9734 520.5517,369.8316 L518.1419,378.9353 L540.3658,378.9353 L547.3277,352.9627 L556.5655,363.0035 L569.0162,354.5690 L562.4560,378.9353 L619.6225,378.9353 C619.6225,378.9353 628.1907,379.4707 635.5543,375.8558 L640.9093,369.1619 C640.9093,369.1619 637.9641,371.9734 633.9475,373.5798 C629.9309,375.3204 625.6468,376.3913 619.3546,376.2575 L565.9367,376.2575 L573.5678,348.2769 L557.1006,359.5228 L546.1226,347.7414 L538.3577,376.2580 L521.6226,376.2575 L526.4421,358.3177 C526.4421,358.3177 523.7644,364.6099 516.6688,369.5636 C511.3138,373.3123 505.0211,375.9900 497.6580,376.9272 C494.7128,377.3289 485.3412,378.1323 477.7101,374.5174 C475.4341,373.4465 467.2676,369.2961 466.5979,359.6566 L462.1800,376.2575 L445.4449,376.2575 L453.0759,348.4106 L436.6087,359.6566 L425.6307,347.8751 L417.8659,376.3917 L401.1307,376.3913 L416.9287,318.1534 L440.4915,342.5197 L479.9861,315.4762 L479.9861,315.4762 Z"
             style="fill-rule: evenodd; fill: #ed1c24; "
             id="path78" />
          <path
             d="  M479.0490,318.8231 L478.3798,321.5008 L492.3030,321.5008 L484.5382,350.1512 C484.5382,350.1512 482.3959,355.9079 484.4045,359.7903 C486.5467,363.5390 492.3035,365.8150 500.0683,363.2710 C501.6746,362.7356 509.0382,359.9241 511.5817,351.7576 C511.8497,350.8204 515.7321,336.2275 515.7321,336.2275 L519.7487,321.5008 L540.4996,321.5008 L560.5817,342.3859 L592.0435,321.5008 L631.9394,321.5008 C631.9394,321.5008 642.7836,320.9654 647.6032,327.5255 C652.8245,335.2903 646.1306,343.0556 646.1306,343.0556 C646.1306,343.0556 644.1225,345.4654 641.3110,347.0722 C641.3110,347.0722 651.3519,352.1597 644.6580,364.2086 L679.6005,321.3671 L700.4860,321.3671 L693.9259,329.3998 C693.9259,329.3998 692.3195,330.8725 692.9887,333.1485 C693.7921,335.5583 702.7621,371.1705 702.7621,371.1705 L716.2840,321.0996 L733.0188,321.0991 L718.1579,375.7221 L686.2948,375.7221 L684.0188,366.2167 L660.7235,366.2167 L653.3599,375.7221 L638.3658,375.7221 L636.2235,378.3998 L654.6993,378.3998 L662.0628,368.8944 L682.0107,368.8940 L684.2868,378.3994 L720.3002,378.3998 L736.4995,318.4218 L714.4093,318.4214 L702.8958,360.7275 L695.6665,332.6126 C695.6665,332.6126 695.2648,331.6754 696.0682,330.7383 C696.8716,329.8011 706.1090,318.5551 706.1090,318.5551 L678.3958,318.5556 L649.4780,354.0336 C649.4780,354.0336 649.2100,350.4187 645.7293,346.9380 C645.7293,346.9380 652.9587,341.5830 652.0215,331.8096 C651.7536,329.5336 649.8792,320.1620 635.0188,318.6893 C634.0817,318.5556 631.4039,318.5556 631.4039,318.5556 L591.1064,318.5556 L560.9834,338.6377 L541.7047,318.5556 L517.7402,318.5556 L509.3057,349.8837 C509.3057,349.8837 507.5651,357.7827 498.9969,360.5942 C496.7209,361.2634 491.0979,362.3347 487.8847,359.7908 C484.6715,357.2472 486.5458,351.8918 486.5458,351.8918 L495.5158,318.5556 L479.0490,318.8231 L479.0490,318.8231 Z"
             style="fill-rule: evenodd; fill: #ed1c24; "
             id="path79" />
          <g
             id="Layer1004">
            <path
               d="  M628.7262,334.3532 L609.7154,334.3532 L607.7074,341.7167 L625.7810,341.7167 C629.2617,341.5830 632.2073,339.5744 632.4748,336.8971 C632.7428,334.3532 628.7262,334.3532 628.7262,334.3532 L628.7262,334.3532 Z Z M626.1827,339.1727 L611.3218,339.1727 L611.8573,337.0305 L628.5924,337.0309 C628.5924,337.0309 629.6634,337.0309 629.7976,337.1647 C630.0651,337.2984 628.4587,339.0390 626.1827,339.1727 Z"
               style="fill-rule: evenodd; fill: #ed1c24; "
               id="path80" />
            <path
               d="  M625.9147,354.7028 L604.3600,354.7028 L601.9502,363.4048 L622.7015,363.4048 C626.4502,363.1368 630.1988,360.9950 630.3326,357.9155 C630.4668,354.7028 625.9147,354.7028 625.9147,354.7028 L625.9147,354.7028 Z Z M622.5678,360.5937 L605.4313,360.5937 L606.3685,357.2468 L625.9147,357.2468 C625.9147,357.2468 627.6553,357.1130 627.6553,357.9160 C627.5215,358.7194 625.7810,360.4600 622.5678,360.5937 Z"
               style="fill-rule: evenodd; fill: #ed1c24; "
               id="path81" />
          </g>
          <path
             d="  M672.3711,353.0964 L678.2621,346.1346 L679.8684,353.0964 L672.3711,353.0964 Z"
             style="fill-rule: evenodd; fill: #ed1c24; "
             id="path82" />
        </g>
        <defs
           id="defs86">
          <linearGradient
             id="grad28">
            <stop
               offset="0.0000%"
               stop-color="#003b7a"
               stop-opacity="1.0000"
               id="stop82" />
            <stop
               offset="18.0000%"
               stop-color="#004080"
               stop-opacity="1.0000"
               id="stop83" />
            <stop
               offset="48.0000%"
               stop-color="#004d90"
               stop-opacity="1.0000"
               id="stop84" />
            <stop
               offset="86.0000%"
               stop-color="#0062aa"
               stop-opacity="1.0000"
               id="stop85" />
            <stop
               offset="100.0000%"
               stop-color="#006cb7"
               stop-opacity="1.0000"
               id="stop86" />
          </linearGradient>
          <linearGradient
             xlink:href="#grad28"
             id="grad29"
             x1="0"
             y1="0"
             x2="0"
             y2="1"
             gradientTransform="rotate(-0 .5 .5)"
             gradientUnits="objectBoundingBox" />
        </defs>
        <path
           d="  M238.1990,400.0883 L228.2919,437.7086 L228.2919,437.7086 L228.2919,437.8423 L226.1496,445.7413 L226.0159,445.8751 L224.2753,452.3015 C223.4719,454.3096 221.8655,454.0421 220.9284,453.6404 L215.4392,448.2853 C215.4392,448.2853 215.3054,448.1516 215.3054,448.1516 L215.1716,448.0178 L205.5325,438.3787 L204.9971,437.8432 L204.9971,437.8432 L164.9670,397.9460 L140.3333,490.7247 L164.6990,490.7247 C163.2264,489.9213 163.0927,488.9841 163.0927,487.7795 C163.0927,487.6457 163.4944,485.1017 163.4944,484.8342 C163.7623,482.9599 164.8332,478.8096 164.8332,478.8096 L171.6613,453.3724 L171.6609,453.3724 L172.8660,448.8203 L173.9369,444.8037 L173.9369,444.8037 L175.5433,438.7791 C176.3467,436.6368 177.9531,437.0385 178.8902,437.4402 L183.9778,442.3940 L184.1115,442.5277 L188.5294,446.9456 L194.9558,453.2378 L194.9558,453.2386 L232.7098,490.7252 L235.6555,490.7247 L258.6828,404.6399 C259.0845,402.8994 259.7538,401.2930 260.5572,399.8204 L238.1990,400.0883 L238.1990,400.0883 Z"
           style="fill: url(#grad29); "
           id="path86" />
      </g>
    </g>
  </g>
</svg>
